{
.appVersion = "1264";
customParameters = (
{
name = Axes;
value = (
{
Name = Time;
Tag = TIME;
}
);
},
{
name = "Enforce Compatibility Check";
value = 1;
},
{
name = "Default Layer Width";
value = "240";
}
);
date = "2019-07-07 17:02:00 +0000";
designer = "Wenting Zhang, Hua Shu";
familyName = "Variable Color Icon Fonts";
fontMaster = (
{
ascender = 200;
capHeight = 200;
custom = Origin;
descender = -40;
id = "374D6CB2-7ECF-4C4C-B17A-FDC7D09CFFBE";
weightValue = 1;
xHeight = 160;
},
{
ascender = 200;
capHeight = 200;
custom = Target;
descender = -40;
iconName = Bold;
id = "43180DBC-A696-476D-8635-86ED5F988BC9";
xHeight = 160;
}
);
glyphs = (
{
glyphname = A;
lastChange = "2019-07-16 02:09:48 +0000";
layers = (
{
layerId = "374D6CB2-7ECF-4C4C-B17A-FDC7D09CFFBE";
paths = (
{
closed = 1;
nodes = (
"201 71 OFFCURVE",
"220 91 OFFCURVE",
"220 125 CURVE",
"220 156 OFFCURVE",
"195 180 OFFCURVE",
"165 180 CURVE",
"147 180 OFFCURVE",
"130 172 OFFCURVE",
"120 159 CURVE",
"109 172 OFFCURVE",
"92 180 OFFCURVE",
"75 180 CURVE",
"44 180 OFFCURVE",
"20 156 OFFCURVE",
"20 125 CURVE",
"20 92 OFFCURVE",
"36 73 OFFCURVE",
"120 -3 CURVE"
);
},
{
closed = 1;
nodes = (
"60 78 OFFCURVE",
"40 100 OFFCURVE",
"40 125 CURVE SMOOTH",
"40 145 OFFCURVE",
"55 160 OFFCURVE",
"75 160 CURVE",
"90 160 OFFCURVE",
"105 150 OFFCURVE",
"110 137 CURVE",
"129 137 LINE",
"134 150 OFFCURVE",
"149 160 OFFCURVE",
"165 160 CURVE",
"185 160 OFFCURVE",
"200 145 OFFCURVE",
"200 125 CURVE SMOOTH",
"200 101 OFFCURVE",
"183 80 OFFCURVE",
"120 24 CURVE"
);
},
{
closed = 1;
nodes = (
"109 75 LINE",
"132 120 LINE",
"109 115 LINE",
"119 137 LINE",
"110 137 LINE",
"105 150 OFFCURVE",
"90 160 OFFCURVE",
"75 160 CURVE",
"55 160 OFFCURVE",
"40 145 OFFCURVE",
"40 125 CURVE",
"40 100 OFFCURVE",
"60 78 OFFCURVE",
"120 24 CURVE",
"120 24 LINE",
"133 86 LINE"
);
},
{
closed = 1;
nodes = (
"149 160 OFFCURVE",
"134 150 OFFCURVE",
"129 137 CURVE",
"119 137 LINE",
"109 115 LINE",
"132 120 LINE",
"109 75 LINE",
"133 86 LINE",
"120 24 LINE",
"120 24 LINE",
"120 24 OFFCURVE",
"120 24 OFFCURVE",
"120 24 CURVE",
"183 80 OFFCURVE",
"200 101 OFFCURVE",
"200 125 CURVE",
"200 145 OFFCURVE",
"185 160 OFFCURVE",
"165 160 CURVE"
);
},
{
closed = 0;
nodes = (
"0 200 LINE",
"1 199 LINE"
);
}
);
width = 240;
},
{
layerId = "43180DBC-A696-476D-8635-86ED5F988BC9";
paths = (
{
closed = 1;
nodes = (
"201 71 OFFCURVE",
"220 91 OFFCURVE",
"220 125 CURVE",
"220 156 OFFCURVE",
"195 180 OFFCURVE",
"165 180 CURVE",
"147 180 OFFCURVE",
"130 172 OFFCURVE",
"120 159 CURVE",
"109 172 OFFCURVE",
"92 180 OFFCURVE",
"75 180 CURVE",
"44 180 OFFCURVE",
"20 156 OFFCURVE",
"20 125 CURVE",
"20 92 OFFCURVE",
"36 73 OFFCURVE",
"120 -3 CURVE"
);
},
{
closed = 1;
nodes = (
"60 78 OFFCURVE",
"40 100 OFFCURVE",
"40 125 CURVE SMOOTH",
"40 145 OFFCURVE",
"55 160 OFFCURVE",
"75 160 CURVE",
"90 160 OFFCURVE",
"105 150 OFFCURVE",
"110 137 CURVE",
"129 137 LINE",
"134 150 OFFCURVE",
"149 160 OFFCURVE",
"165 160 CURVE",
"185 160 OFFCURVE",
"200 145 OFFCURVE",
"200 125 CURVE SMOOTH",
"200 101 OFFCURVE",
"183 80 OFFCURVE",
"120 24 CURVE"
);
},
{
closed = 1;
nodes = (
"60 -153 LINE",
"66 -103 LINE",
"47 -115 LINE",
"48 -91 LINE",
"40 -94 LINE",
"31 -84 OFFCURVE",
"13 -79 OFFCURVE",
"-1 -85 CURVE",
"-20 -91 OFFCURVE",
"-29 -111 OFFCURVE",
"-22 -129 CURVE",
"-13 -153 OFFCURVE",
"13 -167 OFFCURVE",
"88 -197 CURVE",
"88 -197 LINE",
"79 -134 LINE"
);
},
{
closed = 1;
nodes = (
"226 -83 OFFCURVE",
"208 -87 OFFCURVE",
"199 -98 CURVE",
"190 -95 LINE",
"173 -112 LINE",
"196 -115 LINE",
"159 -149 LINE",
"185 -147 LINE",
"152 -201 LINE",
"152 -201 LINE",
"152 -201 OFFCURVE",
"152 -201 OFFCURVE",
"152 -201 CURVE",
"230 -170 OFFCURVE",
"253 -156 OFFCURVE",
"262 -133 CURVE",
"268 -115 OFFCURVE",
"259 -95 OFFCURVE",
"241 -89 CURVE"
);
},
{
closed = 0;
nodes = (
"0 200 LINE",
"1 199 LINE"
);
}
);
width = 240;
},
{
associatedMasterId = "374D6CB2-7ECF-4C4C-B17A-FDC7D09CFFBE";
layerId = "B3BF1CE5-EB8C-444A-85D9-0DC94B77C93E";
name = "Origin {50}";
paths = (
{
closed = 1;
nodes = (
"201 71 OFFCURVE",
"220 91 OFFCURVE",
"220 125 CURVE",
"220 156 OFFCURVE",
"195 180 OFFCURVE",
"165 180 CURVE",
"147 180 OFFCURVE",
"130 172 OFFCURVE",
"120 159 CURVE",
"109 172 OFFCURVE",
"92 180 OFFCURVE",
"75 180 CURVE",
"44 180 OFFCURVE",
"20 156 OFFCURVE",
"20 125 CURVE",
"20 92 OFFCURVE",
"36 73 OFFCURVE",
"120 -3 CURVE"
);
},
{
closed = 1;
nodes = (
"60 78 OFFCURVE",
"40 100 OFFCURVE",
"40 125 CURVE SMOOTH",
"40 145 OFFCURVE",
"55 160 OFFCURVE",
"75 160 CURVE",
"90 160 OFFCURVE",
"105 150 OFFCURVE",
"110 137 CURVE",
"129 137 LINE",
"134 150 OFFCURVE",
"149 160 OFFCURVE",
"165 160 CURVE",
"185 160 OFFCURVE",
"200 145 OFFCURVE",
"200 125 CURVE SMOOTH",
"200 101 OFFCURVE",
"183 80 OFFCURVE",
"120 24 CURVE"
);
},
{
closed = 1;
nodes = (
"92 68 LINE",
"98 118 LINE",
"79 106 LINE",
"80 130 LINE",
"72 127 LINE",
"63 137 OFFCURVE",
"45 142 OFFCURVE",
"31 136 CURVE",
"12 130 OFFCURVE",
"3 110 OFFCURVE",
"10 92 CURVE",
"19 68 OFFCURVE",
"45 54 OFFCURVE",
"120 24 CURVE",
"120 24 LINE",
"111 87 LINE"
);
},
{
closed = 1;
nodes = (
"194 142 OFFCURVE",
"176 138 OFFCURVE",
"167 127 CURVE",
"158 130 LINE",
"141 113 LINE",
"164 110 LINE",
"127 76 LINE",
"153 78 LINE",
"120 24 LINE",
"120 24 LINE",
"120 24 OFFCURVE",
"120 24 OFFCURVE",
"120 24 CURVE",
"198 55 OFFCURVE",
"221 69 OFFCURVE",
"230 92 CURVE",
"236 110 OFFCURVE",
"227 130 OFFCURVE",
"209 136 CURVE"
);
},
{
closed = 0;
nodes = (
"0 200 LINE",
"1 199 LINE"
);
}
);
width = 240;
}
);
unicode = 0041;
},
{
glyphname = B;
lastChange = "2019-07-15 04:25:36 +0000";
layers = (
{
layerId = "374D6CB2-7ECF-4C4C-B17A-FDC7D09CFFBE";
paths = (
{
closed = 1;
nodes = (
"202 71 OFFCURVE",
"220 91 OFFCURVE",
"220 125 CURVE SMOOTH",
"220 156 OFFCURVE",
"195 180 OFFCURVE",
"165 180 CURVE SMOOTH",
"147 180 OFFCURVE",
"130 172 OFFCURVE",
"120 159 CURVE",
"109 172 OFFCURVE",
"92 180 OFFCURVE",
"75 180 CURVE SMOOTH",
"44 180 OFFCURVE",
"20 156 OFFCURVE",
"20 125 CURVE SMOOTH",
"20 92 OFFCURVE",
"36 73 OFFCURVE",
"120 -3 CURVE"
);
},
{
closed = 1;
nodes = (
"202 71 OFFCURVE",
"220 91 OFFCURVE",
"220 125 CURVE SMOOTH",
"220 156 OFFCURVE",
"195 180 OFFCURVE",
"165 180 CURVE SMOOTH",
"147 180 OFFCURVE",
"130 172 OFFCURVE",
"120 159 CURVE",
"109 172 OFFCURVE",
"92 180 OFFCURVE",
"75 180 CURVE SMOOTH",
"44 180 OFFCURVE",
"20 156 OFFCURVE",
"20 125 CURVE SMOOTH",
"20 92 OFFCURVE",
"36 73 OFFCURVE",
"120 -3 CURVE"
);
},
{
closed = 1;
nodes = (
"83 82 OFFCURVE",
"75 90 OFFCURVE",
"75 105 CURVE SMOOTH",
"75 119 OFFCURVE",
"86 130 OFFCURVE",
"100 130 CURVE SMOOTH",
"107 130 OFFCURVE",
"115 126 OFFCURVE",
"120 120 CURVE",
"125 126 OFFCURVE",
"132 130 OFFCURVE",
"140 130 CURVE SMOOTH",
"153 130 OFFCURVE",
"165 119 OFFCURVE",
"165 105 CURVE SMOOTH",
"165 90 OFFCURVE",
"157 81 OFFCURVE",
"120 48 CURVE"
);
}
);
width = 240;
},
{
layerId = "43180DBC-A696-476D-8635-86ED5F988BC9";
paths = (
{
closed = 1;
nodes = (
"202 71 OFFCURVE",
"220 91 OFFCURVE",
"220 125 CURVE SMOOTH",
"220 156 OFFCURVE",
"195 180 OFFCURVE",
"165 180 CURVE SMOOTH",
"147 180 OFFCURVE",
"130 172 OFFCURVE",
"120 159 CURVE",
"109 172 OFFCURVE",
"92 180 OFFCURVE",
"75 180 CURVE SMOOTH",
"44 180 OFFCURVE",
"20 156 OFFCURVE",
"20 125 CURVE SMOOTH",
"20 92 OFFCURVE",
"36 73 OFFCURVE",
"120 -3 CURVE"
);
},
{
closed = 1;
nodes = (
"307 49 OFFCURVE",
"347 92 OFFCURVE",
"347 170 CURVE SMOOTH",
"347 241 OFFCURVE",
"288 297 OFFCURVE",
"221 297 CURVE SMOOTH",
"180 297 OFFCURVE",
"146 278 OFFCURVE",
"120 248 CURVE",
"95 278 OFFCURVE",
"56 297 OFFCURVE",
"18 297 CURVE SMOOTH",
"-53 297 OFFCURVE",
"-108 241 OFFCURVE",
"-108 170 CURVE SMOOTH",
"-108 94 OFFCURVE",
"-70 50 OFFCURVE",
"119 -119 CURVE"
);
},
{
closed = 1;
nodes = (
"-70 50 OFFCURVE",
"-108 94 OFFCURVE",
"-108 170 CURVE SMOOTH",
"-108 241 OFFCURVE",
"-53 297 OFFCURVE",
"18 297 CURVE SMOOTH",
"56 297 OFFCURVE",
"95 278 OFFCURVE",
"120 248 CURVE",
"146 278 OFFCURVE",
"180 297 OFFCURVE",
"221 297 CURVE SMOOTH",
"288 297 OFFCURVE",
"347 241 OFFCURVE",
"347 170 CURVE SMOOTH",
"347 92 OFFCURVE",
"307 49 OFFCURVE",
"119 -119 CURVE"
);
}
);
width = 240;
},
{
associatedMasterId = "374D6CB2-7ECF-4C4C-B17A-FDC7D09CFFBE";
layerId = "DBF47605-789D-457F-8EF0-4904FE01C79E";
name = "Origin [99]";
paths = (
{
closed = 1;
nodes = (
"202 71 OFFCURVE",
"220 91 OFFCURVE",
"220 125 CURVE SMOOTH",
"220 156 OFFCURVE",
"195 180 OFFCURVE",
"165 180 CURVE SMOOTH",
"147 180 OFFCURVE",
"130 172 OFFCURVE",
"120 159 CURVE",
"109 172 OFFCURVE",
"92 180 OFFCURVE",
"75 180 CURVE SMOOTH",
"44 180 OFFCURVE",
"20 156 OFFCURVE",
"20 125 CURVE SMOOTH",
"20 92 OFFCURVE",
"36 73 OFFCURVE",
"120 -3 CURVE"
);
}
);
width = 240;
},
{
associatedMasterId = "43180DBC-A696-476D-8635-86ED5F988BC9";
layerId = "53E8D408-23B3-406E-8670-2BF2A254C234";
name = "Target [99]";
paths = (
{
closed = 1;
nodes = (
"202 71 OFFCURVE",
"220 91 OFFCURVE",
"220 125 CURVE SMOOTH",
"220 156 OFFCURVE",
"195 180 OFFCURVE",
"165 180 CURVE SMOOTH",
"147 180 OFFCURVE",
"130 172 OFFCURVE",
"120 159 CURVE",
"109 172 OFFCURVE",
"92 180 OFFCURVE",
"75 180 CURVE SMOOTH",
"44 180 OFFCURVE",
"20 156 OFFCURVE",
"20 125 CURVE SMOOTH",
"20 92 OFFCURVE",
"36 73 OFFCURVE",
"120 -3 CURVE"
);
}
);
width = 240;
}
);
unicode = 0042;
},
{
glyphname = C;
lastChange = "2019-07-15 04:25:49 +0000";
layers = (
{
layerId = "374D6CB2-7ECF-4C4C-B17A-FDC7D09CFFBE";
paths = (
{
closed = 1;
nodes = (
"202 71 OFFCURVE",
"220 91 OFFCURVE",
"220 125 CURVE SMOOTH",
"220 156 OFFCURVE",
"195 180 OFFCURVE",
"165 180 CURVE SMOOTH",
"147 180 OFFCURVE",
"130 172 OFFCURVE",
"120 159 CURVE",
"109 172 OFFCURVE",
"92 180 OFFCURVE",
"75 180 CURVE SMOOTH",
"44 180 OFFCURVE",
"20 156 OFFCURVE",
"20 125 CURVE SMOOTH",
"20 92 OFFCURVE",
"36 73 OFFCURVE",
"120 -3 CURVE"
);
}
);
width = 240;
},
{
layerId = "43180DBC-A696-476D-8635-86ED5F988BC9";
paths = (
{
closed = 1;
nodes = (
"133 40 OFFCURVE",
"147 47 OFFCURVE",
"154 59 CURVE SMOOTH",
"162 73 OFFCURVE",
"162 88 OFFCURVE",
"154 101 CURVE SMOOTH",
"147 112 OFFCURVE",
"134 120 OFFCURVE",
"120 120 CURVE SMOOTH",
"106 120 OFFCURVE",
"93 112 OFFCURVE",
"86 101 CURVE SMOOTH",
"78 88 OFFCURVE",
"78 73 OFFCURVE",
"86 59 CURVE SMOOTH",
"93 47 OFFCURVE",
"107 40 OFFCURVE",
"120 40 CURVE SMOOTH"
);
}
);
width = 240;
}
);
unicode = 0043;
},
{
glyphname = D;
lastChange = "2019-07-15 04:31:02 +0000";
layers = (
{
layerId = "374D6CB2-7ECF-4C4C-B17A-FDC7D09CFFBE";
paths = (
{
closed = 1;
nodes = (
"202 71 OFFCURVE",
"220 91 OFFCURVE",
"220 125 CURVE SMOOTH",
"220 156 OFFCURVE",
"195 180 OFFCURVE",
"165 180 CURVE SMOOTH",
"147 180 OFFCURVE",
"130 172 OFFCURVE",
"120 159 CURVE",
"109 172 OFFCURVE",
"92 180 OFFCURVE",
"75 180 CURVE SMOOTH",
"44 180 OFFCURVE",
"20 156 OFFCURVE",
"20 125 CURVE SMOOTH",
"20 92 OFFCURVE",
"36 73 OFFCURVE",
"120 -3 CURVE"
);
}
);
width = 240;
},
{
layerId = "43180DBC-A696-476D-8635-86ED5F988BC9";
paths = (
{
closed = 1;
nodes = (
"124 69 OFFCURVE",
"127 71 OFFCURVE",
"129 74 CURVE SMOOTH",
"131 77 OFFCURVE",
"132 82 OFFCURVE",
"129 86 CURVE SMOOTH",
"127 89 OFFCURVE",
"124 91 OFFCURVE",
"120 91 CURVE SMOOTH",
"116 91 OFFCURVE",
"113 89 OFFCURVE",
"111 86 CURVE SMOOTH",
"109 83 OFFCURVE",
"108 78 OFFCURVE",
"111 74 CURVE SMOOTH",
"113 71 OFFCURVE",
"116 69 OFFCURVE",
"120 69 CURVE SMOOTH"
);
}
);
width = 240;
},
{
associatedMasterId = "374D6CB2-7ECF-4C4C-B17A-FDC7D09CFFBE";
layerId = "9C6380C5-2AAD-43D8-AF0D-E59134E0E1DA";
name = "Origin [99]";
width = 240;
},
{
associatedMasterId = "43180DBC-A696-476D-8635-86ED5F988BC9";
layerId = "7B5DE432-CBC3-4EF2-B202-5D23604D41CC";
name = "Target [99]";
width = 240;
}
);
unicode = 0044;
},
{
glyphname = E;
lastChange = "2019-07-15 04:25:24 +0000";
layers = (
{
layerId = "374D6CB2-7ECF-4C4C-B17A-FDC7D09CFFBE";
paths = (
{
closed = 1;
nodes = (
"201 71 OFFCURVE",
"220 91 OFFCURVE",
"220 125 CURVE SMOOTH",
"220 156 OFFCURVE",
"195 180 OFFCURVE",
"165 180 CURVE SMOOTH",
"147 180 OFFCURVE",
"130 172 OFFCURVE",
"120 159 CURVE",
"109 172 OFFCURVE",
"92 180 OFFCURVE",
"75 180 CURVE SMOOTH",
"44 180 OFFCURVE",
"20 156 OFFCURVE",
"20 125 CURVE SMOOTH",
"20 92 OFFCURVE",
"36 73 OFFCURVE",
"120 -3 CURVE"
);
},
{
closed = 1;
nodes = (
"125 153 OFFCURVE",
"126 154 OFFCURVE",
"126 156 CURVE SMOOTH",
"126 158 OFFCURVE",
"125 159 OFFCURVE",
"123 159 CURVE SMOOTH",
"122 159 OFFCURVE",
"121 158 OFFCURVE",
"120 157 CURVE",
"119 158 OFFCURVE",
"118 159 OFFCURVE",
"117 159 CURVE SMOOTH",
"115 159 OFFCURVE",
"114 158 OFFCURVE",
"114 156 CURVE SMOOTH",
"114 154 OFFCURVE",
"115 153 OFFCURVE",
"120 148 CURVE"
);
},
{
closed = 1;
nodes = (
"170 173 OFFCURVE",
"171 174 OFFCURVE",
"171 176 CURVE SMOOTH",
"171 178 OFFCURVE",
"170 179 OFFCURVE",
"168 179 CURVE SMOOTH",
"167 179 OFFCURVE",
"166 178 OFFCURVE",
"165 177 CURVE",
"164 178 OFFCURVE",
"163 179 OFFCURVE",
"162 179 CURVE SMOOTH",
"160 179 OFFCURVE",
"159 178 OFFCURVE",
"159 176 CURVE SMOOTH",
"159 174 OFFCURVE",
"160 173 OFFCURVE",
"165 168 CURVE"
);
},
{
closed = 1;
nodes = (
"80 173 OFFCURVE",
"81 174 OFFCURVE",
"81 176 CURVE SMOOTH",
"81 178 OFFCURVE",
"80 179 OFFCURVE",
"78 179 CURVE SMOOTH",
"77 179 OFFCURVE",
"76 178 OFFCURVE",
"75 177 CURVE",
"74 178 OFFCURVE",
"73 179 OFFCURVE",
"72 179 CURVE SMOOTH",
"70 179 OFFCURVE",
"69 178 OFFCURVE",
"69 176 CURVE SMOOTH",
"69 174 OFFCURVE",
"70 173 OFFCURVE",
"75 168 CURVE"
);
},
{
closed = 1;
nodes = (
"34 122 OFFCURVE",
"35 123 OFFCURVE",
"35 125 CURVE SMOOTH",
"35 127 OFFCURVE",
"34 128 OFFCURVE",
"32 128 CURVE SMOOTH",
"31 128 OFFCURVE",
"30 127 OFFCURVE",
"29 126 CURVE",
"28 127 OFFCURVE",
"27 128 OFFCURVE",
"26 128 CURVE SMOOTH",
"24 128 OFFCURVE",
"23 127 OFFCURVE",
"23 125 CURVE SMOOTH",
"23 123 OFFCURVE",
"24 122 OFFCURVE",
"29 117 CURVE"
);
},
{
closed = 1;
nodes = (
"216 122 OFFCURVE",
"217 123 OFFCURVE",
"217 125 CURVE SMOOTH",
"217 127 OFFCURVE",
"216 128 OFFCURVE",
"214 128 CURVE SMOOTH",
"213 128 OFFCURVE",
"212 127 OFFCURVE",
"211 126 CURVE",
"210 127 OFFCURVE",
"209 128 OFFCURVE",
"208 128 CURVE SMOOTH",
"206 128 OFFCURVE",
"205 127 OFFCURVE",
"205 125 CURVE SMOOTH",
"205 123 OFFCURVE",
"206 122 OFFCURVE",
"211 117 CURVE"
);
},
{
closed = 1;
nodes = (
"125 5 OFFCURVE",
"126 6 OFFCURVE",
"126 8 CURVE SMOOTH",
"126 10 OFFCURVE",
"125 11 OFFCURVE",
"123 11 CURVE SMOOTH",
"122 11 OFFCURVE",
"121 10 OFFCURVE",
"120 9 CURVE",
"119 10 OFFCURVE",
"118 11 OFFCURVE",
"117 11 CURVE SMOOTH",
"115 11 OFFCURVE",
"114 10 OFFCURVE",
"114 8 CURVE SMOOTH",
"114 6 OFFCURVE",
"115 5 OFFCURVE",
"120 0 CURVE"
);
},
{
closed = 1;
nodes = (
"157 36 OFFCURVE",
"158 37 OFFCURVE",
"158 39 CURVE SMOOTH",
"158 41 OFFCURVE",
"157 42 OFFCURVE",
"155 42 CURVE SMOOTH",
"154 42 OFFCURVE",
"153 41 OFFCURVE",
"152 40 CURVE",
"151 41 OFFCURVE",
"150 42 OFFCURVE",
"149 42 CURVE SMOOTH",
"147 42 OFFCURVE",
"146 41 OFFCURVE",
"146 39 CURVE SMOOTH",
"146 37 OFFCURVE",
"147 36 OFFCURVE",
"152 31 CURVE"
);
},
{
closed = 1;
nodes = (
"195 75 OFFCURVE",
"196 76 OFFCURVE",
"196 78 CURVE SMOOTH",
"196 80 OFFCURVE",
"195 81 OFFCURVE",
"193 81 CURVE SMOOTH",
"192 81 OFFCURVE",
"191 80 OFFCURVE",
"190 79 CURVE",
"189 80 OFFCURVE",
"188 81 OFFCURVE",
"187 81 CURVE SMOOTH",
"185 81 OFFCURVE",
"184 80 OFFCURVE",
"184 78 CURVE SMOOTH",
"184 76 OFFCURVE",
"185 75 OFFCURVE",
"190 70 CURVE"
);
},
{
closed = 1;
nodes = (
"55 75 OFFCURVE",
"56 76 OFFCURVE",
"56 78 CURVE SMOOTH",
"56 80 OFFCURVE",
"55 81 OFFCURVE",
"53 81 CURVE SMOOTH",
"52 81 OFFCURVE",
"51 80 OFFCURVE",
"50 79 CURVE",
"49 80 OFFCURVE",
"48 81 OFFCURVE",
"47 81 CURVE SMOOTH",
"45 81 OFFCURVE",
"44 80 OFFCURVE",
"44 78 CURVE SMOOTH",
"44 76 OFFCURVE",
"45 75 OFFCURVE",
"50 70 CURVE"
);
},
{
closed = 1;
nodes = (
"93 36 OFFCURVE",
"94 37 OFFCURVE",
"94 39 CURVE SMOOTH",
"94 41 OFFCURVE",
"93 42 OFFCURVE",
"91 42 CURVE SMOOTH",
"90 42 OFFCURVE",
"89 41 OFFCURVE",
"88 40 CURVE",
"87 41 OFFCURVE",
"86 42 OFFCURVE",
"85 42 CURVE SMOOTH",
"83 42 OFFCURVE",
"82 41 OFFCURVE",
"82 39 CURVE SMOOTH",
"82 37 OFFCURVE",
"83 36 OFFCURVE",
"88 31 CURVE"
);
}
);
width = 240;
},
{
layerId = "43180DBC-A696-476D-8635-86ED5F988BC9";
paths = (
{
closed = 1;
nodes = (
"201 71 OFFCURVE",
"220 91 OFFCURVE",
"220 125 CURVE SMOOTH",
"220 156 OFFCURVE",
"195 180 OFFCURVE",
"165 180 CURVE SMOOTH",
"147 180 OFFCURVE",
"130 172 OFFCURVE",
"120 159 CURVE",
"109 172 OFFCURVE",
"92 180 OFFCURVE",
"75 180 CURVE SMOOTH",
"44 180 OFFCURVE",
"20 156 OFFCURVE",
"20 125 CURVE SMOOTH",
"20 92 OFFCURVE",
"36 73 OFFCURVE",
"120 -3 CURVE"
);
},
{
closed = 1;
nodes = (
"130 193 OFFCURVE",
"132 194 OFFCURVE",
"132 198 CURVE SMOOTH",
"132 202 OFFCURVE",
"130 204 OFFCURVE",
"126 204 CURVE SMOOTH",
"124 204 OFFCURVE",
"122 202 OFFCURVE",
"120 200 CURVE",
"118 202 OFFCURVE",
"116 204 OFFCURVE",
"114 204 CURVE SMOOTH",
"110 204 OFFCURVE",
"108 202 OFFCURVE",
"108 198 CURVE SMOOTH",
"108 194 OFFCURVE",
"110 193 OFFCURVE",
"120 183 CURVE"
);
},
{
closed = 1;
nodes = (
"225 203 OFFCURVE",
"227 204 OFFCURVE",
"227 208 CURVE SMOOTH",
"227 212 OFFCURVE",
"225 214 OFFCURVE",
"221 214 CURVE SMOOTH",
"219 214 OFFCURVE",
"217 212 OFFCURVE",
"215 210 CURVE",
"213 212 OFFCURVE",
"211 214 OFFCURVE",
"209 214 CURVE SMOOTH",
"205 214 OFFCURVE",
"203 212 OFFCURVE",
"203 208 CURVE SMOOTH",
"203 204 OFFCURVE",
"205 203 OFFCURVE",
"215 193 CURVE"
);
},
{
closed = 1;
nodes = (
"35 203 OFFCURVE",
"37 204 OFFCURVE",
"37 208 CURVE SMOOTH",
"37 212 OFFCURVE",
"35 214 OFFCURVE",
"31 214 CURVE SMOOTH",
"29 214 OFFCURVE",
"27 212 OFFCURVE",
"25 210 CURVE",
"23 212 OFFCURVE",
"21 214 OFFCURVE",
"19 214 CURVE SMOOTH",
"15 214 OFFCURVE",
"13 212 OFFCURVE",
"13 208 CURVE SMOOTH",
"13 204 OFFCURVE",
"15 203 OFFCURVE",
"25 193 CURVE"
);
},
{
closed = 1;
nodes = (
"-1 122 OFFCURVE",
"1 123 OFFCURVE",
"1 127 CURVE SMOOTH",
"1 131 OFFCURVE",
"-1 133 OFFCURVE",
"-5 133 CURVE SMOOTH",
"-7 133 OFFCURVE",
"-9 131 OFFCURVE",
"-11 129 CURVE",
"-13 131 OFFCURVE",
"-15 133 OFFCURVE",
"-17 133 CURVE SMOOTH",
"-21 133 OFFCURVE",
"-23 131 OFFCURVE",
"-23 127 CURVE SMOOTH",
"-23 123 OFFCURVE",
"-21 122 OFFCURVE",
"-11 112 CURVE"
);
},
{
closed = 1;
nodes = (
"261 122 OFFCURVE",
"263 123 OFFCURVE",
"263 127 CURVE SMOOTH",
"263 131 OFFCURVE",
"261 133 OFFCURVE",
"257 133 CURVE SMOOTH",
"255 133 OFFCURVE",
"253 131 OFFCURVE",
"251 129 CURVE",
"249 131 OFFCURVE",
"247 133 OFFCURVE",
"245 133 CURVE SMOOTH",
"241 133 OFFCURVE",
"239 131 OFFCURVE",
"239 127 CURVE SMOOTH",
"239 123 OFFCURVE",
"241 122 OFFCURVE",
"251 112 CURVE"
);
},
{
closed = 1;
nodes = (
"130 -25 OFFCURVE",
"132 -24 OFFCURVE",
"132 -20 CURVE SMOOTH",
"132 -16 OFFCURVE",
"130 -14 OFFCURVE",
"126 -14 CURVE SMOOTH",
"124 -14 OFFCURVE",
"122 -16 OFFCURVE",
"120 -18 CURVE",
"118 -16 OFFCURVE",
"116 -14 OFFCURVE",
"114 -14 CURVE SMOOTH",
"110 -14 OFFCURVE",
"108 -16 OFFCURVE",
"108 -20 CURVE SMOOTH",
"108 -24 OFFCURVE",
"110 -25 OFFCURVE",
"120 -35 CURVE"
);
},
{
closed = 1;
nodes = (
"202 16 OFFCURVE",
"204 17 OFFCURVE",
"204 21 CURVE SMOOTH",
"204 25 OFFCURVE",
"202 27 OFFCURVE",
"198 27 CURVE SMOOTH",
"196 27 OFFCURVE",
"194 25 OFFCURVE",
"192 23 CURVE",
"190 25 OFFCURVE",
"188 27 OFFCURVE",
"186 27 CURVE SMOOTH",
"182 27 OFFCURVE",
"180 25 OFFCURVE",
"180 21 CURVE SMOOTH",
"180 17 OFFCURVE",
"182 16 OFFCURVE",
"192 6 CURVE"
);
},
{
closed = 1;
nodes = (
"240 65 OFFCURVE",
"242 66 OFFCURVE",
"242 70 CURVE SMOOTH",
"242 74 OFFCURVE",
"240 76 OFFCURVE",
"236 76 CURVE SMOOTH",
"234 76 OFFCURVE",
"232 74 OFFCURVE",
"230 72 CURVE",
"228 74 OFFCURVE",
"226 76 OFFCURVE",
"224 76 CURVE SMOOTH",
"220 76 OFFCURVE",
"218 74 OFFCURVE",
"218 70 CURVE SMOOTH",
"218 66 OFFCURVE",
"220 65 OFFCURVE",
"230 55 CURVE"
);
},
{
closed = 1;
nodes = (
"20 65 OFFCURVE",
"22 66 OFFCURVE",
"22 70 CURVE SMOOTH",
"22 74 OFFCURVE",
"20 76 OFFCURVE",
"16 76 CURVE SMOOTH",
"14 76 OFFCURVE",
"12 74 OFFCURVE",
"10 72 CURVE",
"8 74 OFFCURVE",
"6 76 OFFCURVE",
"4 76 CURVE SMOOTH",
"0 76 OFFCURVE",
"-2 74 OFFCURVE",
"-2 70 CURVE SMOOTH",
"-2 66 OFFCURVE",
"0 65 OFFCURVE",
"10 55 CURVE"
);
},
{
closed = 1;
nodes = (
"58 16 OFFCURVE",
"60 17 OFFCURVE",
"60 21 CURVE SMOOTH",
"60 25 OFFCURVE",
"58 27 OFFCURVE",
"54 27 CURVE SMOOTH",
"52 27 OFFCURVE",
"50 25 OFFCURVE",
"48 23 CURVE",
"46 25 OFFCURVE",
"44 27 OFFCURVE",
"42 27 CURVE SMOOTH",
"38 27 OFFCURVE",
"36 25 OFFCURVE",
"36 21 CURVE SMOOTH",
"36 17 OFFCURVE",
"38 16 OFFCURVE",
"48 6 CURVE"
);
}
);
width = 240;
}
);
unicode = 0045;
},
{
glyphname = F;
lastChange = "2019-07-16 03:05:53 +0000";
layers = (
{
layerId = "374D6CB2-7ECF-4C4C-B17A-FDC7D09CFFBE";
paths = (
{
closed = 1;
nodes = (
"201 71 OFFCURVE",
"220 91 OFFCURVE",
"220 125 CURVE",
"220 156 OFFCURVE",
"195 180 OFFCURVE",
"165 180 CURVE",
"147 180 OFFCURVE",
"130 172 OFFCURVE",
"120 159 CURVE",
"109 172 OFFCURVE",
"92 180 OFFCURVE",
"75 180 CURVE",
"44 180 OFFCURVE",
"20 156 OFFCURVE",
"20 125 CURVE",
"20 92 OFFCURVE",
"36 73 OFFCURVE",
"120 -3 CURVE"
);
},
{
closed = 1;
nodes = (
"59 78 OFFCURVE",
"39 100 OFFCURVE",
"39 125 CURVE SMOOTH",
"39 146 OFFCURVE",
"54 161 OFFCURVE",
"75 161 CURVE",
"90 161 OFFCURVE",
"105 151 OFFCURVE",
"110 137 CURVE",
"129 137 LINE",
"134 151 OFFCURVE",
"149 161 OFFCURVE",
"165 161 CURVE",
"186 161 OFFCURVE",
"201 146 OFFCURVE",
"201 125 CURVE SMOOTH",
"201 101 OFFCURVE",
"184 80 OFFCURVE",
"120 23 CURVE"
);
},
{
closed = 1;
nodes = (
"184 80 OFFCURVE",
"202 101 OFFCURVE",
"202 126 CURVE SMOOTH",
"202 146 OFFCURVE",
"186 161 OFFCURVE",
"166 161 CURVE",
"150 161 OFFCURVE",
"134 151 OFFCURVE",
"129 138 CURVE",
"110 138 LINE",
"105 151 OFFCURVE",
"89 161 OFFCURVE",
"74 161 CURVE",
"54 161 OFFCURVE",
"38 146 OFFCURVE",
"38 126 CURVE SMOOTH",
"38 100 OFFCURVE",
"59 78 OFFCURVE",
"120 23 CURVE"
);
}
);
width = 240;
},
{
layerId = "43180DBC-A696-476D-8635-86ED5F988BC9";
paths = (
{
closed = 1;
nodes = (
"201 71 OFFCURVE",
"220 91 OFFCURVE",
"220 125 CURVE",
"220 156 OFFCURVE",
"195 180 OFFCURVE",
"165 180 CURVE",
"147 180 OFFCURVE",
"130 172 OFFCURVE",
"120 159 CURVE",
"109 172 OFFCURVE",
"92 180 OFFCURVE",
"75 180 CURVE",
"44 180 OFFCURVE",
"20 156 OFFCURVE",
"20 125 CURVE",
"20 92 OFFCURVE",
"36 73 OFFCURVE",
"120 -3 CURVE"
);
},
{
closed = 1;
nodes = (
"59 78 OFFCURVE",
"39 100 OFFCURVE",
"39 125 CURVE SMOOTH",
"39 146 OFFCURVE",
"54 161 OFFCURVE",
"75 161 CURVE",
"90 161 OFFCURVE",
"105 151 OFFCURVE",
"110 137 CURVE",
"129 137 LINE",
"134 151 OFFCURVE",
"149 161 OFFCURVE",
"165 161 CURVE",
"186 161 OFFCURVE",
"201 146 OFFCURVE",
"201 125 CURVE SMOOTH",
"201 101 OFFCURVE",
"184 80 OFFCURVE",
"120 23 CURVE"
);
},
{
closed = 1;
nodes = (
"184 80 OFFCURVE",
"202 101 OFFCURVE",
"202 126 CURVE SMOOTH",
"202 146 OFFCURVE",
"186 161 OFFCURVE",
"166 161 CURVE",
"150 161 OFFCURVE",
"134 151 OFFCURVE",
"129 138 CURVE",
"110 138 LINE",
"105 151 OFFCURVE",
"89 161 OFFCURVE",
"74 161 CURVE",
"54 161 OFFCURVE",
"38 146 OFFCURVE",
"38 126 CURVE SMOOTH",
"38 100 OFFCURVE",
"59 78 OFFCURVE",
"120 23 CURVE"
);
}
);
width = 240;
},
{
associatedMasterId = "374D6CB2-7ECF-4C4C-B17A-FDC7D09CFFBE";
layerId = "E3E80CCC-C6B8-4589-9F93-D3C1CB9E9BCD";
name = "Origin {25}";
paths = (
{
closed = 1;
nodes = (
"201 71 OFFCURVE",
"220 91 OFFCURVE",
"220 125 CURVE",
"220 156 OFFCURVE",
"195 180 OFFCURVE",
"165 180 CURVE",
"147 180 OFFCURVE",
"130 172 OFFCURVE",
"120 159 CURVE",
"109 172 OFFCURVE",
"92 180 OFFCURVE",
"75 180 CURVE",
"44 180 OFFCURVE",
"20 156 OFFCURVE",
"20 125 CURVE",
"20 92 OFFCURVE",
"36 73 OFFCURVE",
"120 -3 CURVE"
);
},
{
closed = 1;
nodes = (
"60 78 OFFCURVE",
"40 100 OFFCURVE",
"40 125 CURVE SMOOTH",
"40 145 OFFCURVE",
"55 160 OFFCURVE",
"75 160 CURVE",
"90 160 OFFCURVE",
"105 150 OFFCURVE",
"110 137 CURVE",
"129 137 LINE",
"134 150 OFFCURVE",
"149 160 OFFCURVE",
"165 160 CURVE",
"185 160 OFFCURVE",
"200 145 OFFCURVE",
"200 125 CURVE SMOOTH",
"200 101 OFFCURVE",
"183 80 OFFCURVE",
"120 24 CURVE"
);
},
{
closed = 1;
nodes = (
"153 86 OFFCURVE",
"162 97 OFFCURVE",
"162 109 CURVE SMOOTH",
"162 120 OFFCURVE",
"154 127 OFFCURVE",
"144 127 CURVE",
"135 127 OFFCURVE",
"127 122 OFFCURVE",
"125 116 CURVE",
"115 116 LINE",
"112 122 OFFCURVE",
"104 127 OFFCURVE",
"96 127 CURVE",
"86 127 OFFCURVE",
"78 120 OFFCURVE",
"78 109 CURVE SMOOTH",
"78 96 OFFCURVE",
"89 85 OFFCURVE",
"120 57 CURVE"
);
}
);
width = 240;
},
{
associatedMasterId = "374D6CB2-7ECF-4C4C-B17A-FDC7D09CFFBE";
layerId = "8CFB17B0-55A6-4A83-B406-F792B98D1EB3";
name = "Origin {50}";
paths = (
{
closed = 1;
nodes = (
"201 71 OFFCURVE",
"220 91 OFFCURVE",
"220 125 CURVE",
"220 156 OFFCURVE",
"195 180 OFFCURVE",
"165 180 CURVE",
"147 180 OFFCURVE",
"130 172 OFFCURVE",
"120 159 CURVE",
"109 172 OFFCURVE",
"92 180 OFFCURVE",
"75 180 CURVE",
"44 180 OFFCURVE",
"20 156 OFFCURVE",
"20 125 CURVE",
"20 92 OFFCURVE",
"36 73 OFFCURVE",
"120 -3 CURVE"
);
},
{
closed = 1;
nodes = (
"59 78 OFFCURVE",
"39 100 OFFCURVE",
"39 125 CURVE SMOOTH",
"39 146 OFFCURVE",
"54 161 OFFCURVE",
"75 161 CURVE",
"90 161 OFFCURVE",
"105 151 OFFCURVE",
"110 137 CURVE",
"129 137 LINE",
"134 151 OFFCURVE",
"149 161 OFFCURVE",
"165 161 CURVE",
"186 161 OFFCURVE",
"201 146 OFFCURVE",
"201 125 CURVE SMOOTH",
"201 101 OFFCURVE",
"184 80 OFFCURVE",
"120 23 CURVE"
);
},
{
closed = 1;
nodes = (
"184 80 OFFCURVE",
"202 101 OFFCURVE",
"202 126 CURVE SMOOTH",
"202 146 OFFCURVE",
"186 161 OFFCURVE",
"166 161 CURVE",
"150 161 OFFCURVE",
"134 151 OFFCURVE",
"129 138 CURVE",
"110 138 LINE",
"105 151 OFFCURVE",
"89 161 OFFCURVE",
"74 161 CURVE",
"54 161 OFFCURVE",
"38 146 OFFCURVE",
"38 126 CURVE SMOOTH",
"38 100 OFFCURVE",
"59 78 OFFCURVE",
"120 23 CURVE"
);
}
);
width = 240;
},
{
associatedMasterId = "374D6CB2-7ECF-4C4C-B17A-FDC7D09CFFBE";
layerId = "1FC021B0-4448-4DEC-B0FE-C3F6D3B5CCB5";
name = "Origin {75}";
paths = (
{
closed = 1;
nodes = (
"201 71 OFFCURVE",
"220 91 OFFCURVE",
"220 125 CURVE",
"220 156 OFFCURVE",
"195 180 OFFCURVE",
"165 180 CURVE",
"147 180 OFFCURVE",
"130 172 OFFCURVE",
"120 159 CURVE",
"109 172 OFFCURVE",
"92 180 OFFCURVE",
"75 180 CURVE",
"44 180 OFFCURVE",
"20 156 OFFCURVE",
"20 125 CURVE",
"20 92 OFFCURVE",
"36 73 OFFCURVE",
"120 -3 CURVE"
);
},
{
closed = 1;
nodes = (
"60 78 OFFCURVE",
"40 100 OFFCURVE",
"40 125 CURVE SMOOTH",
"40 145 OFFCURVE",
"55 160 OFFCURVE",
"75 160 CURVE",
"90 160 OFFCURVE",
"105 150 OFFCURVE",
"110 137 CURVE",
"129 137 LINE",
"134 150 OFFCURVE",
"149 160 OFFCURVE",
"165 160 CURVE",
"185 160 OFFCURVE",
"200 145 OFFCURVE",
"200 125 CURVE SMOOTH",
"200 101 OFFCURVE",
"183 80 OFFCURVE",
"120 24 CURVE"
);
},
{
closed = 1;
nodes = (
"153 86 OFFCURVE",
"162 97 OFFCURVE",
"162 109 CURVE SMOOTH",
"162 120 OFFCURVE",
"154 127 OFFCURVE",
"144 127 CURVE",
"135 127 OFFCURVE",
"127 122 OFFCURVE",
"125 116 CURVE",
"115 116 LINE",
"112 122 OFFCURVE",
"104 127 OFFCURVE",
"96 127 CURVE",
"86 127 OFFCURVE",
"78 120 OFFCURVE",
"78 109 CURVE SMOOTH",
"78 96 OFFCURVE",
"89 85 OFFCURVE",
"120 57 CURVE"
);
}
);
width = 240;
}
);
unicode = 0046;
},
{
glyphname = G;
lastChange = "2019-07-16 03:05:55 +0000";
layers = (
{
layerId = "374D6CB2-7ECF-4C4C-B17A-FDC7D09CFFBE";
paths = (
{
closed = 1;
nodes = (
"201 71 OFFCURVE",
"220 91 OFFCURVE",
"220 125 CURVE",
"220 156 OFFCURVE",
"195 180 OFFCURVE",
"165 180 CURVE",
"147 180 OFFCURVE",
"130 172 OFFCURVE",
"120 159 CURVE",
"109 172 OFFCURVE",
"92 180 OFFCURVE",
"75 180 CURVE",
"44 180 OFFCURVE",
"20 156 OFFCURVE",
"20 125 CURVE",
"20 92 OFFCURVE",
"36 73 OFFCURVE",
"120 -3 CURVE"
);
},
{
closed = 1;
nodes = (
"60 78 OFFCURVE",
"40 100 OFFCURVE",
"40 125 CURVE SMOOTH",
"40 145 OFFCURVE",
"55 160 OFFCURVE",
"75 160 CURVE",
"90 160 OFFCURVE",
"105 150 OFFCURVE",
"110 137 CURVE",
"129 137 LINE",
"134 150 OFFCURVE",
"149 160 OFFCURVE",
"165 160 CURVE",
"185 160 OFFCURVE",
"200 145 OFFCURVE",
"200 125 CURVE SMOOTH",
"200 101 OFFCURVE",
"183 80 OFFCURVE",
"120 24 CURVE"
);
}
);
width = 240;
},
{
layerId = "43180DBC-A696-476D-8635-86ED5F988BC9";
paths = (
{
closed = 1;
nodes = (
"201 71 OFFCURVE",
"220 91 OFFCURVE",
"220 125 CURVE",
"220 156 OFFCURVE",
"195 180 OFFCURVE",
"165 180 CURVE",
"147 180 OFFCURVE",
"130 172 OFFCURVE",
"120 159 CURVE",
"109 172 OFFCURVE",
"92 180 OFFCURVE",
"75 180 CURVE",
"44 180 OFFCURVE",
"20 156 OFFCURVE",
"20 125 CURVE",
"20 92 OFFCURVE",
"36 73 OFFCURVE",
"120 -3 CURVE"
);
},
{
closed = 1;
nodes = (
"112 90 OFFCURVE",
"110 93 OFFCURVE",
"110 96 CURVE SMOOTH",
"110 99 OFFCURVE",
"112 101 OFFCURVE",
"114 101 CURVE",
"116 101 OFFCURVE",
"118 99 OFFCURVE",
"119 98 CURVE",
"121 98 LINE",
"122 99 OFFCURVE",
"124 101 OFFCURVE",
"126 101 CURVE",
"128 101 OFFCURVE",
"130 99 OFFCURVE",
"130 96 CURVE SMOOTH",
"130 93 OFFCURVE",
"128 90 OFFCURVE",
"120 83 CURVE"
);
}
);
width = 240;
},
{
associatedMasterId = "43180DBC-A696-476D-8635-86ED5F988BC9";
layerId = "00E88A3B-434C-4AA5-98DE-0CF5467DCA75";
name = "Target [99]";
paths = (
{
closed = 1;
nodes = (
"134 10 LINE",
"186 57 OFFCURVE",
"220 87 OFFCURVE",
"220 125 CURVE",
"220 156 OFFCURVE",
"195 180 OFFCURVE",
"165 180 CURVE",
"147 180 OFFCURVE",
"130 172 OFFCURVE",
"120 159 CURVE",
"109 172 OFFCURVE",
"92 180 OFFCURVE",
"75 180 CURVE",
"44 180 OFFCURVE",
"20 156 OFFCURVE",
"20 125 CURVE",
"20 87 OFFCURVE",
"54 57 OFFCURVE",
"105 10 CURVE",
"120 -3 LINE"
);
}
);
width = 240;
},
{
associatedMasterId = "374D6CB2-7ECF-4C4C-B17A-FDC7D09CFFBE";
layerId = "3C5457BE-0A4E-4035-B921-490E0109F76D";
name = "Origin [99]";
paths = (
{
closed = 1;
nodes = (
"134 10 LINE",
"186 57 OFFCURVE",
"220 87 OFFCURVE",
"220 125 CURVE",
"220 156 OFFCURVE",
"195 180 OFFCURVE",
"165 180 CURVE",
"147 180 OFFCURVE",
"130 172 OFFCURVE",
"120 159 CURVE",
"109 172 OFFCURVE",
"92 180 OFFCURVE",
"75 180 CURVE",
"44 180 OFFCURVE",
"20 156 OFFCURVE",
"20 125 CURVE",
"20 87 OFFCURVE",
"54 57 OFFCURVE",
"105 10 CURVE",
"120 -3 LINE"
);
}
);
width = 240;
}
);
unicode = 0047;
},
{
glyphname = N;
lastChange = "2019-09-05 09:02:25 +0000";
layers = (
{
layerId = "374D6CB2-7ECF-4C4C-B17A-FDC7D09CFFBE";
paths = (
{
closed = 1;
nodes = (
"81 180 OFFCURVE",
"50 149 OFFCURVE",
"50 110 CURVE",
"50 68 OFFCURVE",
"94 11 OFFCURVE",
"112 -11 CURVE",
"116 -16 OFFCURVE",
"124 -16 OFFCURVE",
"128 -11 CURVE",
"146 11 OFFCURVE",
"190 68 OFFCURVE",
"190 110 CURVE",
"190 149 OFFCURVE",
"159 180 OFFCURVE",
"120 180 CURVE"
);
},
{
closed = 1;
nodes = (
"106 85 OFFCURVE",
"95 96 OFFCURVE",
"95 110 CURVE",
"95 124 OFFCURVE",
"106 135 OFFCURVE",
"120 135 CURVE",
"134 135 OFFCURVE",
"145 124 OFFCURVE",
"145 110 CURVE",
"145 96 OFFCURVE",
"134 85 OFFCURVE",
"120 85 CURVE"
);
}
);
width = 240;
},
{
associatedMasterId = "374D6CB2-7ECF-4C4C-B17A-FDC7D09CFFBE";
layerId = "99E96473-06BF-46D7-952E-75908530B51A";
name = "Origin {25}";
paths = (
{
closed = 1;
nodes = (
"83 114 OFFCURVE",
"53 88 OFFCURVE",
"53 57 CURVE",
"53 23 OFFCURVE",
"95 -7 OFFCURVE",
"112 -25 CURVE",
"116 -29 OFFCURVE",
"124 -29 OFFCURVE",
"128 -25 CURVE",
"145 -7 OFFCURVE",
"187 23 OFFCURVE",
"187 57 CURVE",
"187 88 OFFCURVE",
"157 114 OFFCURVE",
"120 114 CURVE"
);
},
{
closed = 1;
nodes = (
"107 36 OFFCURVE",
"96 45 OFFCURVE",
"96 57 CURVE",
"96 68 OFFCURVE",
"107 77 OFFCURVE",
"120 77 CURVE",
"133 77 OFFCURVE",
"144 68 OFFCURVE",
"144 57 CURVE",
"144 45 OFFCURVE",
"133 36 OFFCURVE",
"120 36 CURVE"
);
}
);
width = 240;
},
{
associatedMasterId = "374D6CB2-7ECF-4C4C-B17A-FDC7D09CFFBE";
layerId = "FDF6C89C-F315-4C2C-BEAE-6A4B91B4BB06";
name = "Origin {50}";
paths = (
{
closed = 1;
nodes = (
"87 260 OFFCURVE",
"61 223 OFFCURVE",
"61 176 CURVE",
"61 125 OFFCURVE",
"97 56 OFFCURVE",
"113 30 CURVE",
"116 24 OFFCURVE",
"124 24 OFFCURVE",
"127 30 CURVE",
"143 56 OFFCURVE",
"179 125 OFFCURVE",
"179 176 CURVE",
"179 223 OFFCURVE",
"153 260 OFFCURVE",
"120 260 CURVE"
);
},
{
closed = 1;
nodes = (
"108 146 OFFCURVE",
"98 159 OFFCURVE",
"98 176 CURVE",
"98 193 OFFCURVE",
"108 206 OFFCURVE",
"120 206 CURVE",
"132 206 OFFCURVE",
"142 193 OFFCURVE",
"142 176 CURVE",
"142 159 OFFCURVE",
"132 146 OFFCURVE",
"120 146 CURVE"
);
}
);
width = 240;
},
{
layerId = "43180DBC-A696-476D-8635-86ED5F988BC9";
paths = (
{
closed = 1;
nodes = (
"81 180 OFFCURVE",
"50 149 OFFCURVE",
"50 110 CURVE",
"50 68 OFFCURVE",
"94 11 OFFCURVE",
"112 -11 CURVE",
"116 -16 OFFCURVE",
"124 -16 OFFCURVE",
"128 -11 CURVE",
"146 11 OFFCURVE",
"190 68 OFFCURVE",
"190 110 CURVE",
"190 149 OFFCURVE",
"159 180 OFFCURVE",
"120 180 CURVE"
);
},
{
closed = 1;
nodes = (
"106 85 OFFCURVE",
"95 96 OFFCURVE",
"95 110 CURVE",
"95 124 OFFCURVE",
"106 135 OFFCURVE",
"120 135 CURVE",
"134 135 OFFCURVE",
"145 124 OFFCURVE",
"145 110 CURVE",
"145 96 OFFCURVE",
"134 85 OFFCURVE",
"120 85 CURVE"
);
}
);
width = 240;
},
{
associatedMasterId = "374D6CB2-7ECF-4C4C-B17A-FDC7D09CFFBE";
layerId = "8EA22DCC-BE49-41B2-8B8D-8990EF7BDCE4";
name = "Origin {75} ";
paths = (
{
closed = 1;
nodes = (
"83 114 OFFCURVE",
"53 88 OFFCURVE",
"53 57 CURVE",
"53 23 OFFCURVE",
"95 -7 OFFCURVE",
"112 -25 CURVE",
"116 -29 OFFCURVE",
"124 -29 OFFCURVE",
"128 -25 CURVE",
"145 -7 OFFCURVE",
"187 23 OFFCURVE",
"187 57 CURVE",
"187 88 OFFCURVE",
"157 114 OFFCURVE",
"120 114 CURVE"
);
},
{
closed = 1;
nodes = (
"107 36 OFFCURVE",
"96 45 OFFCURVE",
"96 57 CURVE",
"96 68 OFFCURVE",
"107 77 OFFCURVE",
"120 77 CURVE",
"133 77 OFFCURVE",
"144 68 OFFCURVE",
"144 57 CURVE",
"144 45 OFFCURVE",
"133 36 OFFCURVE",
"120 36 CURVE"
);
}
);
width = 240;
}
);
unicode = 004E;
},
{
glyphname = O;
lastChange = "2019-09-05 09:02:25 +0000";
layers = (
{
layerId = "374D6CB2-7ECF-4C4C-B17A-FDC7D09CFFBE";
paths = (
{
closed = 1;
nodes = (
"81 180 OFFCURVE",
"50 149 OFFCURVE",
"50 110 CURVE",
"50 68 OFFCURVE",
"94 11 OFFCURVE",
"112 -11 CURVE",
"116 -16 OFFCURVE",
"124 -16 OFFCURVE",
"128 -11 CURVE",
"146 11 OFFCURVE",
"190 68 OFFCURVE",
"190 110 CURVE",
"190 149 OFFCURVE",
"159 180 OFFCURVE",
"120 180 CURVE"
);
},
{
closed = 1;
nodes = (
"106 85 OFFCURVE",
"95 96 OFFCURVE",
"95 110 CURVE",
"95 124 OFFCURVE",
"106 135 OFFCURVE",
"120 135 CURVE",
"134 135 OFFCURVE",
"145 124 OFFCURVE",
"145 110 CURVE",
"145 96 OFFCURVE",
"134 85 OFFCURVE",
"120 85 CURVE"
);
}
);
width = 240;
},
{
layerId = "43180DBC-A696-476D-8635-86ED5F988BC9";
paths = (
{
closed = 1;
nodes = (
"92 120 OFFCURVE",
"80 94 OFFCURVE",
"80 82 CURVE",
"80 64 OFFCURVE",
"88 56 OFFCURVE",
"95 49 CURVE",
"103 42 OFFCURVE",
"125 33 OFFCURVE",
"146 49 CURVE",
"153 56 OFFCURVE",
"160 65 OFFCURVE",
"160 79 CURVE",
"160 97 OFFCURVE",
"147 120 OFFCURVE",
"120 120 CURVE"
);
},
{
closed = 1;
nodes = (
"119 91 OFFCURVE",
"119 91 OFFCURVE",
"119 92 CURVE",
"119 93 OFFCURVE",
"119 93 OFFCURVE",
"120 93 CURVE",
"121 93 OFFCURVE",
"121 93 OFFCURVE",
"121 92 CURVE",
"121 91 OFFCURVE",
"121 91 OFFCURVE",
"120 91 CURVE"
);
}
);
width = 240;
},
{
associatedMasterId = "43180DBC-A696-476D-8635-86ED5F988BC9";
layerId = "DB211C7F-C431-49B6-8A87-6C1604B3F938";
name = "Target[95]";
paths = (
{
closed = 1;
nodes = (
"133 40 OFFCURVE",
"147 47 OFFCURVE",
"154 59 CURVE SMOOTH",
"162 73 OFFCURVE",
"162 88 OFFCURVE",
"154 101 CURVE SMOOTH",
"147 112 OFFCURVE",
"134 120 OFFCURVE",
"120 120 CURVE SMOOTH",
"106 120 OFFCURVE",
"93 112 OFFCURVE",
"86 101 CURVE SMOOTH",
"78 88 OFFCURVE",
"78 73 OFFCURVE",
"86 59 CURVE SMOOTH",
"93 47 OFFCURVE",
"107 40 OFFCURVE",
"120 40 CURVE SMOOTH"
);
}
);
width = 240;
},
{
associatedMasterId = "374D6CB2-7ECF-4C4C-B17A-FDC7D09CFFBE";
layerId = "06B9A2AD-CC04-4FB8-A02A-507208F2B1A5";
name = "Origin[95]";
paths = (
{
closed = 1;
nodes = (
"133 40 OFFCURVE",
"147 47 OFFCURVE",
"154 59 CURVE SMOOTH",
"162 73 OFFCURVE",
"162 88 OFFCURVE",
"154 101 CURVE SMOOTH",
"147 112 OFFCURVE",
"134 120 OFFCURVE",
"120 120 CURVE SMOOTH",
"106 120 OFFCURVE",
"93 112 OFFCURVE",
"86 101 CURVE SMOOTH",
"78 88 OFFCURVE",
"78 73 OFFCURVE",
"86 59 CURVE SMOOTH",
"93 47 OFFCURVE",
"107 40 OFFCURVE",
"120 40 CURVE SMOOTH"
);
}
);
width = 240;
}
);
unicode = 004F;
},
{
glyphname = R;
lastChange = "2019-09-05 09:02:25 +0000";
layers = (
{
components = (
{
name = N;
}
);
layerId = "374D6CB2-7ECF-4C4C-B17A-FDC7D09CFFBE";
width = 240;
},
{
components = (
{
name = N;
}
);
layerId = "43180DBC-A696-476D-8635-86ED5F988BC9";
width = 240;
},
{
associatedMasterId = "374D6CB2-7ECF-4C4C-B17A-FDC7D09CFFBE";
layerId = "0662C6AB-1570-433B-A82B-68CE4309F18D";
name = "Origin [85]";
paths = (
{
closed = 1;
nodes = (
"150 150 LINE",
"120 180 LINE",
"90 150 LINE",
"90 130 LINE",
"30 130 LINE",
"30 -10 LINE",
"210 -10 LINE",
"210 90 LINE",
"150 90 LINE"
);
},
{
closed = 1;
nodes = (
"50 10 LINE",
"50 30 LINE",
"70 30 LINE",
"70 10 LINE"
);
},
{
closed = 1;
nodes = (
"50 50 LINE",
"50 70 LINE",
"70 70 LINE",
"70 50 LINE"
);
},
{
closed = 1;
nodes = (
"50 90 LINE",
"50 110 LINE",
"70 110 LINE",
"70 90 LINE"
);
},
{
closed = 1;
nodes = (
"110 10 LINE",
"110 30 LINE",
"130 30 LINE",
"130 10 LINE"
);
},
{
closed = 1;
nodes = (
"110 50 LINE",
"110 70 LINE",
"130 70 LINE",
"130 50 LINE"
);
},
{
closed = 1;
nodes = (
"110 90 LINE",
"110 110 LINE",
"130 110 LINE",
"130 90 LINE"
);
},
{
closed = 1;
nodes = (
"110 130 LINE",
"110 150 LINE",
"130 150 LINE",
"130 130 LINE"
);
},
{
closed = 1;
nodes = (
"170 10 LINE",
"170 30 LINE",
"190 30 LINE",
"190 10 LINE"
);
},
{
closed = 1;
nodes = (
"170 50 LINE",
"170 70 LINE",
"190 70 LINE",
"190 50 LINE"
);
},
{
closed = 1;
nodes = (
"150 150 LINE",
"120 180 LINE",
"90 150 LINE",
"90 130 LINE",
"30 130 LINE",
"30 -10 LINE",
"210 -10 LINE",
"210 90 LINE",
"150 90 LINE"
);
},
{
closed = 1;
nodes = (
"50 10 LINE",
"50 30 LINE",
"70 30 LINE",
"70 10 LINE"
);
},
{
closed = 1;
nodes = (
"50 50 LINE",
"50 70 LINE",
"70 70 LINE",
"70 50 LINE"
);
},
{
closed = 1;
nodes = (
"50 90 LINE",
"50 110 LINE",
"70 110 LINE",
"70 90 LINE"
);
},
{
closed = 1;
nodes = (
"110 10 LINE",
"110 30 LINE",
"130 30 LINE",
"130 10 LINE"
);
},
{
closed = 1;
nodes = (
"110 50 LINE",
"110 70 LINE",
"130 70 LINE",
"130 50 LINE"
);
},
{
closed = 1;
nodes = (
"110 90 LINE",
"110 110 LINE",
"130 110 LINE",
"130 90 LINE"
);
},
{
closed = 1;
nodes = (
"110 130 LINE",
"110 150 LINE",
"130 150 LINE",
"130 130 LINE"
);
},
{
closed = 1;
nodes = (
"170 10 LINE",
"170 30 LINE",
"190 30 LINE",
"190 10 LINE"
);
},
{
closed = 1;
nodes = (
"170 50 LINE",
"170 70 LINE",
"190 70 LINE",
"190 50 LINE"
);
}
);
width = 240;
},
{
associatedMasterId = "43180DBC-A696-476D-8635-86ED5F988BC9";
layerId = "8DC4D97F-8AC7-4B5F-8CFE-3BE05E39F854";
name = "Target [85]";
paths = (
{
closed = 1;
nodes = (
"150 150 LINE",
"120 180 LINE",
"90 150 LINE",
"90 130 LINE",
"30 130 LINE",
"30 -10 LINE",
"210 -10 LINE",
"210 90 LINE",
"150 90 LINE"
);
},
{
closed = 1;
nodes = (
"50 10 LINE",
"50 30 LINE",
"70 30 LINE",
"70 10 LINE"
);
},
{
closed = 1;
nodes = (
"50 50 LINE",
"50 70 LINE",
"70 70 LINE",
"70 50 LINE"
);
},
{
closed = 1;
nodes = (
"50 90 LINE",
"50 110 LINE",
"70 110 LINE",
"70 90 LINE"
);
},
{
closed = 1;
nodes = (
"110 10 LINE",
"110 30 LINE",
"130 30 LINE",
"130 10 LINE"
);
},
{
closed = 1;
nodes = (
"110 50 LINE",
"110 70 LINE",
"130 70 LINE",
"130 50 LINE"
);
},
{
closed = 1;
nodes = (
"110 90 LINE",
"110 110 LINE",
"130 110 LINE",
"130 90 LINE"
);
},
{
closed = 1;
nodes = (
"110 130 LINE",
"110 150 LINE",
"130 150 LINE",
"130 130 LINE"
);
},
{
closed = 1;
nodes = (
"170 10 LINE",
"170 30 LINE",
"190 30 LINE",
"190 10 LINE"
);
},
{
closed = 1;
nodes = (
"170 50 LINE",
"170 70 LINE",
"190 70 LINE",
"190 50 LINE"
);
},
{
closed = 1;
nodes = (
"150 150 LINE",
"120 180 LINE",
"90 150 LINE",
"90 130 LINE",
"30 130 LINE",
"30 -10 LINE",
"210 -10 LINE",
"210 90 LINE",
"150 90 LINE"
);
},
{
closed = 1;
nodes = (
"50 10 LINE",
"50 30 LINE",
"70 30 LINE",
"70 10 LINE"
);
},
{
closed = 1;
nodes = (
"50 50 LINE",
"50 70 LINE",
"70 70 LINE",
"70 50 LINE"
);
},
{
closed = 1;
nodes = (
"50 90 LINE",
"50 110 LINE",
"70 110 LINE",
"70 90 LINE"
);
},
{
closed = 1;
nodes = (
"110 10 LINE",
"110 30 LINE",
"130 30 LINE",
"130 10 LINE"
);
},
{
closed = 1;
nodes = (
"110 50 LINE",
"110 70 LINE",
"130 70 LINE",
"130 50 LINE"
);
},
{
closed = 1;
nodes = (
"110 90 LINE",
"110 110 LINE",
"130 110 LINE",
"130 90 LINE"
);
},
{
closed = 1;
nodes = (
"110 130 LINE",
"110 150 LINE",
"130 150 LINE",
"130 130 LINE"
);
},
{
closed = 1;
nodes = (
"170 10 LINE",
"170 30 LINE",
"190 30 LINE",
"190 10 LINE"
);
},
{
closed = 1;
nodes = (
"170 50 LINE",
"170 70 LINE",
"190 70 LINE",
"190 50 LINE"
);
}
);
width = 240;
}
);
unicode = 0052;
},
{
glyphname = T;
lastChange = "2019-09-05 09:02:25 +0000";
layers = (
{
layerId = "374D6CB2-7ECF-4C4C-B17A-FDC7D09CFFBE";
paths = (
{
closed = 1;
nodes = (
"81 64 OFFCURVE",
"104 41 OFFCURVE",
"132 26 CURVE",
"154 48 LINE",
"157 51 OFFCURVE",
"161 52 OFFCURVE",
"164 51 CURVE",
"176 47 OFFCURVE",
"188 45 OFFCURVE",
"200 45 CURVE",
"206 45 OFFCURVE",
"210 40 OFFCURVE",
"210 35 CURVE",
"210 0 LINE",
"210 -6 OFFCURVE",
"206 -10 OFFCURVE",
"200 -10 CURVE",
"106 -10 OFFCURVE",
"30 66 OFFCURVE",
"30 160 CURVE",
"30 166 OFFCURVE",
"35 170 OFFCURVE",
"40 170 CURVE",
"75 170 LINE",
"81 170 OFFCURVE",
"85 166 OFFCURVE",
"85 160 CURVE",
"85 148 OFFCURVE",
"87 136 OFFCURVE",
"91 124 CURVE",
"92 121 OFFCURVE",
"91 117 OFFCURVE",
"88 114 CURVE",
"66 92 LINE"
);
}
);
width = 240;
},
{
layerId = "43180DBC-A696-476D-8635-86ED5F988BC9";
paths = (
{
closed = 1;
nodes = (
"106 74 OFFCURVE",
"114 66 OFFCURVE",
"124 61 CURVE",
"132 68 LINE",
"133 70 OFFCURVE",
"134 70 OFFCURVE",
"136 70 CURVE",
"140 68 OFFCURVE",
"144 68 OFFCURVE",
"148 68 CURVE",
"150 68 OFFCURVE",
"151 66 OFFCURVE",
"151 64 CURVE",
"151 52 LINE",
"151 50 OFFCURVE",
"150 49 OFFCURVE",
"148 49 CURVE",
"115 49 OFFCURVE",
"89 75 OFFCURVE",
"89 108 CURVE",
"89 110 OFFCURVE",
"90 111 OFFCURVE",
"92 111 CURVE",
"104 111 LINE",
"106 111 OFFCURVE",
"108 110 OFFCURVE",
"108 108 CURVE",
"108 104 OFFCURVE",
"108 100 OFFCURVE",
"110 96 CURVE",
"110 94 OFFCURVE",
"110 93 OFFCURVE",
"108 92 CURVE",
"101 84 LINE"
);
}
);
width = 240;
},
{
associatedMasterId = "374D6CB2-7ECF-4C4C-B17A-FDC7D09CFFBE";
layerId = "800495EB-0A43-4F9B-8B50-CD9326B56A4D";
name = "Origin[95]";
width = 240;
},
{
associatedMasterId = "43180DBC-A696-476D-8635-86ED5F988BC9";
layerId = "767B60DA-630E-4FC2-BDA8-E898FC5D0323";
name = "Target[95]";
width = 240;
}
);
unicode = 0054;
},
{
glyphname = V;
lastChange = "2019-09-05 09:02:25 +0000";
layers = (
{
layerId = "374D6CB2-7ECF-4C4C-B17A-FDC7D09CFFBE";
paths = (
{
closed = 1;
nodes = (
"81 64 OFFCURVE",
"104 41 OFFCURVE",
"132 26 CURVE",
"154 48 LINE",
"157 51 OFFCURVE",
"161 52 OFFCURVE",
"164 51 CURVE",
"176 47 OFFCURVE",
"188 45 OFFCURVE",
"200 45 CURVE",
"206 45 OFFCURVE",
"210 40 OFFCURVE",
"210 35 CURVE",
"210 0 LINE",
"210 -6 OFFCURVE",
"206 -10 OFFCURVE",
"200 -10 CURVE",
"106 -10 OFFCURVE",
"30 66 OFFCURVE",
"30 160 CURVE",
"30 166 OFFCURVE",
"35 170 OFFCURVE",
"40 170 CURVE",
"75 170 LINE",
"81 170 OFFCURVE",
"85 166 OFFCURVE",
"85 160 CURVE",
"85 148 OFFCURVE",
"87 136 OFFCURVE",
"91 124 CURVE",
"92 121 OFFCURVE",
"91 117 OFFCURVE",
"88 114 CURVE",
"66 92 LINE"
);
}
);
width = 240;
},
{
layerId = "43180DBC-A696-476D-8635-86ED5F988BC9";
paths = (
{
closed = 1;
nodes = (
"81 64 OFFCURVE",
"104 41 OFFCURVE",
"132 26 CURVE",
"154 48 LINE",
"157 51 OFFCURVE",
"161 52 OFFCURVE",
"164 51 CURVE",
"176 47 OFFCURVE",
"188 45 OFFCURVE",
"200 45 CURVE",
"206 45 OFFCURVE",
"210 40 OFFCURVE",
"210 35 CURVE",
"210 0 LINE",
"210 -6 OFFCURVE",
"206 -10 OFFCURVE",
"200 -10 CURVE",
"106 -10 OFFCURVE",
"30 66 OFFCURVE",
"30 160 CURVE",
"30 166 OFFCURVE",
"35 170 OFFCURVE",
"40 170 CURVE",
"75 170 LINE",
"81 170 OFFCURVE",
"85 166 OFFCURVE",
"85 160 CURVE",
"85 148 OFFCURVE",
"87 136 OFFCURVE",
"91 124 CURVE",
"92 121 OFFCURVE",
"91 117 OFFCURVE",
"88 114 CURVE",
"66 92 LINE"
);
}
);
width = 240;
},
{
associatedMasterId = "374D6CB2-7ECF-4C4C-B17A-FDC7D09CFFBE";
layerId = "C6290EC0-87C2-4767-ACD1-A02A2116F557";
name = "Origin {50}";
paths = (
{
closed = 1;
nodes = (
"78 75 OFFCURVE",
"94 46 OFFCURVE",
"118 25 CURVE",
"145 40 LINE",
"148 42 OFFCURVE",
"152 42 OFFCURVE",
"155 41 CURVE",
"166 34 OFFCURVE",
"177 29 OFFCURVE",
"188 25 CURVE",
"194 24 OFFCURVE",
"197 18 OFFCURVE",
"195 13 CURVE",
"186 -21 LINE",
"185 -26 OFFCURVE",
"180 -29 OFFCURVE",
"174 -28 CURVE",
"83 -3 OFFCURVE",
"29 90 OFFCURVE",
"54 181 CURVE",
"55 186 OFFCURVE",
"61 189 OFFCURVE",
"66 188 CURVE",
"100 179 LINE",
"106 177 OFFCURVE",
"108 172 OFFCURVE",
"107 166 CURVE",
"104 155 OFFCURVE",
"103 143 OFFCURVE",
"103 130 CURVE",
"104 127 OFFCURVE",
"102 123 OFFCURVE",
"98 121 CURVE",
"71 106 LINE"
);
}
);
width = 240;
},
{
associatedMasterId = "374D6CB2-7ECF-4C4C-B17A-FDC7D09CFFBE";
layerId = "A84B38E3-5937-4382-8C86-A1DD905DF47C";
name = "Origin {75}";
paths = (
{
closed = 1;
nodes = (
"86 54 OFFCURVE",
"115 38 OFFCURVE",
"146 31 CURVE",
"161 58 LINE",
"163 62 OFFCURVE",
"167 64 OFFCURVE",
"170 63 CURVE",
"183 63 OFFCURVE",
"195 64 OFFCURVE",
"206 67 CURVE",
"212 68 OFFCURVE",
"217 65 OFFCURVE",
"219 60 CURVE",
"228 26 LINE",
"229 20 OFFCURVE",
"226 15 OFFCURVE",
"221 14 CURVE",
"130 -11 OFFCURVE",
"37 43 OFFCURVE",
"12 134 CURVE",
"11 140 OFFCURVE",
"15 145 OFFCURVE",
"19 146 CURVE",
"53 155 LINE",
"59 157 OFFCURVE",
"64 154 OFFCURVE",
"65 148 CURVE",
"69 137 OFFCURVE",
"74 126 OFFCURVE",
"81 115 CURVE",
"82 112 OFFCURVE",
"82 108 OFFCURVE",
"80 105 CURVE",
"65 78 LINE"
);
}
);
width = 240;
}
);
unicode = 0056;
},
{
glyphname = X;
lastChange = "2019-09-05 09:02:25 +0000";
layers = (
{
components = (
{
name = "hangup-compV2";
}
);
layerId = "374D6CB2-7ECF-4C4C-B17A-FDC7D09CFFBE";
width = 240;
},
{
components = (
{
name = "hangup-compV2";
transform = "{0.9797, 0.03421, -0.03421, 0.9797, 4, -7}";
}
);
layerId = "43180DBC-A696-476D-8635-86ED5F988BC9";
width = 235;
},
{
associatedMasterId = "374D6CB2-7ECF-4C4C-B17A-FDC7D09CFFBE";
layerId = "074A3C4A-8F48-4EDF-B4E2-1B85C5F24523";
name = "Origin [50]";
paths = (
{
closed = 1;
nodes = (
"120 90 LINE",
"190 160 LINE",
"180 170 LINE",
"120 110 LINE",
"75 155 LINE",
"110 155 LINE",
"110 170 LINE",
"50 170 LINE",
"50 110 LINE",
"65 110 LINE",
"65 145 LINE"
);
},
{
closed = 1;
nodes = (
"207 63 OFFCURVE",
"165 80 OFFCURVE",
"120 80 CURVE",
"75 80 OFFCURVE",
"33 63 OFFCURVE",
"3 34 CURVE",
"1 32 OFFCURVE",
"0 29 OFFCURVE",
"0 27 CURVE",
"0 24 OFFCURVE",
"1 21 OFFCURVE",
"3 19 CURVE",
"28 -5 LINE",
"29 -7 OFFCURVE",
"32 -8 OFFCURVE",
"35 -8 CURVE",
"37 -8 OFFCURVE",
"40 -7 OFFCURVE",
"42 -5 CURVE",
"50 2 OFFCURVE",
"59 8 OFFCURVE",
"68 13 CURVE",
"72 15 OFFCURVE",
"74 18 OFFCURVE",
"74 22 CURVE",
"74 53 LINE",
"88 58 OFFCURVE",
"104 60 OFFCURVE",
"120 60 CURVE",
"136 60 OFFCURVE",
"151 58 OFFCURVE",
"166 53 CURVE",
"166 22 LINE",
"166 18 OFFCURVE",
"168 15 OFFCURVE",
"172 13 CURVE",
"181 8 OFFCURVE",
"190 2 OFFCURVE",
"198 -5 CURVE",
"200 -7 OFFCURVE",
"203 -8 OFFCURVE",
"205 -8 CURVE",
"208 -8 OFFCURVE",
"211 -7 OFFCURVE",
"212 -5 CURVE",
"237 20 LINE",
"239 21 OFFCURVE",
"240 24 OFFCURVE",
"240 27 CURVE",
"240 29 OFFCURVE",
"239 32 OFFCURVE",
"237 34 CURVE"
);
}
);
width = 240;
},
{
associatedMasterId = "43180DBC-A696-476D-8635-86ED5F988BC9";
layerId = "07E4312B-2C0C-4320-A2BF-40D890C32372";
name = "Target[50]";
paths = (
{
closed = 1;
nodes = (
"120 90 LINE",
"190 160 LINE",
"180 170 LINE",
"120 110 LINE",
"75 155 LINE",
"110 155 LINE",
"110 170 LINE",
"50 170 LINE",
"50 110 LINE",
"65 110 LINE",
"65 145 LINE"
);
},
{
closed = 1;
nodes = (
"207 63 OFFCURVE",
"165 80 OFFCURVE",
"120 80 CURVE",
"75 80 OFFCURVE",
"33 63 OFFCURVE",
"3 34 CURVE",
"1 32 OFFCURVE",
"0 29 OFFCURVE",
"0 27 CURVE",
"0 24 OFFCURVE",
"1 21 OFFCURVE",
"3 19 CURVE",
"28 -5 LINE",
"29 -7 OFFCURVE",
"32 -8 OFFCURVE",
"35 -8 CURVE",
"37 -8 OFFCURVE",
"40 -7 OFFCURVE",
"42 -5 CURVE",
"50 2 OFFCURVE",
"59 8 OFFCURVE",
"68 13 CURVE",
"72 15 OFFCURVE",
"74 18 OFFCURVE",
"74 22 CURVE",
"74 53 LINE",
"88 58 OFFCURVE",
"104 60 OFFCURVE",
"120 60 CURVE",
"136 60 OFFCURVE",
"151 58 OFFCURVE",
"166 53 CURVE",
"166 22 LINE",
"166 18 OFFCURVE",
"168 15 OFFCURVE",
"172 13 CURVE",
"181 8 OFFCURVE",
"190 2 OFFCURVE",
"198 -5 CURVE",
"200 -7 OFFCURVE",
"203 -8 OFFCURVE",
"205 -8 CURVE",
"208 -8 OFFCURVE",
"211 -7 OFFCURVE",
"212 -5 CURVE",
"237 20 LINE",
"239 21 OFFCURVE",
"240 24 OFFCURVE",
"240 27 CURVE",
"240 29 OFFCURVE",
"239 32 OFFCURVE",
"237 34 CURVE"
);
}
);
width = 600;
}
);
unicode = 0058;
},
{
glyphname = Y;
lastChange = "2019-09-05 09:02:25 +0000";
layers = (
{
components = (
{
name = "morph_dot-comp";
}
);
layerId = "374D6CB2-7ECF-4C4C-B17A-FDC7D09CFFBE";
width = 240;
},
{
components = (
{
name = "morph_dot-comp";
}
);
layerId = "43180DBC-A696-476D-8635-86ED5F988BC9";
width = 240;
},
{
associatedMasterId = "374D6CB2-7ECF-4C4C-B17A-FDC7D09CFFBE";
layerId = "800495EB-0A43-4F9B-8B50-CD9326B56A4D";
name = "Origin[94]";
paths = (
{
closed = 1;
nodes = (
"133 40 OFFCURVE",
"147 47 OFFCURVE",
"154 59 CURVE SMOOTH",
"162 73 OFFCURVE",
"162 88 OFFCURVE",
"154 101 CURVE SMOOTH",
"147 112 OFFCURVE",
"134 120 OFFCURVE",
"120 120 CURVE SMOOTH",
"106 120 OFFCURVE",
"93 112 OFFCURVE",
"86 101 CURVE SMOOTH",
"78 88 OFFCURVE",
"78 73 OFFCURVE",
"86 59 CURVE SMOOTH",
"93 47 OFFCURVE",
"107 40 OFFCURVE",
"120 40 CURVE SMOOTH"
);
}
);
width = 240;
},
{
associatedMasterId = "43180DBC-A696-476D-8635-86ED5F988BC9";
layerId = "767B60DA-630E-4FC2-BDA8-E898FC5D0323";
name = "Target[94]";
paths = (
{
closed = 1;
nodes = (
"133 40 OFFCURVE",
"147 47 OFFCURVE",
"154 59 CURVE SMOOTH",
"162 73 OFFCURVE",
"162 88 OFFCURVE",
"154 101 CURVE SMOOTH",
"147 112 OFFCURVE",
"134 120 OFFCURVE",
"120 120 CURVE SMOOTH",
"106 120 OFFCURVE",
"93 112 OFFCURVE",
"86 101 CURVE SMOOTH",
"78 88 OFFCURVE",
"78 73 OFFCURVE",
"86 59 CURVE SMOOTH",
"93 47 OFFCURVE",
"107 40 OFFCURVE",
"120 40 CURVE SMOOTH"
);
}
);
width = 240;
}
);
unicode = 0059;
},
{
glyphname = Z;
lastChange = "2019-09-05 09:02:25 +0000";
layers = (
{
components = (
{
name = "X-morph-dot-comp";
}
);
layerId = "374D6CB2-7ECF-4C4C-B17A-FDC7D09CFFBE";
width = 240;
},
{
components = (
{
name = "X-morph-dot-comp";
}
);
layerId = "43180DBC-A696-476D-8635-86ED5F988BC9";
width = 240;
},
{
associatedMasterId = "374D6CB2-7ECF-4C4C-B17A-FDC7D09CFFBE";
layerId = "602210C5-66C5-4304-9EB3-8D2C544FF0E9";
name = "Origin[95]";
paths = (
{
closed = 1;
nodes = (
"133 40 OFFCURVE",
"147 47 OFFCURVE",
"154 59 CURVE SMOOTH",
"162 73 OFFCURVE",
"162 88 OFFCURVE",
"154 101 CURVE SMOOTH",
"147 112 OFFCURVE",
"134 120 OFFCURVE",
"120 120 CURVE SMOOTH",
"106 120 OFFCURVE",
"93 112 OFFCURVE",
"86 101 CURVE SMOOTH",
"78 88 OFFCURVE",
"78 73 OFFCURVE",
"86 59 CURVE SMOOTH",
"93 47 OFFCURVE",
"107 40 OFFCURVE",
"120 40 CURVE SMOOTH"
);
}
);
width = 240;
},
{
associatedMasterId = "43180DBC-A696-476D-8635-86ED5F988BC9";
layerId = "EF2C281C-C636-4A70-9690-F7E392115AB1";
name = "Target[95]";
paths = (
{
closed = 1;
nodes = (
"133 40 OFFCURVE",
"147 47 OFFCURVE",
"154 59 CURVE SMOOTH",
"162 73 OFFCURVE",
"162 88 OFFCURVE",
"154 101 CURVE SMOOTH",
"147 112 OFFCURVE",
"134 120 OFFCURVE",
"120 120 CURVE SMOOTH",
"106 120 OFFCURVE",
"93 112 OFFCURVE",
"86 101 CURVE SMOOTH",
"78 88 OFFCURVE",
"78 73 OFFCURVE",
"86 59 CURVE SMOOTH",
"93 47 OFFCURVE",
"107 40 OFFCURVE",
"120 40 CURVE SMOOTH"
);
}
);
width = 240;
}
);
unicode = 005A;
},
{
glyphname = a;
lastChange = "2019-07-15 04:21:04 +0000";
layers = (
{
layerId = "374D6CB2-7ECF-4C4C-B17A-FDC7D09CFFBE";
paths = (
{
closed = 1;
nodes = (
"60 120 LINE SMOOTH",
"49 120 OFFCURVE",
"40 111 OFFCURVE",
"40 100 CURVE SMOOTH",
"40 0 LINE SMOOTH",
"40 -11 OFFCURVE",
"49 -20 OFFCURVE",
"60 -20 CURVE SMOOTH",
"180 -20 LINE SMOOTH",
"191 -20 OFFCURVE",
"200 -11 OFFCURVE",
"200 0 CURVE SMOOTH",
"200 100 LINE SMOOTH",
"200 111 OFFCURVE",
"191 120 OFFCURVE",
"180 120 CURVE SMOOTH"
);
},
{
closed = 1;
nodes = (
"109 30 OFFCURVE",
"100 39 OFFCURVE",
"100 50 CURVE SMOOTH",
"100 61 OFFCURVE",
"109 70 OFFCURVE",
"120 70 CURVE SMOOTH",
"131 70 OFFCURVE",
"140 61 OFFCURVE",
"140 50 CURVE SMOOTH",
"140 39 OFFCURVE",
"131 30 OFFCURVE",
"120 30 CURVE SMOOTH"
);
},
{
closed = 1;
nodes = (
"92 190 OFFCURVE",
"70 168 OFFCURVE",
"70 140 CURVE SMOOTH",
"70 120 LINE",
"90 120 LINE",
"90 140 LINE SMOOTH",
"90 157 OFFCURVE",
"103 170 OFFCURVE",
"120 170 CURVE SMOOTH",
"137 170 OFFCURVE",
"150 157 OFFCURVE",
"150 140 CURVE SMOOTH",
"150 120 LINE",
"170 120 LINE",
"170 140 LINE SMOOTH",
"170 168 OFFCURVE",
"148 190 OFFCURVE",
"120 190 CURVE SMOOTH"
);
}
);
width = 240;
},
{
layerId = "43180DBC-A696-476D-8635-86ED5F988BC9";
paths = (
{
closed = 1;
nodes = (
"60 120 LINE SMOOTH",
"49 120 OFFCURVE",
"40 111 OFFCURVE",
"40 100 CURVE SMOOTH",
"40 0 LINE SMOOTH",
"40 -11 OFFCURVE",
"49 -20 OFFCURVE",
"60 -20 CURVE SMOOTH",
"180 -20 LINE SMOOTH",
"191 -20 OFFCURVE",
"200 -11 OFFCURVE",
"200 0 CURVE SMOOTH",
"200 100 LINE SMOOTH",
"200 111 OFFCURVE",
"191 120 OFFCURVE",
"180 120 CURVE SMOOTH"
);
},
{
closed = 1;
nodes = (
"109 30 OFFCURVE",
"100 39 OFFCURVE",
"100 50 CURVE SMOOTH",
"100 61 OFFCURVE",
"109 70 OFFCURVE",
"120 70 CURVE SMOOTH",
"131 70 OFFCURVE",
"140 61 OFFCURVE",
"140 50 CURVE SMOOTH",
"140 39 OFFCURVE",
"131 30 OFFCURVE",
"120 30 CURVE SMOOTH"
);
},
{
closed = 1;
nodes = (
"92 190 OFFCURVE",
"70 168 OFFCURVE",
"70 140 CURVE SMOOTH",
"70 139 LINE",
"90 139 LINE",
"90 140 LINE SMOOTH",
"90 157 OFFCURVE",
"103 170 OFFCURVE",
"120 170 CURVE SMOOTH",
"137 170 OFFCURVE",
"150 157 OFFCURVE",
"150 140 CURVE SMOOTH",
"150 119 LINE",
"170 119 LINE",
"170 140 LINE SMOOTH",
"170 168 OFFCURVE",
"148 190 OFFCURVE",
"120 190 CURVE SMOOTH"
);
}
);
width = 240;
},
{
associatedMasterId = "374D6CB2-7ECF-4C4C-B17A-FDC7D09CFFBE";
layerId = "421D6A86-EEF1-4117-9C0B-558D365AB1F8";
name = "{30}";
paths = (
{
closed = 1;
nodes = (
"60 120 LINE SMOOTH",
"49 120 OFFCURVE",
"40 111 OFFCURVE",
"40 100 CURVE SMOOTH",
"40 0 LINE SMOOTH",
"40 -11 OFFCURVE",
"49 -20 OFFCURVE",
"60 -20 CURVE SMOOTH",
"180 -20 LINE SMOOTH",
"191 -20 OFFCURVE",
"200 -11 OFFCURVE",
"200 0 CURVE SMOOTH",
"200 100 LINE SMOOTH",
"200 111 OFFCURVE",
"191 120 OFFCURVE",
"180 120 CURVE SMOOTH"
);
},
{
closed = 1;
nodes = (
"109 30 OFFCURVE",
"100 39 OFFCURVE",
"100 50 CURVE SMOOTH",
"100 61 OFFCURVE",
"109 70 OFFCURVE",
"120 70 CURVE SMOOTH",
"131 70 OFFCURVE",
"140 61 OFFCURVE",
"140 50 CURVE SMOOTH",
"140 39 OFFCURVE",
"131 30 OFFCURVE",
"120 30 CURVE SMOOTH"
);
},
{
closed = 1;
nodes = (
"92 170 OFFCURVE",
"70 148 OFFCURVE",
"70 120 CURVE SMOOTH",
"70 119 LINE",
"90 119 LINE",
"90 120 LINE SMOOTH",
"90 137 OFFCURVE",
"103 150 OFFCURVE",
"120 150 CURVE SMOOTH",
"137 150 OFFCURVE",
"150 137 OFFCURVE",
"150 120 CURVE SMOOTH",
"150 119 LINE",
"170 119 LINE",
"170 120 LINE SMOOTH",
"170 148 OFFCURVE",
"148 170 OFFCURVE",
"120 170 CURVE SMOOTH"
);
}
);
width = 240;
},
{
associatedMasterId = "374D6CB2-7ECF-4C4C-B17A-FDC7D09CFFBE";
layerId = "68F49EDE-AF02-4BD4-B7E6-1FF467F21C28";
name = "{70}";
paths = (
{
closed = 1;
nodes = (
"60 120 LINE SMOOTH",
"49 120 OFFCURVE",
"40 111 OFFCURVE",
"40 100 CURVE SMOOTH",
"40 0 LINE SMOOTH",
"40 -11 OFFCURVE",
"49 -20 OFFCURVE",
"60 -20 CURVE SMOOTH",
"180 -20 LINE SMOOTH",
"191 -20 OFFCURVE",
"200 -11 OFFCURVE",
"200 0 CURVE SMOOTH",
"200 100 LINE SMOOTH",
"200 111 OFFCURVE",
"191 120 OFFCURVE",
"180 120 CURVE SMOOTH"
);
},
{
closed = 1;
nodes = (
"109 30 OFFCURVE",
"100 39 OFFCURVE",
"100 50 CURVE SMOOTH",
"100 61 OFFCURVE",
"109 70 OFFCURVE",
"120 70 CURVE SMOOTH",
"131 70 OFFCURVE",
"140 61 OFFCURVE",
"140 50 CURVE SMOOTH",
"140 39 OFFCURVE",
"131 30 OFFCURVE",
"120 30 CURVE SMOOTH"
);
},
{
closed = 1;
nodes = (
"92 240 OFFCURVE",
"70 218 OFFCURVE",
"70 190 CURVE SMOOTH",
"70 189 LINE",
"90 189 LINE",
"90 190 LINE SMOOTH",
"90 207 OFFCURVE",
"103 220 OFFCURVE",
"120 220 CURVE SMOOTH",
"137 220 OFFCURVE",
"150 207 OFFCURVE",
"150 190 CURVE SMOOTH",
"150 119 LINE",
"170 119 LINE",
"170 190 LINE SMOOTH",
"170 218 OFFCURVE",
"148 240 OFFCURVE",
"120 240 CURVE SMOOTH"
);
}
);
width = 240;
}
);
unicode = 0061;
},
{
glyphname = b;
lastChange = "2019-07-15 04:21:08 +0000";
layers = (
{
layerId = "374D6CB2-7ECF-4C4C-B17A-FDC7D09CFFBE";
paths = (
{
closed = 1;
nodes = (
"131 30 OFFCURVE",
"140 39 OFFCURVE",
"140 50 CURVE SMOOTH",
"140 61 OFFCURVE",
"131 70 OFFCURVE",
"120 70 CURVE SMOOTH",
"109 70 OFFCURVE",
"100 61 OFFCURVE",
"100 50 CURVE SMOOTH",
"100 39 OFFCURVE",
"109 30 OFFCURVE",
"120 30 CURVE SMOOTH"
);
},
{
closed = 1;
nodes = (
"60 120 LINE SMOOTH",
"49 120 OFFCURVE",
"40 111 OFFCURVE",
"40 100 CURVE SMOOTH",
"40 0 LINE SMOOTH",
"40 -11 OFFCURVE",
"49 -20 OFFCURVE",
"60 -20 CURVE SMOOTH",
"180 -20 LINE SMOOTH",
"191 -20 OFFCURVE",
"200 -11 OFFCURVE",
"200 0 CURVE SMOOTH",
"200 100 LINE SMOOTH",
"200 111 OFFCURVE",
"191 120 OFFCURVE",
"180 120 CURVE SMOOTH"
);
},
{
closed = 1;
nodes = (
"60 0 LINE",
"60 100 LINE",
"180 100 LINE",
"180 0 LINE"
);
},
{
closed = 1;
nodes = (
"92 190 OFFCURVE",
"70 168 OFFCURVE",
"70 140 CURVE SMOOTH",
"70 120 LINE",
"90 120 LINE",
"90 140 LINE SMOOTH",
"90 157 OFFCURVE",
"103 170 OFFCURVE",
"120 170 CURVE SMOOTH",
"137 170 OFFCURVE",
"150 157 OFFCURVE",
"150 140 CURVE SMOOTH",
"150 120 LINE",
"170 120 LINE",
"170 140 LINE SMOOTH",
"170 168 OFFCURVE",
"148 190 OFFCURVE",
"120 190 CURVE SMOOTH"
);
}
);
width = 240;
},
{
layerId = "43180DBC-A696-476D-8635-86ED5F988BC9";
paths = (
{
closed = 1;
nodes = (
"131 30 OFFCURVE",
"140 39 OFFCURVE",
"140 50 CURVE SMOOTH",
"140 61 OFFCURVE",
"131 70 OFFCURVE",
"120 70 CURVE SMOOTH",
"109 70 OFFCURVE",
"100 61 OFFCURVE",
"100 50 CURVE SMOOTH",
"100 39 OFFCURVE",
"109 30 OFFCURVE",
"120 30 CURVE SMOOTH"
);
},
{
closed = 1;
nodes = (
"60 120 LINE SMOOTH",
"49 120 OFFCURVE",
"40 111 OFFCURVE",
"40 100 CURVE SMOOTH",
"40 0 LINE SMOOTH",
"40 -11 OFFCURVE",
"49 -20 OFFCURVE",
"60 -20 CURVE SMOOTH",
"180 -20 LINE SMOOTH",
"191 -20 OFFCURVE",
"200 -11 OFFCURVE",
"200 0 CURVE SMOOTH",
"200 100 LINE SMOOTH",
"200 111 OFFCURVE",
"191 120 OFFCURVE",
"180 120 CURVE SMOOTH"
);
},
{
closed = 1;
nodes = (
"60 0 LINE",
"60 100 LINE",
"180 100 LINE",
"180 0 LINE"
);
},
{
closed = 1;
nodes = (
"92 190 OFFCURVE",
"70 168 OFFCURVE",
"70 140 CURVE SMOOTH",
"70 139 LINE",
"90 139 LINE",
"90 140 LINE SMOOTH",
"90 157 OFFCURVE",
"103 170 OFFCURVE",
"120 170 CURVE SMOOTH",
"137 170 OFFCURVE",
"150 157 OFFCURVE",
"150 140 CURVE SMOOTH",
"150 119 LINE",
"170 119 LINE",
"170 140 LINE SMOOTH",
"170 168 OFFCURVE",
"148 190 OFFCURVE",
"120 190 CURVE SMOOTH"
);
}
);
width = 240;
},
{
associatedMasterId = "374D6CB2-7ECF-4C4C-B17A-FDC7D09CFFBE";
layerId = "068F602E-55C9-4D6C-AB42-FC1CA0BCBB44";
name = "Origin {30}";
paths = (
{
closed = 1;
nodes = (
"131 30 OFFCURVE",
"140 39 OFFCURVE",
"140 50 CURVE SMOOTH",
"140 61 OFFCURVE",
"131 70 OFFCURVE",
"120 70 CURVE SMOOTH",
"109 70 OFFCURVE",
"100 61 OFFCURVE",
"100 50 CURVE SMOOTH",
"100 39 OFFCURVE",
"109 30 OFFCURVE",
"120 30 CURVE SMOOTH"
);
},
{
closed = 1;
nodes = (
"60 120 LINE SMOOTH",
"49 120 OFFCURVE",
"40 111 OFFCURVE",
"40 100 CURVE SMOOTH",
"40 0 LINE SMOOTH",
"40 -11 OFFCURVE",
"49 -20 OFFCURVE",
"60 -20 CURVE SMOOTH",
"180 -20 LINE SMOOTH",
"191 -20 OFFCURVE",
"200 -11 OFFCURVE",
"200 0 CURVE SMOOTH",
"200 100 LINE SMOOTH",
"200 111 OFFCURVE",
"191 120 OFFCURVE",
"180 120 CURVE SMOOTH"
);
},
{
closed = 1;
nodes = (
"60 0 LINE",
"60 100 LINE",
"180 100 LINE",
"180 0 LINE"
);
},
{
closed = 1;
nodes = (
"92 170 OFFCURVE",
"70 148 OFFCURVE",
"70 120 CURVE SMOOTH",
"70 119 LINE",
"90 119 LINE",
"90 120 LINE SMOOTH",
"90 137 OFFCURVE",
"103 150 OFFCURVE",
"120 150 CURVE SMOOTH",
"137 150 OFFCURVE",
"150 137 OFFCURVE",
"150 120 CURVE SMOOTH",
"150 119 LINE",
"170 119 LINE",
"170 120 LINE SMOOTH",
"170 148 OFFCURVE",
"148 170 OFFCURVE",
"120 170 CURVE SMOOTH"
);
}
);
width = 240;
},
{
associatedMasterId = "374D6CB2-7ECF-4C4C-B17A-FDC7D09CFFBE";
layerId = "6786B72C-ADA0-4EC4-8EF1-ABA9A491A802";
name = "Origin {70}";
paths = (
{
closed = 1;
nodes = (
"131 30 OFFCURVE",
"140 39 OFFCURVE",
"140 50 CURVE SMOOTH",
"140 61 OFFCURVE",
"131 70 OFFCURVE",
"120 70 CURVE SMOOTH",
"109 70 OFFCURVE",
"100 61 OFFCURVE",
"100 50 CURVE SMOOTH",
"100 39 OFFCURVE",
"109 30 OFFCURVE",
"120 30 CURVE SMOOTH"
);
},
{
closed = 1;
nodes = (
"60 120 LINE SMOOTH",
"49 120 OFFCURVE",
"40 111 OFFCURVE",
"40 100 CURVE SMOOTH",
"40 0 LINE SMOOTH",
"40 -11 OFFCURVE",
"49 -20 OFFCURVE",
"60 -20 CURVE SMOOTH",
"180 -20 LINE SMOOTH",
"191 -20 OFFCURVE",
"200 -11 OFFCURVE",
"200 0 CURVE SMOOTH",
"200 100 LINE SMOOTH",
"200 111 OFFCURVE",
"191 120 OFFCURVE",
"180 120 CURVE SMOOTH"
);
},
{
closed = 1;
nodes = (
"60 0 LINE",
"60 100 LINE",
"180 100 LINE",
"180 0 LINE"
);
},
{
closed = 1;
nodes = (
"92 240 OFFCURVE",
"70 218 OFFCURVE",
"70 190 CURVE SMOOTH",
"70 189 LINE",
"90 189 LINE",
"90 190 LINE SMOOTH",
"90 207 OFFCURVE",
"103 220 OFFCURVE",
"120 220 CURVE SMOOTH",
"137 220 OFFCURVE",
"150 207 OFFCURVE",
"150 190 CURVE SMOOTH",
"150 119 LINE",
"170 119 LINE",
"170 190 LINE SMOOTH",
"170 218 OFFCURVE",
"148 240 OFFCURVE",
"120 240 CURVE SMOOTH"
);
}
);
width = 240;
}
);
unicode = 0062;
},
{
glyphname = c;
lastChange = "2019-07-15 03:59:24 +0000";
layers = (
{
layerId = "374D6CB2-7ECF-4C4C-B17A-FDC7D09CFFBE";
paths = (
{
closed = 1;
nodes = (
"60 120 LINE SMOOTH",
"49 120 OFFCURVE",
"40 111 OFFCURVE",
"40 100 CURVE SMOOTH",
"40 0 LINE SMOOTH",
"40 -11 OFFCURVE",
"49 -20 OFFCURVE",
"60 -20 CURVE SMOOTH",
"180 -20 LINE SMOOTH",
"191 -20 OFFCURVE",
"200 -11 OFFCURVE",
"200 0 CURVE SMOOTH",
"200 100 LINE SMOOTH",
"200 111 OFFCURVE",
"191 120 OFFCURVE",
"180 120 CURVE SMOOTH"
);
},
{
closed = 1;
nodes = (
"109 30 OFFCURVE",
"100 39 OFFCURVE",
"100 50 CURVE SMOOTH",
"100 61 OFFCURVE",
"109 70 OFFCURVE",
"120 70 CURVE SMOOTH",
"131 70 OFFCURVE",
"140 61 OFFCURVE",
"140 50 CURVE SMOOTH",
"140 39 OFFCURVE",
"131 30 OFFCURVE",
"120 30 CURVE SMOOTH"
);
},
{
closed = 1;
nodes = (
"92 190 OFFCURVE",
"70 168 OFFCURVE",
"70 140 CURVE SMOOTH",
"70 120 LINE",
"90 120 LINE",
"90 140 LINE SMOOTH",
"90 157 OFFCURVE",
"103 170 OFFCURVE",
"120 170 CURVE SMOOTH",
"137 170 OFFCURVE",
"150 157 OFFCURVE",
"150 140 CURVE SMOOTH",
"150 120 LINE",
"170 120 LINE",
"170 140 LINE SMOOTH",
"170 168 OFFCURVE",
"148 190 OFFCURVE",
"120 190 CURVE SMOOTH"
);
}
);
width = 240;
},
{
layerId = "43180DBC-A696-476D-8635-86ED5F988BC9";
paths = (
{
closed = 1;
nodes = (
"120 120 LINE",
"98 120 OFFCURVE",
"80 102 OFFCURVE",
"80 80 CURVE",
"80 80 LINE",
"80 58 OFFCURVE",
"98 40 OFFCURVE",
"120 40 CURVE",
"120 40 LINE",
"142 40 OFFCURVE",
"160 58 OFFCURVE",
"160 80 CURVE SMOOTH",
"160 80 LINE SMOOTH",
"160 102 OFFCURVE",
"142 120 OFFCURVE",
"120 120 CURVE"
);
},
{
closed = 1;
nodes = (
"121 79 OFFCURVE",
"121 79 OFFCURVE",
"121 80 CURVE SMOOTH",
"121 81 OFFCURVE",
"121 81 OFFCURVE",
"120 81 CURVE SMOOTH",
"119 81 OFFCURVE",
"119 81 OFFCURVE",
"119 80 CURVE SMOOTH",
"119 79 OFFCURVE",
"119 79 OFFCURVE",
"120 79 CURVE SMOOTH"
);
},
{
closed = 1;
nodes = (
"118 84 OFFCURVE",
"117 83 OFFCURVE",
"117 81 CURVE SMOOTH",
"117 80 LINE",
"118 80 LINE",
"118 81 LINE SMOOTH",
"118 82 OFFCURVE",
"119 83 OFFCURVE",
"120 83 CURVE SMOOTH",
"121 83 OFFCURVE",
"122 82 OFFCURVE",
"122 81 CURVE SMOOTH",
"122 80 LINE",
"123 80 LINE",
"123 81 LINE SMOOTH",
"123 83 OFFCURVE",
"122 84 OFFCURVE",
"120 84 CURVE SMOOTH"
);
}
);
width = 240;
}
);
unicode = 0063;
},
{
glyphname = d;
lastChange = "2019-07-15 04:32:21 +0000";
layers = (
{
layerId = "374D6CB2-7ECF-4C4C-B17A-FDC7D09CFFBE";
paths = (
{
closed = 1;
nodes = (
"60 120 LINE SMOOTH",
"49 120 OFFCURVE",
"40 111 OFFCURVE",
"40 100 CURVE SMOOTH",
"40 0 LINE SMOOTH",
"40 -11 OFFCURVE",
"49 -20 OFFCURVE",
"60 -20 CURVE SMOOTH",
"180 -20 LINE SMOOTH",
"191 -20 OFFCURVE",
"200 -11 OFFCURVE",
"200 0 CURVE SMOOTH",
"200 100 LINE SMOOTH",
"200 111 OFFCURVE",
"191 120 OFFCURVE",
"180 120 CURVE SMOOTH"
);
},
{
closed = 1;
nodes = (
"109 30 OFFCURVE",
"100 39 OFFCURVE",
"100 50 CURVE SMOOTH",
"100 61 OFFCURVE",
"109 70 OFFCURVE",
"120 70 CURVE SMOOTH",
"131 70 OFFCURVE",
"140 61 OFFCURVE",
"140 50 CURVE SMOOTH",
"140 39 OFFCURVE",
"131 30 OFFCURVE",
"120 30 CURVE SMOOTH"
);
},
{
closed = 1;
nodes = (
"92 190 OFFCURVE",
"70 168 OFFCURVE",
"70 140 CURVE SMOOTH",
"70 120 LINE",
"90 120 LINE",
"90 140 LINE SMOOTH",
"90 157 OFFCURVE",
"103 170 OFFCURVE",
"120 170 CURVE SMOOTH",
"137 170 OFFCURVE",
"150 157 OFFCURVE",
"150 140 CURVE SMOOTH",
"150 120 LINE",
"170 120 LINE",
"170 140 LINE SMOOTH",
"170 168 OFFCURVE",
"148 190 OFFCURVE",
"120 190 CURVE SMOOTH"
);
}
);
width = 240;
},
{
layerId = "43180DBC-A696-476D-8635-86ED5F988BC9";
paths = (
{
closed = 1;
nodes = (
"120 91 LINE",
"114 91 OFFCURVE",
"109 86 OFFCURVE",
"109 80 CURVE",
"109 80 LINE",
"109 74 OFFCURVE",
"114 69 OFFCURVE",
"120 69 CURVE",
"120 69 LINE",
"126 69 OFFCURVE",
"131 74 OFFCURVE",
"131 80 CURVE SMOOTH",
"131 80 LINE SMOOTH",
"131 86 OFFCURVE",
"126 91 OFFCURVE",
"120 91 CURVE"
);
},
{
closed = 1;
nodes = (
"121 79 OFFCURVE",
"121 79 OFFCURVE",
"121 80 CURVE SMOOTH",
"121 81 OFFCURVE",
"121 81 OFFCURVE",
"120 81 CURVE SMOOTH",
"119 81 OFFCURVE",
"119 81 OFFCURVE",
"119 80 CURVE SMOOTH",
"119 79 OFFCURVE",
"119 79 OFFCURVE",
"120 79 CURVE SMOOTH"
);
},
{
closed = 1;
nodes = (
"118 84 OFFCURVE",
"117 83 OFFCURVE",
"117 81 CURVE SMOOTH",
"117 80 LINE",
"118 80 LINE",
"118 81 LINE SMOOTH",
"118 82 OFFCURVE",
"119 83 OFFCURVE",
"120 83 CURVE SMOOTH",
"121 83 OFFCURVE",
"122 82 OFFCURVE",
"122 81 CURVE SMOOTH",
"122 80 LINE",
"123 80 LINE",
"123 81 LINE SMOOTH",
"123 83 OFFCURVE",
"122 84 OFFCURVE",
"120 84 CURVE SMOOTH"
);
}
);
width = 240;
},
{
associatedMasterId = "374D6CB2-7ECF-4C4C-B17A-FDC7D09CFFBE";
layerId = "E2D22D55-0401-44D2-A051-373E680DD89F";
name = "Origin [99]";
width = 240;
},
{
associatedMasterId = "43180DBC-A696-476D-8635-86ED5F988BC9";
layerId = "28B70C98-B67B-446C-A638-1D66A8179967";
name = "Target [99]";
width = 240;
}
);
unicode = 0064;
},
{
glyphname = e;
lastChange = "2019-07-15 05:02:06 +0000";
layers = (
{
layerId = "374D6CB2-7ECF-4C4C-B17A-FDC7D09CFFBE";
paths = (
{
closed = 1;
nodes = (
"60 120 LINE SMOOTH",
"49 120 OFFCURVE",
"40 111 OFFCURVE",
"40 100 CURVE SMOOTH",
"40 0 LINE SMOOTH",
"40 -11 OFFCURVE",
"49 -20 OFFCURVE",
"60 -20 CURVE SMOOTH",
"180 -20 LINE SMOOTH",
"191 -20 OFFCURVE",
"200 -11 OFFCURVE",
"200 0 CURVE SMOOTH",
"200 100 LINE SMOOTH",
"200 111 OFFCURVE",
"191 120 OFFCURVE",
"180 120 CURVE SMOOTH"
);
},
{
closed = 1;
nodes = (
"109 30 OFFCURVE",
"100 39 OFFCURVE",
"100 50 CURVE SMOOTH",
"100 61 OFFCURVE",
"109 70 OFFCURVE",
"120 70 CURVE SMOOTH",
"131 70 OFFCURVE",
"140 61 OFFCURVE",
"140 50 CURVE SMOOTH",
"140 39 OFFCURVE",
"131 30 OFFCURVE",
"120 30 CURVE SMOOTH"
);
},
{
closed = 1;
nodes = (
"92 190 OFFCURVE",
"70 168 OFFCURVE",
"70 140 CURVE SMOOTH",
"70 120 LINE",
"90 120 LINE",
"90 140 LINE SMOOTH",
"90 157 OFFCURVE",
"103 170 OFFCURVE",
"120 170 CURVE SMOOTH",
"137 170 OFFCURVE",
"150 157 OFFCURVE",
"150 140 CURVE SMOOTH",
"150 120 LINE",
"170 120 LINE",
"170 140 LINE SMOOTH",
"170 168 OFFCURVE",
"148 190 OFFCURVE",
"120 190 CURVE SMOOTH"
);
}
);
width = 240;
},
{
layerId = "43180DBC-A696-476D-8635-86ED5F988BC9";
paths = (
{
closed = 1;
nodes = (
"60 120 LINE SMOOTH",
"49 120 OFFCURVE",
"40 111 OFFCURVE",
"40 100 CURVE SMOOTH",
"40 0 LINE SMOOTH",
"40 -11 OFFCURVE",
"49 -20 OFFCURVE",
"60 -20 CURVE SMOOTH",
"180 -20 LINE SMOOTH",
"191 -20 OFFCURVE",
"200 -11 OFFCURVE",
"200 0 CURVE SMOOTH",
"200 100 LINE SMOOTH",
"200 111 OFFCURVE",
"191 120 OFFCURVE",
"180 120 CURVE SMOOTH"
);
},
{
closed = 1;
nodes = (
"109 30 OFFCURVE",
"100 39 OFFCURVE",
"100 50 CURVE SMOOTH",
"100 61 OFFCURVE",
"109 70 OFFCURVE",
"120 70 CURVE SMOOTH",
"131 70 OFFCURVE",
"140 61 OFFCURVE",
"140 50 CURVE SMOOTH",
"140 39 OFFCURVE",
"131 30 OFFCURVE",
"120 30 CURVE SMOOTH"
);
},
{
closed = 1;
nodes = (
"92 190 OFFCURVE",
"70 168 OFFCURVE",
"70 140 CURVE SMOOTH",
"70 120 LINE",
"90 120 LINE",
"90 140 LINE SMOOTH",
"90 157 OFFCURVE",
"103 170 OFFCURVE",
"120 170 CURVE SMOOTH",
"137 170 OFFCURVE",
"150 157 OFFCURVE",
"150 140 CURVE SMOOTH",
"150 120 LINE",
"170 120 LINE",
"170 140 LINE SMOOTH",
"170 168 OFFCURVE",
"148 190 OFFCURVE",
"120 190 CURVE SMOOTH"
);
}
);
width = 240;
},
{
associatedMasterId = "374D6CB2-7ECF-4C4C-B17A-FDC7D09CFFBE";
layerId = "91F871C3-2D39-4CDD-8534-1E36301FC635";
name = "Orign {25}";
paths = (
{
closed = 1;
nodes = (
"100 120 LINE SMOOTH",
"89 120 OFFCURVE",
"80 111 OFFCURVE",
"80 100 CURVE SMOOTH",
"80 0 LINE SMOOTH",
"80 -11 OFFCURVE",
"89 -20 OFFCURVE",
"100 -20 CURVE SMOOTH",
"220 -20 LINE SMOOTH",
"231 -20 OFFCURVE",
"240 -11 OFFCURVE",
"240 0 CURVE SMOOTH",
"240 100 LINE SMOOTH",
"240 111 OFFCURVE",
"231 120 OFFCURVE",
"220 120 CURVE SMOOTH"
);
},
{
closed = 1;
nodes = (
"149 30 OFFCURVE",
"140 39 OFFCURVE",
"140 50 CURVE SMOOTH",
"140 61 OFFCURVE",
"149 70 OFFCURVE",
"160 70 CURVE SMOOTH",
"171 70 OFFCURVE",
"180 61 OFFCURVE",
"180 50 CURVE SMOOTH",
"180 39 OFFCURVE",
"171 30 OFFCURVE",
"160 30 CURVE SMOOTH"
);
},
{
closed = 1;
nodes = (
"132 190 OFFCURVE",
"110 168 OFFCURVE",
"110 140 CURVE SMOOTH",
"110 120 LINE",
"130 120 LINE",
"130 140 LINE SMOOTH",
"130 157 OFFCURVE",
"143 170 OFFCURVE",
"160 170 CURVE SMOOTH",
"177 170 OFFCURVE",
"190 157 OFFCURVE",
"190 140 CURVE SMOOTH",
"190 120 LINE",
"210 120 LINE",
"210 140 LINE SMOOTH",
"210 168 OFFCURVE",
"188 190 OFFCURVE",
"160 190 CURVE SMOOTH"
);
}
);
width = 240;
},
{
associatedMasterId = "374D6CB2-7ECF-4C4C-B17A-FDC7D09CFFBE";
layerId = "FF089A77-F7D3-4AF0-96CD-FFA566D5DA0F";
name = "Orign {50}";
paths = (
{
closed = 1;
nodes = (
"20 120 LINE SMOOTH",
"9 120 OFFCURVE",
"0 111 OFFCURVE",
"0 100 CURVE SMOOTH",
"0 0 LINE SMOOTH",
"0 -11 OFFCURVE",
"9 -20 OFFCURVE",
"20 -20 CURVE SMOOTH",
"140 -20 LINE SMOOTH",
"151 -20 OFFCURVE",
"160 -11 OFFCURVE",
"160 0 CURVE SMOOTH",
"160 100 LINE SMOOTH",
"160 111 OFFCURVE",
"151 120 OFFCURVE",
"140 120 CURVE SMOOTH"
);
},
{
closed = 1;
nodes = (
"69 30 OFFCURVE",
"60 39 OFFCURVE",
"60 50 CURVE SMOOTH",
"60 61 OFFCURVE",
"69 70 OFFCURVE",
"80 70 CURVE SMOOTH",
"91 70 OFFCURVE",
"100 61 OFFCURVE",
"100 50 CURVE SMOOTH",
"100 39 OFFCURVE",
"91 30 OFFCURVE",
"80 30 CURVE SMOOTH"
);
},
{
closed = 1;
nodes = (
"52 190 OFFCURVE",
"30 168 OFFCURVE",
"30 140 CURVE SMOOTH",
"30 120 LINE",
"50 120 LINE",
"50 140 LINE SMOOTH",
"50 157 OFFCURVE",
"63 170 OFFCURVE",
"80 170 CURVE SMOOTH",
"97 170 OFFCURVE",
"110 157 OFFCURVE",
"110 140 CURVE SMOOTH",
"110 120 LINE",
"130 120 LINE",
"130 140 LINE SMOOTH",
"130 168 OFFCURVE",
"108 190 OFFCURVE",
"80 190 CURVE SMOOTH"
);
}
);
width = 240;
},
{
associatedMasterId = "374D6CB2-7ECF-4C4C-B17A-FDC7D09CFFBE";
layerId = "7F35AB63-D404-4853-B6F5-4E892378D5D3";
name = "Orign {75}";
paths = (
{
closed = 1;
nodes = (
"100 120 LINE SMOOTH",
"89 120 OFFCURVE",
"80 111 OFFCURVE",
"80 100 CURVE SMOOTH",
"80 0 LINE SMOOTH",
"80 -11 OFFCURVE",
"89 -20 OFFCURVE",
"100 -20 CURVE SMOOTH",
"220 -20 LINE SMOOTH",
"231 -20 OFFCURVE",
"240 -11 OFFCURVE",
"240 0 CURVE SMOOTH",
"240 100 LINE SMOOTH",
"240 111 OFFCURVE",
"231 120 OFFCURVE",
"220 120 CURVE SMOOTH"
);
},
{
closed = 1;
nodes = (
"149 30 OFFCURVE",
"140 39 OFFCURVE",
"140 50 CURVE SMOOTH",
"140 61 OFFCURVE",
"149 70 OFFCURVE",
"160 70 CURVE SMOOTH",
"171 70 OFFCURVE",
"180 61 OFFCURVE",
"180 50 CURVE SMOOTH",
"180 39 OFFCURVE",
"171 30 OFFCURVE",
"160 30 CURVE SMOOTH"
);
},
{
closed = 1;
nodes = (
"132 190 OFFCURVE",
"110 168 OFFCURVE",
"110 140 CURVE SMOOTH",
"110 120 LINE",
"130 120 LINE",
"130 140 LINE SMOOTH",
"130 157 OFFCURVE",
"143 170 OFFCURVE",
"160 170 CURVE SMOOTH",
"177 170 OFFCURVE",
"190 157 OFFCURVE",
"190 140 CURVE SMOOTH",
"190 120 LINE",
"210 120 LINE",
"210 140 LINE SMOOTH",
"210 168 OFFCURVE",
"188 190 OFFCURVE",
"160 190 CURVE SMOOTH"
);
}
);
width = 240;
}
);
unicode = 0065;
},
{
glyphname = f;
lastChange = "2019-07-15 22:04:25 +0000";
layers = (
{
layerId = "374D6CB2-7ECF-4C4C-B17A-FDC7D09CFFBE";
paths = (
{
closed = 1;
nodes = (
"131 30 OFFCURVE",
"140 39 OFFCURVE",
"140 50 CURVE SMOOTH",
"140 61 OFFCURVE",
"131 70 OFFCURVE",
"120 70 CURVE SMOOTH",
"109 70 OFFCURVE",
"100 61 OFFCURVE",
"100 50 CURVE SMOOTH",
"100 39 OFFCURVE",
"109 30 OFFCURVE",
"120 30 CURVE SMOOTH"
);
},
{
closed = 1;
nodes = (
"60 120 LINE SMOOTH",
"49 120 OFFCURVE",
"40 111 OFFCURVE",
"40 100 CURVE SMOOTH",
"40 0 LINE SMOOTH",
"40 -11 OFFCURVE",
"49 -20 OFFCURVE",
"60 -20 CURVE SMOOTH",
"180 -20 LINE SMOOTH",
"191 -20 OFFCURVE",
"200 -11 OFFCURVE",
"200 0 CURVE SMOOTH",
"200 100 LINE SMOOTH",
"200 111 OFFCURVE",
"191 120 OFFCURVE",
"180 120 CURVE SMOOTH"
);
},
{
closed = 1;
nodes = (
"60 0 LINE",
"60 100 LINE",
"180 100 LINE",
"180 0 LINE"
);
},
{
closed = 1;
nodes = (
"92 190 OFFCURVE",
"70 168 OFFCURVE",
"70 140 CURVE SMOOTH",
"70 120 LINE",
"90 120 LINE",
"90 140 LINE SMOOTH",
"90 157 OFFCURVE",
"103 170 OFFCURVE",
"120 170 CURVE SMOOTH",
"137 170 OFFCURVE",
"150 157 OFFCURVE",
"150 140 CURVE SMOOTH",
"150 120 LINE",
"170 120 LINE",
"170 140 LINE SMOOTH",
"170 168 OFFCURVE",
"148 190 OFFCURVE",
"120 190 CURVE SMOOTH"
);
}
);
width = 240;
},
{
layerId = "43180DBC-A696-476D-8635-86ED5F988BC9";
paths = (
{
closed = 1;
nodes = (
"121 79 OFFCURVE",
"121 79 OFFCURVE",
"121 80 CURVE SMOOTH",
"121 81 OFFCURVE",
"121 81 OFFCURVE",
"120 81 CURVE SMOOTH",
"119 81 OFFCURVE",
"119 81 OFFCURVE",
"119 80 CURVE SMOOTH",
"119 79 OFFCURVE",
"119 79 OFFCURVE",
"120 79 CURVE SMOOTH"
);
},
{
closed = 1;
nodes = (
"120 120 LINE",
"98 120 OFFCURVE",
"80 102 OFFCURVE",
"80 80 CURVE",
"80 80 LINE",
"80 58 OFFCURVE",
"98 40 OFFCURVE",
"120 40 CURVE",
"120 40 LINE",
"142 40 OFFCURVE",
"160 58 OFFCURVE",
"160 80 CURVE SMOOTH",
"160 80 LINE SMOOTH",
"160 102 OFFCURVE",
"142 120 OFFCURVE",
"120 120 CURVE"
);
},
{
closed = 1;
nodes = (
"121 81 LINE",
"119 81 LINE",
"119 79 LINE",
"121 79 LINE"
);
},
{
closed = 1;
nodes = (
"118 84 OFFCURVE",
"117 83 OFFCURVE",
"117 81 CURVE SMOOTH",
"117 80 LINE",
"118 80 LINE",
"118 81 LINE SMOOTH",
"118 82 OFFCURVE",
"119 83 OFFCURVE",
"120 83 CURVE SMOOTH",
"121 83 OFFCURVE",
"122 82 OFFCURVE",
"122 81 CURVE SMOOTH",
"122 80 LINE",
"123 80 LINE",
"123 81 LINE SMOOTH",
"123 83 OFFCURVE",
"122 84 OFFCURVE",
"120 84 CURVE SMOOTH"
);
}
);
width = 240;
}
);
unicode = 0066;
},
{
glyphname = g;
lastChange = "2019-07-15 22:07:26 +0000";
layers = (
{
layerId = "374D6CB2-7ECF-4C4C-B17A-FDC7D09CFFBE";
paths = (
{
closed = 1;
nodes = (
"131 30 OFFCURVE",
"140 39 OFFCURVE",
"140 50 CURVE SMOOTH",
"140 61 OFFCURVE",
"131 70 OFFCURVE",
"120 70 CURVE SMOOTH",
"109 70 OFFCURVE",
"100 61 OFFCURVE",
"100 50 CURVE SMOOTH",
"100 39 OFFCURVE",
"109 30 OFFCURVE",
"120 30 CURVE SMOOTH"
);
},
{
closed = 1;
nodes = (
"60 120 LINE SMOOTH",
"49 120 OFFCURVE",
"40 111 OFFCURVE",
"40 100 CURVE SMOOTH",
"40 0 LINE SMOOTH",
"40 -11 OFFCURVE",
"49 -20 OFFCURVE",
"60 -20 CURVE SMOOTH",
"180 -20 LINE SMOOTH",
"191 -20 OFFCURVE",
"200 -11 OFFCURVE",
"200 0 CURVE SMOOTH",
"200 100 LINE SMOOTH",
"200 111 OFFCURVE",
"191 120 OFFCURVE",
"180 120 CURVE SMOOTH"
);
},
{
closed = 1;
nodes = (
"60 0 LINE",
"60 100 LINE",
"180 100 LINE",
"180 0 LINE"
);
},
{
closed = 1;
nodes = (
"92 190 OFFCURVE",
"70 168 OFFCURVE",
"70 140 CURVE SMOOTH",
"70 120 LINE",
"90 120 LINE",
"90 140 LINE SMOOTH",
"90 157 OFFCURVE",
"103 170 OFFCURVE",
"120 170 CURVE SMOOTH",
"137 170 OFFCURVE",
"150 157 OFFCURVE",
"150 140 CURVE SMOOTH",
"150 120 LINE",
"170 120 LINE",
"170 140 LINE SMOOTH",
"170 168 OFFCURVE",
"148 190 OFFCURVE",
"120 190 CURVE SMOOTH"
);
}
);
width = 240;
},
{
layerId = "43180DBC-A696-476D-8635-86ED5F988BC9";
paths = (
{
closed = 1;
nodes = (
"121 79 OFFCURVE",
"121 79 OFFCURVE",
"121 80 CURVE SMOOTH",
"121 81 OFFCURVE",
"121 81 OFFCURVE",
"120 81 CURVE SMOOTH",
"119 81 OFFCURVE",
"119 81 OFFCURVE",
"119 80 CURVE SMOOTH",
"119 79 OFFCURVE",
"119 79 OFFCURVE",
"120 79 CURVE SMOOTH"
);
},
{
closed = 1;
nodes = (
"120 91 LINE",
"114 91 OFFCURVE",
"109 86 OFFCURVE",
"109 80 CURVE",
"109 80 LINE",
"109 74 OFFCURVE",
"114 69 OFFCURVE",
"120 69 CURVE",
"120 69 LINE",
"126 69 OFFCURVE",
"131 74 OFFCURVE",
"131 80 CURVE SMOOTH",
"131 80 LINE SMOOTH",
"131 86 OFFCURVE",
"126 91 OFFCURVE",
"120 91 CURVE"
);
},
{
closed = 1;
nodes = (
"121 81 LINE",
"119 81 LINE",
"119 79 LINE",
"121 79 LINE"
);
},
{
closed = 1;
nodes = (
"118 84 OFFCURVE",
"117 83 OFFCURVE",
"117 81 CURVE SMOOTH",
"117 80 LINE",
"118 80 LINE",
"118 81 LINE SMOOTH",
"118 82 OFFCURVE",
"119 83 OFFCURVE",
"120 83 CURVE SMOOTH",
"121 83 OFFCURVE",
"122 82 OFFCURVE",
"122 81 CURVE SMOOTH",
"122 80 LINE",
"123 80 LINE",
"123 81 LINE SMOOTH",
"123 83 OFFCURVE",
"122 84 OFFCURVE",
"120 84 CURVE SMOOTH"
);
}
);
width = 240;
},
{
associatedMasterId = "374D6CB2-7ECF-4C4C-B17A-FDC7D09CFFBE";
layerId = "9FD43EE1-572C-435E-95C6-0CB94B0932DA";
name = "Origin [99]";
width = 240;
},
{
associatedMasterId = "43180DBC-A696-476D-8635-86ED5F988BC9";
layerId = "3FB494B7-0BFA-4425-9F5E-ABE28F312C5E";
name = "Target [99]";
width = 240;
}
);
unicode = 0067;
},
{
glyphname = h;
lastChange = "2019-07-15 22:10:28 +0000";
layers = (
{
layerId = "374D6CB2-7ECF-4C4C-B17A-FDC7D09CFFBE";
paths = (
{
closed = 1;
nodes = (
"131 30 OFFCURVE",
"140 39 OFFCURVE",
"140 50 CURVE SMOOTH",
"140 61 OFFCURVE",
"131 70 OFFCURVE",
"120 70 CURVE SMOOTH",
"109 70 OFFCURVE",
"100 61 OFFCURVE",
"100 50 CURVE SMOOTH",
"100 39 OFFCURVE",
"109 30 OFFCURVE",
"120 30 CURVE SMOOTH"
);
},
{
closed = 1;
nodes = (
"60 120 LINE SMOOTH",
"49 120 OFFCURVE",
"40 111 OFFCURVE",
"40 100 CURVE SMOOTH",
"40 0 LINE SMOOTH",
"40 -11 OFFCURVE",
"49 -20 OFFCURVE",
"60 -20 CURVE SMOOTH",
"180 -20 LINE SMOOTH",
"191 -20 OFFCURVE",
"200 -11 OFFCURVE",
"200 0 CURVE SMOOTH",
"200 100 LINE SMOOTH",
"200 111 OFFCURVE",
"191 120 OFFCURVE",
"180 120 CURVE SMOOTH"
);
},
{
closed = 1;
nodes = (
"60 0 LINE",
"60 100 LINE",
"180 100 LINE",
"180 0 LINE"
);
},
{
closed = 1;
nodes = (
"92 190 OFFCURVE",
"70 168 OFFCURVE",
"70 140 CURVE SMOOTH",
"70 120 LINE",
"90 120 LINE",
"90 140 LINE SMOOTH",
"90 157 OFFCURVE",
"103 170 OFFCURVE",
"120 170 CURVE SMOOTH",
"137 170 OFFCURVE",
"150 157 OFFCURVE",
"150 140 CURVE SMOOTH",
"150 120 LINE",
"170 120 LINE",
"170 140 LINE SMOOTH",
"170 168 OFFCURVE",
"148 190 OFFCURVE",
"120 190 CURVE SMOOTH"
);
}
);
width = 240;
},
{
layerId = "43180DBC-A696-476D-8635-86ED5F988BC9";
paths = (
{
closed = 1;
nodes = (
"131 30 OFFCURVE",
"140 39 OFFCURVE",
"140 50 CURVE SMOOTH",
"140 61 OFFCURVE",
"131 70 OFFCURVE",
"120 70 CURVE SMOOTH",
"109 70 OFFCURVE",
"100 61 OFFCURVE",
"100 50 CURVE SMOOTH",
"100 39 OFFCURVE",
"109 30 OFFCURVE",
"120 30 CURVE SMOOTH"
);
},
{
closed = 1;
nodes = (
"60 120 LINE SMOOTH",
"49 120 OFFCURVE",
"40 111 OFFCURVE",
"40 100 CURVE SMOOTH",
"40 0 LINE SMOOTH",
"40 -11 OFFCURVE",
"49 -20 OFFCURVE",
"60 -20 CURVE SMOOTH",
"180 -20 LINE SMOOTH",
"191 -20 OFFCURVE",
"200 -11 OFFCURVE",
"200 0 CURVE SMOOTH",
"200 100 LINE SMOOTH",
"200 111 OFFCURVE",
"191 120 OFFCURVE",
"180 120 CURVE SMOOTH"
);
},
{
closed = 1;
nodes = (
"60 0 LINE",
"60 100 LINE",
"180 100 LINE",
"180 0 LINE"
);
},
{
closed = 1;
nodes = (
"92 190 OFFCURVE",
"70 168 OFFCURVE",
"70 140 CURVE SMOOTH",
"70 120 LINE",
"90 120 LINE",
"90 140 LINE SMOOTH",
"90 157 OFFCURVE",
"103 170 OFFCURVE",
"120 170 CURVE SMOOTH",
"137 170 OFFCURVE",
"150 157 OFFCURVE",
"150 140 CURVE SMOOTH",
"150 120 LINE",
"170 120 LINE",
"170 140 LINE SMOOTH",
"170 168 OFFCURVE",
"148 190 OFFCURVE",
"120 190 CURVE SMOOTH"
);
}
);
width = 240;
},
{
associatedMasterId = "374D6CB2-7ECF-4C4C-B17A-FDC7D09CFFBE";
layerId = "91F871C3-2D39-4CDD-8534-1E36301FC635";
name = "Orign {25}";
paths = (
{
closed = 1;
nodes = (
"171 30 OFFCURVE",
"180 39 OFFCURVE",
"180 50 CURVE SMOOTH",
"180 61 OFFCURVE",
"171 70 OFFCURVE",
"160 70 CURVE SMOOTH",
"149 70 OFFCURVE",
"140 61 OFFCURVE",
"140 50 CURVE SMOOTH",
"140 39 OFFCURVE",
"149 30 OFFCURVE",
"160 30 CURVE SMOOTH"
);
},
{
closed = 1;
nodes = (
"100 120 LINE SMOOTH",
"89 120 OFFCURVE",
"80 111 OFFCURVE",
"80 100 CURVE SMOOTH",
"80 0 LINE SMOOTH",
"80 -11 OFFCURVE",
"89 -20 OFFCURVE",
"100 -20 CURVE SMOOTH",
"220 -20 LINE SMOOTH",
"231 -20 OFFCURVE",
"240 -11 OFFCURVE",
"240 0 CURVE SMOOTH",
"240 100 LINE SMOOTH",
"240 111 OFFCURVE",
"231 120 OFFCURVE",
"220 120 CURVE SMOOTH"
);
},
{
closed = 1;
nodes = (
"100 0 LINE",
"100 100 LINE",
"220 100 LINE",
"220 0 LINE"
);
},
{
closed = 1;
nodes = (
"132 190 OFFCURVE",
"110 168 OFFCURVE",
"110 140 CURVE SMOOTH",
"110 120 LINE",
"130 120 LINE",
"130 140 LINE SMOOTH",
"130 157 OFFCURVE",
"143 170 OFFCURVE",
"160 170 CURVE SMOOTH",
"177 170 OFFCURVE",
"190 157 OFFCURVE",
"190 140 CURVE SMOOTH",
"190 120 LINE",
"210 120 LINE",
"210 140 LINE SMOOTH",
"210 168 OFFCURVE",
"188 190 OFFCURVE",
"160 190 CURVE SMOOTH"
);
}
);
width = 240;
},
{
associatedMasterId = "374D6CB2-7ECF-4C4C-B17A-FDC7D09CFFBE";
layerId = "FF089A77-F7D3-4AF0-96CD-FFA566D5DA0F";
name = "Orign {50}";
paths = (
{
closed = 1;
nodes = (
"91 30 OFFCURVE",
"100 39 OFFCURVE",
"100 50 CURVE SMOOTH",
"100 61 OFFCURVE",
"91 70 OFFCURVE",
"80 70 CURVE SMOOTH",
"69 70 OFFCURVE",
"60 61 OFFCURVE",
"60 50 CURVE SMOOTH",
"60 39 OFFCURVE",
"69 30 OFFCURVE",
"80 30 CURVE SMOOTH"
);
},
{
closed = 1;
nodes = (
"20 120 LINE SMOOTH",
"9 120 OFFCURVE",
"0 111 OFFCURVE",
"0 100 CURVE SMOOTH",
"0 0 LINE SMOOTH",
"0 -11 OFFCURVE",
"9 -20 OFFCURVE",
"20 -20 CURVE SMOOTH",
"140 -20 LINE SMOOTH",
"151 -20 OFFCURVE",
"160 -11 OFFCURVE",
"160 0 CURVE SMOOTH",
"160 100 LINE SMOOTH",
"160 111 OFFCURVE",
"151 120 OFFCURVE",
"140 120 CURVE SMOOTH"
);
},
{
closed = 1;
nodes = (
"20 0 LINE",
"20 100 LINE",
"140 100 LINE",
"140 0 LINE"
);
},
{
closed = 1;
nodes = (
"52 190 OFFCURVE",
"30 168 OFFCURVE",
"30 140 CURVE SMOOTH",
"30 120 LINE",
"50 120 LINE",
"50 140 LINE SMOOTH",
"50 157 OFFCURVE",
"63 170 OFFCURVE",
"80 170 CURVE SMOOTH",
"97 170 OFFCURVE",
"110 157 OFFCURVE",
"110 140 CURVE SMOOTH",
"110 120 LINE",
"130 120 LINE",
"130 140 LINE SMOOTH",
"130 168 OFFCURVE",
"108 190 OFFCURVE",
"80 190 CURVE SMOOTH"
);
}
);
width = 240;
},
{
associatedMasterId = "374D6CB2-7ECF-4C4C-B17A-FDC7D09CFFBE";
layerId = "7F35AB63-D404-4853-B6F5-4E892378D5D3";
name = "Orign {75}";
paths = (
{
closed = 1;
nodes = (
"171 30 OFFCURVE",
"180 39 OFFCURVE",
"180 50 CURVE SMOOTH",
"180 61 OFFCURVE",
"171 70 OFFCURVE",
"160 70 CURVE SMOOTH",
"149 70 OFFCURVE",
"140 61 OFFCURVE",
"140 50 CURVE SMOOTH",
"140 39 OFFCURVE",
"149 30 OFFCURVE",
"160 30 CURVE SMOOTH"
);
},
{
closed = 1;
nodes = (
"100 120 LINE SMOOTH",
"89 120 OFFCURVE",
"80 111 OFFCURVE",
"80 100 CURVE SMOOTH",
"80 0 LINE SMOOTH",
"80 -11 OFFCURVE",
"89 -20 OFFCURVE",
"100 -20 CURVE SMOOTH",
"220 -20 LINE SMOOTH",
"231 -20 OFFCURVE",
"240 -11 OFFCURVE",
"240 0 CURVE SMOOTH",
"240 100 LINE SMOOTH",
"240 111 OFFCURVE",
"231 120 OFFCURVE",
"220 120 CURVE SMOOTH"
);
},
{
closed = 1;
nodes = (
"100 0 LINE",
"100 100 LINE",
"220 100 LINE",
"220 0 LINE"
);
},
{
closed = 1;
nodes = (
"132 190 OFFCURVE",
"110 168 OFFCURVE",
"110 140 CURVE SMOOTH",
"110 120 LINE",
"130 120 LINE",
"130 140 LINE SMOOTH",
"130 157 OFFCURVE",
"143 170 OFFCURVE",
"160 170 CURVE SMOOTH",
"177 170 OFFCURVE",
"190 157 OFFCURVE",
"190 140 CURVE SMOOTH",
"190 120 LINE",
"210 120 LINE",
"210 140 LINE SMOOTH",
"210 168 OFFCURVE",
"188 190 OFFCURVE",
"160 190 CURVE SMOOTH"
);
}
);
width = 240;
}
);
unicode = 0068;
},
{
glyphname = o;
lastChange = "2019-09-05 09:02:25 +0000";
layers = (
{
layerId = "374D6CB2-7ECF-4C4C-B17A-FDC7D09CFFBE";
paths = (
{
closed = 1;
nodes = (
"80 10 LINE",
"142 49 LINE",
"142 111 LINE",
"80 150 LINE"
);
},
{
closed = 1;
nodes = (
"129 41 LINE",
"151 55 LINE",
"190 80 LINE",
"129 119 LINE"
);
}
);
width = 240;
},
{
layerId = "43180DBC-A696-476D-8635-86ED5F988BC9";
paths = (
{
closed = 1;
nodes = (
"60 10 LINE",
"100 10 LINE",
"100 150 LINE",
"60 150 LINE"
);
},
{
closed = 1;
nodes = (
"140 10 LINE",
"180 10 LINE",
"180 150 LINE",
"140 150 LINE"
);
}
);
width = 240;
}
);
unicode = 006F;
},
{
glyphname = p;
lastChange = "2019-09-05 09:02:25 +0000";
layers = (
{
layerId = "374D6CB2-7ECF-4C4C-B17A-FDC7D09CFFBE";
paths = (
{
closed = 1;
nodes = (
"80 10 LINE",
"190 80 LINE",
"80 150 LINE"
);
}
);
width = 240;
},
{
layerId = "43180DBC-A696-476D-8635-86ED5F988BC9";
paths = (
{
closed = 1;
nodes = (
"107 44 LINE",
"163 80 LINE",
"107 116 LINE"
);
}
);
width = 240;
},
{
associatedMasterId = "374D6CB2-7ECF-4C4C-B17A-FDC7D09CFFBE";
layerId = "EE081A1A-7EC2-4E2C-A23B-20D48C456813";
name = "Origin[95]";
width = 240;
},
{
associatedMasterId = "43180DBC-A696-476D-8635-86ED5F988BC9";
layerId = "7617C9C1-BB6B-416C-B324-66FF330E9437";
name = "Target[95]";
width = 240;
}
);
unicode = 0070;
},
{
glyphname = q;
lastChange = "2019-09-05 09:02:25 +0000";
layers = (
{
layerId = "374D6CB2-7ECF-4C4C-B17A-FDC7D09CFFBE";
paths = (
{
closed = 1;
nodes = (
"65 180 OFFCURVE",
"20 135 OFFCURVE",
"20 80 CURVE",
"20 25 OFFCURVE",
"65 -20 OFFCURVE",
"120 -20 CURVE",
"175 -20 OFFCURVE",
"220 25 OFFCURVE",
"220 80 CURVE",
"220 135 OFFCURVE",
"175 180 OFFCURVE",
"120 180 CURVE"
);
},
{
closed = 1;
nodes = (
"100 125 LINE",
"160 80 LINE",
"100 35 LINE"
);
}
);
width = 240;
},
{
layerId = "43180DBC-A696-476D-8635-86ED5F988BC9";
paths = (
{
closed = 1;
nodes = (
"65 180 OFFCURVE",
"20 135 OFFCURVE",
"20 80 CURVE",
"20 25 OFFCURVE",
"65 -20 OFFCURVE",
"120 -20 CURVE",
"175 -20 OFFCURVE",
"220 25 OFFCURVE",
"220 80 CURVE",
"220 135 OFFCURVE",
"175 180 OFFCURVE",
"120 180 CURVE"
);
},
{
closed = 1;
nodes = (
"100 125 LINE",
"160 80 LINE",
"100 35 LINE"
);
}
);
width = 240;
},
{
associatedMasterId = "374D6CB2-7ECF-4C4C-B17A-FDC7D09CFFBE";
layerId = "156AA039-EE6E-4C16-8E9A-1261644618CC";
name = "Origin {50}";
paths = (
{
closed = 1;
nodes = (
"76 160 OFFCURVE",
"40 124 OFFCURVE",
"40 80 CURVE",
"40 36 OFFCURVE",
"76 0 OFFCURVE",
"120 0 CURVE",
"164 0 OFFCURVE",
"200 36 OFFCURVE",
"200 80 CURVE",
"200 124 OFFCURVE",
"164 160 OFFCURVE",
"120 160 CURVE"
);
},
{
closed = 1;
nodes = (
"104 116 LINE",
"152 80 LINE",
"104 44 LINE"
);
}
);
width = 240;
},
{
associatedMasterId = "374D6CB2-7ECF-4C4C-B17A-FDC7D09CFFBE";
layerId = "81BC38AF-ECB7-4ECC-8E49-6E5DD81993BB";
name = "Origin {80}";
paths = (
{
closed = 1;
nodes = (
"76 160 OFFCURVE",
"40 124 OFFCURVE",
"40 80 CURVE",
"40 36 OFFCURVE",
"76 0 OFFCURVE",
"120 0 CURVE",
"164 0 OFFCURVE",
"200 36 OFFCURVE",
"200 80 CURVE",
"200 124 OFFCURVE",
"164 160 OFFCURVE",
"120 160 CURVE"
);
},
{
closed = 1;
nodes = (
"109 109 LINE",
"147 80 LINE",
"109 51 LINE"
);
}
);
width = 240;
}
);
unicode = 0071;
},
{
glyphname = r;
lastChange = "2019-09-05 09:02:25 +0000";
layers = (
{
layerId = "374D6CB2-7ECF-4C4C-B17A-FDC7D09CFFBE";
paths = (
{
closed = 1;
nodes = (
"50 -10 LINE",
"50 110 LINE",
"10 110 LINE",
"10 -10 LINE"
);
},
{
closed = 1;
nodes = (
"230 111 OFFCURVE",
"221 120 OFFCURVE",
"210 120 CURVE",
"147 120 LINE",
"156 166 LINE",
"157 169 LINE",
"157 173 OFFCURVE",
"155 177 OFFCURVE",
"152 180 CURVE",
"142 190 LINE",
"76 124 LINE",
"72 121 OFFCURVE",
"70 116 OFFCURVE",
"70 110 CURVE",
"70 10 LINE",
"70 -1 OFFCURVE",
"79 -10 OFFCURVE",
"90 -10 CURVE",
"180 -10 LINE",
"188 -10 OFFCURVE",
"195 -5 OFFCURVE",
"198 2 CURVE",
"229 73 LINE",
"230 75 OFFCURVE",
"230 77 OFFCURVE",
"230 80 CURVE",
"230 100 LINE"
);
},
{
closed = 1;
nodes = (
"194 36 LINE",
"184 64 LINE",
"207 80 LINE",
"178 80 LINE",
"170 108 LINE",
"162 80 LINE",
"133 80 LINE",
"156 64 LINE",
"146 36 LINE",
"170 53 LINE"
);
}
);
width = 240;
},
{
layerId = "43180DBC-A696-476D-8635-86ED5F988BC9";
paths = (
{
closed = 1;
nodes = (
"67 -2 LINE",
"46 117 LINE",
"7 110 LINE",
"27 -8 LINE"
);
},
{
closed = 1;
nodes = (
"217 169 OFFCURVE",
"206 177 OFFCURVE",
"195 174 CURVE",
"144 164 LINE",
"132 208 LINE",
"131 211 LINE",
"129 215 OFFCURVE",
"125 217 OFFCURVE",
"121 220 CURVE",
"104 224 LINE",
"96 174 LINE",
"92 160 OFFCURVE",
"60 140 OFFCURVE",
"61 130 CURVE",
"84 35 LINE",
"86 25 OFFCURVE",
"96 17 OFFCURVE",
"107 20 CURVE",
"195 40 LINE",
"203 43 OFFCURVE",
"209 49 OFFCURVE",
"210 57 CURVE",
"224 132 LINE",
"224 134 OFFCURVE",
"225 136 OFFCURVE",
"224 139 CURVE",
"219 159 LINE"
);
},
{
closed = 1;
nodes = (
"190 209 LINE",
"219 212 LINE",
"230 187 LINE",
"236 215 LINE",
"265 219 LINE",
"239 231 LINE",
"244 260 LINE",
"225 240 LINE",
"199 255 LINE",
"211 228 LINE"
);
}
);
width = 240;
},
{
associatedMasterId = "374D6CB2-7ECF-4C4C-B17A-FDC7D09CFFBE";
layerId = "EDF598D1-CE10-4519-A31E-63BB5EB9EF46";
name = "Origin {25}";
paths = (
{
closed = 1;
nodes = (
"32 -15 LINE",
"53 103 LINE",
"13 110 LINE",
"-7 -8 LINE"
);
},
{
closed = 1;
nodes = (
"235 54 OFFCURVE",
"229 62 OFFCURVE",
"218 65 CURVE",
"152 84 LINE",
"191 111 LINE",
"192 114 LINE",
"192 118 OFFCURVE",
"190 124 OFFCURVE",
"188 129 CURVE",
"183 138 LINE",
"89 106 LINE",
"84 105 OFFCURVE",
"81 100 OFFCURVE",
"79 94 CURVE",
"53 -2 LINE",
"52 -13 OFFCURVE",
"57 -24 OFFCURVE",
"68 -27 CURVE",
"155 -50 LINE",
"162 -52 OFFCURVE",
"170 -49 OFFCURVE",
"175 -43 CURVE",
"213 4 LINE",
"215 7 OFFCURVE",
"225 20 OFFCURVE",
"226 24 CURVE",
"231 43 LINE"
);
},
{
closed = 1;
nodes = (
"154 -7 LINE",
"165 20 LINE",
"193 17 LINE",
"171 36 LINE",
"183 63 LINE",
"159 47 LINE",
"137 66 LINE",
"144 39 LINE",
"118 24 LINE",
"147 21 LINE"
);
}
);
width = 240;
},
{
associatedMasterId = "374D6CB2-7ECF-4C4C-B17A-FDC7D09CFFBE";
layerId = "A9B49236-5C51-4959-B200-BA69D85AC254";
name = "Origin {75}";
paths = (
{
closed = 1;
nodes = (
"67 -2 LINE",
"46 117 LINE",
"7 110 LINE",
"27 -8 LINE"
);
},
{
closed = 1;
nodes = (
"217 169 OFFCURVE",
"206 177 OFFCURVE",
"195 174 CURVE",
"144 164 LINE",
"132 208 LINE",
"131 211 LINE",
"129 215 OFFCURVE",
"125 217 OFFCURVE",
"121 220 CURVE",
"104 224 LINE",
"96 174 LINE",
"92 160 OFFCURVE",
"60 140 OFFCURVE",
"61 130 CURVE",
"84 35 LINE",
"86 25 OFFCURVE",
"96 17 OFFCURVE",
"107 20 CURVE",
"195 40 LINE",
"203 43 OFFCURVE",
"209 49 OFFCURVE",
"210 57 CURVE",
"224 132 LINE",
"224 134 OFFCURVE",
"225 136 OFFCURVE",
"224 139 CURVE",
"219 159 LINE"
);
},
{
closed = 1;
nodes = (
"190 209 LINE",
"219 212 LINE",
"230 187 LINE",
"236 215 LINE",
"265 219 LINE",
"239 231 LINE",
"244 260 LINE",
"225 240 LINE",
"199 255 LINE",
"211 228 LINE"
);
}
);
width = 240;
}
);
unicode = 0072;
},
{
glyphname = s;
lastChange = "2019-09-05 09:02:25 +0000";
layers = (
{
layerId = "374D6CB2-7ECF-4C4C-B17A-FDC7D09CFFBE";
paths = (
{
closed = 1;
nodes = (
"50 -10 LINE",
"50 110 LINE",
"10 110 LINE",
"10 -10 LINE"
);
},
{
closed = 1;
nodes = (
"230 111 OFFCURVE",
"221 120 OFFCURVE",
"210 120 CURVE",
"147 120 LINE",
"156 166 LINE",
"157 169 LINE",
"157 173 OFFCURVE",
"155 177 OFFCURVE",
"152 180 CURVE",
"142 190 LINE",
"76 124 LINE",
"72 121 OFFCURVE",
"70 116 OFFCURVE",
"70 110 CURVE",
"70 10 LINE",
"70 -1 OFFCURVE",
"79 -10 OFFCURVE",
"90 -10 CURVE",
"180 -10 LINE",
"188 -10 OFFCURVE",
"195 -5 OFFCURVE",
"198 2 CURVE",
"229 73 LINE",
"230 75 OFFCURVE",
"230 77 OFFCURVE",
"230 80 CURVE",
"230 100 LINE"
);
}
);
width = 240;
},
{
layerId = "43180DBC-A696-476D-8635-86ED5F988BC9";
paths = (
{
closed = 1;
nodes = (
"95 55 LINE",
"95 97 LINE",
"81 97 LINE",
"81 55 LINE"
);
},
{
closed = 1;
nodes = (
"159 97 OFFCURVE",
"155 101 OFFCURVE",
"152 101 CURVE",
"129 101 LINE",
"133 117 LINE",
"133 118 LINE",
"133 119 OFFCURVE",
"132 120 OFFCURVE",
"131 122 CURVE",
"128 125 LINE",
"105 102 LINE",
"103 101 OFFCURVE",
"102 99 OFFCURVE",
"102 97 CURVE",
"102 62 LINE",
"102 58 OFFCURVE",
"106 55 OFFCURVE",
"109 55 CURVE",
"141 55 LINE",
"144 55 OFFCURVE",
"146 57 OFFCURVE",
"147 59 CURVE",
"158 84 LINE",
"159 85 OFFCURVE",
"159 85 OFFCURVE",
"159 86 CURVE",
"159 94 LINE"
);
}
);
width = 240;
},
{
associatedMasterId = "374D6CB2-7ECF-4C4C-B17A-FDC7D09CFFBE";
layerId = "55CEC962-F5BC-4649-B02B-890241BEE585";
name = "Origin[95]";
width = 240;
},
{
associatedMasterId = "43180DBC-A696-476D-8635-86ED5F988BC9";
layerId = "5504E495-9A75-4415-AFE7-E3AE29A1238B";
name = "Target[95]";
width = 240;
}
);
unicode = 0073;
},
{
glyphname = t;
lastChange = "2019-09-05 09:02:25 +0000";
layers = (
{
layerId = "374D6CB2-7ECF-4C4C-B17A-FDC7D09CFFBE";
paths = (
{
closed = 1;
nodes = (
"50 -10 LINE",
"50 110 LINE",
"10 110 LINE",
"10 -10 LINE"
);
},
{
closed = 1;
nodes = (
"230 111 OFFCURVE",
"221 120 OFFCURVE",
"210 120 CURVE",
"147 120 LINE",
"156 166 LINE",
"157 169 LINE",
"157 173 OFFCURVE",
"155 177 OFFCURVE",
"152 180 CURVE",
"142 190 LINE",
"76 124 LINE",
"72 121 OFFCURVE",
"70 116 OFFCURVE",
"70 110 CURVE",
"70 10 LINE",
"70 -1 OFFCURVE",
"79 -10 OFFCURVE",
"90 -10 CURVE",
"180 -10 LINE",
"188 -10 OFFCURVE",
"195 -5 OFFCURVE",
"198 2 CURVE",
"229 73 LINE",
"230 75 OFFCURVE",
"230 77 OFFCURVE",
"230 80 CURVE",
"230 100 LINE"
);
}
);
width = 240;
},
{
layerId = "43180DBC-A696-476D-8635-86ED5F988BC9";
paths = (
{
closed = 1;
nodes = (
"50 -10 LINE",
"50 110 LINE",
"10 110 LINE",
"10 -10 LINE"
);
},
{
closed = 1;
nodes = (
"230 111 OFFCURVE",
"221 120 OFFCURVE",
"210 120 CURVE",
"147 120 LINE",
"156 166 LINE",
"157 169 LINE",
"157 173 OFFCURVE",
"155 177 OFFCURVE",
"152 180 CURVE",
"142 190 LINE",
"76 124 LINE",
"72 121 OFFCURVE",
"70 116 OFFCURVE",
"70 110 CURVE",
"70 10 LINE",
"70 -1 OFFCURVE",
"79 -10 OFFCURVE",
"90 -10 CURVE",
"180 -10 LINE",
"188 -10 OFFCURVE",
"195 -5 OFFCURVE",
"198 2 CURVE",
"229 73 LINE",
"230 75 OFFCURVE",
"230 77 OFFCURVE",
"230 80 CURVE",
"230 100 LINE"
);
}
);
width = 240;
},
{
associatedMasterId = "374D6CB2-7ECF-4C4C-B17A-FDC7D09CFFBE";
layerId = "EDF598D1-CE10-4519-A31E-63BB5EB9EF46";
name = "Origin {25}";
paths = (
{
closed = 1;
nodes = (
"32 -15 LINE",
"53 103 LINE",
"13 110 LINE",
"-7 -8 LINE"
);
},
{
closed = 1;
nodes = (
"235 54 OFFCURVE",
"229 62 OFFCURVE",
"218 65 CURVE",
"152 84 LINE",
"191 111 LINE",
"192 114 LINE",
"192 118 OFFCURVE",
"190 124 OFFCURVE",
"188 129 CURVE",
"183 138 LINE",
"89 106 LINE",
"84 105 OFFCURVE",
"81 100 OFFCURVE",
"79 94 CURVE",
"53 -2 LINE",
"52 -13 OFFCURVE",
"57 -24 OFFCURVE",
"68 -27 CURVE",
"155 -50 LINE",
"162 -52 OFFCURVE",
"170 -49 OFFCURVE",
"175 -43 CURVE",
"223 18 LINE",
"225 19 OFFCURVE",
"225 18 OFFCURVE",
"225 21 CURVE",
"231 43 LINE"
);
}
);
width = 240;
},
{
associatedMasterId = "374D6CB2-7ECF-4C4C-B17A-FDC7D09CFFBE";
layerId = "A9B49236-5C51-4959-B200-BA69D85AC254";
name = "Origin {50}";
paths = (
{
closed = 1;
nodes = (
"67 -2 LINE",
"46 117 LINE",
"7 110 LINE",
"27 -8 LINE"
);
},
{
closed = 1;
nodes = (
"217 169 OFFCURVE",
"206 177 OFFCURVE",
"195 174 CURVE",
"144 164 LINE",
"132 208 LINE",
"131 211 LINE",
"129 215 OFFCURVE",
"125 217 OFFCURVE",
"121 220 CURVE",
"104 226 LINE",
"95 168 LINE",
"94 159 OFFCURVE",
"59 136 OFFCURVE",
"61 130 CURVE",
"84 35 LINE",
"86 25 OFFCURVE",
"96 17 OFFCURVE",
"107 20 CURVE",
"195 40 LINE",
"203 43 OFFCURVE",
"209 49 OFFCURVE",
"210 57 CURVE",
"224 132 LINE",
"224 134 OFFCURVE",
"225 136 OFFCURVE",
"224 139 CURVE",
"219 159 LINE"
);
}
);
width = 240;
},
{
associatedMasterId = "374D6CB2-7ECF-4C4C-B17A-FDC7D09CFFBE";
layerId = "328B814F-75CD-4F36-B36D-3D9678644A70";
name = "Origin {75}";
paths = (
{
closed = 1;
nodes = (
"32 -15 LINE",
"53 103 LINE",
"13 110 LINE",
"-7 -8 LINE"
);
},
{
closed = 1;
nodes = (
"235 54 OFFCURVE",
"229 62 OFFCURVE",
"218 65 CURVE",
"152 84 LINE",
"191 111 LINE",
"192 114 LINE",
"192 118 OFFCURVE",
"190 124 OFFCURVE",
"188 129 CURVE",
"183 138 LINE",
"89 106 LINE",
"84 105 OFFCURVE",
"81 100 OFFCURVE",
"79 94 CURVE",
"53 -2 LINE",
"52 -13 OFFCURVE",
"57 -24 OFFCURVE",
"68 -27 CURVE",
"155 -50 LINE",
"162 -52 OFFCURVE",
"170 -49 OFFCURVE",
"175 -43 CURVE",
"223 18 LINE",
"225 19 OFFCURVE",
"225 18 OFFCURVE",
"225 21 CURVE",
"231 43 LINE"
);
}
);
width = 240;
}
);
unicode = 0074;
},
{
glyphname = u;
lastChange = "2019-09-05 09:02:25 +0000";
layers = (
{
components = (
{
name = "U-morphToDot-comp";
}
);
layerId = "374D6CB2-7ECF-4C4C-B17A-FDC7D09CFFBE";
width = 240;
},
{
components = (
{
name = "U-morphToDot-comp";
}
);
layerId = "43180DBC-A696-476D-8635-86ED5F988BC9";
width = 240;
},
{
associatedMasterId = "374D6CB2-7ECF-4C4C-B17A-FDC7D09CFFBE";
layerId = "9A73168D-FD58-46BE-AF4C-D775E57D6DA6";
name = "Origin[95]";
paths = (
{
closed = 1;
nodes = (
"133 40 OFFCURVE",
"147 47 OFFCURVE",
"154 59 CURVE SMOOTH",
"162 73 OFFCURVE",
"162 88 OFFCURVE",
"154 101 CURVE SMOOTH",
"147 112 OFFCURVE",
"134 120 OFFCURVE",
"120 120 CURVE SMOOTH",
"106 120 OFFCURVE",
"93 112 OFFCURVE",
"86 101 CURVE SMOOTH",
"78 88 OFFCURVE",
"78 73 OFFCURVE",
"86 59 CURVE SMOOTH",
"93 47 OFFCURVE",
"107 40 OFFCURVE",
"120 40 CURVE SMOOTH"
);
}
);
width = 240;
},
{
associatedMasterId = "43180DBC-A696-476D-8635-86ED5F988BC9";
layerId = "17158730-76E4-4169-AA3E-8F657757662A";
name = "Target[95]";
paths = (
{
closed = 1;
nodes = (
"133 40 OFFCURVE",
"147 47 OFFCURVE",
"154 59 CURVE SMOOTH",
"162 73 OFFCURVE",
"162 88 OFFCURVE",
"154 101 CURVE SMOOTH",
"147 112 OFFCURVE",
"134 120 OFFCURVE",
"120 120 CURVE SMOOTH",
"106 120 OFFCURVE",
"93 112 OFFCURVE",
"86 101 CURVE SMOOTH",
"78 88 OFFCURVE",
"78 73 OFFCURVE",
"86 59 CURVE SMOOTH",
"93 47 OFFCURVE",
"107 40 OFFCURVE",
"120 40 CURVE SMOOTH"
);
}
);
width = 240;
}
);
unicode = 0075;
},
{
glyphname = v;
lastChange = "2019-09-05 09:02:25 +0000";
layers = (
{
associatedMasterId = "374D6CB2-7ECF-4C4C-B17A-FDC7D09CFFBE";
layerId = "38C892F8-B91F-453E-99C0-1B66785FC36D";
name = "Origin[90]";
paths = (
{
closed = 1;
nodes = (
"50 -10 LINE",
"50 110 LINE",
"10 110 LINE",
"10 -10 LINE"
);
},
{
closed = 1;
nodes = (
"230 111 OFFCURVE",
"221 120 OFFCURVE",
"210 120 CURVE",
"147 120 LINE",
"156 166 LINE",
"157 169 LINE",
"157 173 OFFCURVE",
"155 177 OFFCURVE",
"152 180 CURVE",
"142 190 LINE",
"76 124 LINE",
"72 121 OFFCURVE",
"70 116 OFFCURVE",
"70 110 CURVE",
"70 10 LINE",
"70 -1 OFFCURVE",
"79 -10 OFFCURVE",
"90 -10 CURVE",
"180 -10 LINE",
"188 -10 OFFCURVE",
"195 -5 OFFCURVE",
"198 2 CURVE",
"229 73 LINE",
"230 75 OFFCURVE",
"230 77 OFFCURVE",
"230 80 CURVE",
"230 100 LINE"
);
}
);
width = 240;
},
{
components = (
{
name = "outline-empasis";
}
);
layerId = "374D6CB2-7ECF-4C4C-B17A-FDC7D09CFFBE";
width = 240;
},
{
components = (
{
name = "outline-empasis";
}
);
layerId = "43180DBC-A696-476D-8635-86ED5F988BC9";
width = 240;
},
{
associatedMasterId = "43180DBC-A696-476D-8635-86ED5F988BC9";
layerId = "FFEC3A7D-7D5A-437B-AF55-3D1FA259FB9E";
name = "Target[90]";
paths = (
{
closed = 1;
nodes = (
"50 -10 LINE",
"50 110 LINE",
"10 110 LINE",
"10 -10 LINE"
);
},
{
closed = 1;
nodes = (
"230 111 OFFCURVE",
"221 120 OFFCURVE",
"210 120 CURVE",
"147 120 LINE",
"156 166 LINE",
"157 169 LINE",
"157 173 OFFCURVE",
"155 177 OFFCURVE",
"152 180 CURVE",
"142 190 LINE",
"76 124 LINE",
"72 121 OFFCURVE",
"70 116 OFFCURVE",
"70 110 CURVE",
"70 10 LINE",
"70 -1 OFFCURVE",
"79 -10 OFFCURVE",
"90 -10 CURVE",
"180 -10 LINE",
"188 -10 OFFCURVE",
"195 -5 OFFCURVE",
"198 2 CURVE",
"229 73 LINE",
"230 75 OFFCURVE",
"230 77 OFFCURVE",
"230 80 CURVE",
"230 100 LINE"
);
}
);
width = 240;
}
);
unicode = 0076;
},
{
glyphname = w;
lastChange = "2019-09-05 09:02:25 +0000";
layers = (
{
layerId = "374D6CB2-7ECF-4C4C-B17A-FDC7D09CFFBE";
paths = (
{
closed = 1;
nodes = (
"30 -11 LINE",
"68 -11 LINE",
"178 100 LINE",
"141 137 LINE",
"30 26 LINE"
);
},
{
closed = 1;
nodes = (
"211 132 OFFCURVE",
"211 139 OFFCURVE",
"207 143 CURVE",
"184 166 LINE",
"180 170 OFFCURVE",
"174 170 OFFCURVE",
"170 166 CURVE",
"151 148 LINE",
"189 110 LINE",
"189 110 OFFCURVE",
"207 129 OFFCURVE",
"207 129 CURVE"
);
}
);
width = 240;
},
{
layerId = "43180DBC-A696-476D-8635-86ED5F988BC9";
paths = (
{
closed = 1;
nodes = (
"40 29 LINE",
"78 29 LINE",
"178 129 LINE",
"140 166 LINE",
"40 66 LINE"
);
},
{
closed = 1;
nodes = (
"211 162 OFFCURVE",
"211 169 OFFCURVE",
"207 173 CURVE",
"184 196 LINE",
"180 200 OFFCURVE",
"174 200 OFFCURVE",
"170 196 CURVE",
"150 176 LINE",
"188 139 LINE",
"188 139 OFFCURVE",
"207 159 OFFCURVE",
"207 159 CURVE"
);
}
);
width = 240;
},
{
associatedMasterId = "43180DBC-A696-476D-8635-86ED5F988BC9";
components = (
{
name = "edit-draw-comp";
}
);
layerId = "D3FFCD39-4BCB-4142-A5E4-20BDE7B8FBF5";
name = "Target [2]";
width = 240;
},
{
associatedMasterId = "374D6CB2-7ECF-4C4C-B17A-FDC7D09CFFBE";
components = (
{
name = "edit-draw-comp";
}
);
layerId = "C2C95288-EAA9-47B3-B2D0-9FB70150459F";
name = "Origin [2]";
width = 240;
}
);
unicode = 0077;
},
{
glyphname = y;
lastChange = "2019-09-05 09:02:25 +0000";
layers = (
{
layerId = "374D6CB2-7ECF-4C4C-B17A-FDC7D09CFFBE";
paths = (
{
closed = 1;
nodes = (
"30 -11 LINE",
"67 -11 LINE",
"178 100 LINE",
"140 137 LINE",
"30 27 LINE"
);
},
{
closed = 1;
nodes = (
"211 133 OFFCURVE",
"211 139 OFFCURVE",
"207 143 CURVE",
"183 166 LINE",
"179 170 OFFCURVE",
"173 170 OFFCURVE",
"169 166 CURVE",
"151 148 LINE",
"188 110 LINE",
"188 110 OFFCURVE",
"207 129 OFFCURVE",
"207 129 CURVE"
);
}
);
width = 240;
},
{
layerId = "43180DBC-A696-476D-8635-86ED5F988BC9";
paths = (
{
closed = 1;
nodes = (
"30 -11 LINE",
"67 -11 LINE",
"178 100 LINE",
"140 137 LINE",
"30 27 LINE"
);
},
{
closed = 1;
nodes = (
"211 133 OFFCURVE",
"211 139 OFFCURVE",
"207 143 CURVE",
"183 166 LINE",
"179 170 OFFCURVE",
"173 170 OFFCURVE",
"169 166 CURVE",
"151 148 LINE",
"188 110 LINE",
"188 110 OFFCURVE",
"207 129 OFFCURVE",
"207 129 CURVE"
);
}
);
width = 240;
},
{
associatedMasterId = "374D6CB2-7ECF-4C4C-B17A-FDC7D09CFFBE";
layerId = "C6AFA931-9B70-488E-B549-2FD04CE32AA6";
name = "Origin {25}";
paths = (
{
closed = 1;
nodes = (
"50 9 LINE",
"87 9 LINE",
"198 120 LINE",
"160 157 LINE",
"50 47 LINE"
);
},
{
closed = 1;
nodes = (
"231 153 OFFCURVE",
"231 159 OFFCURVE",
"227 163 CURVE",
"203 186 LINE",
"199 190 OFFCURVE",
"193 190 OFFCURVE",
"189 186 CURVE",
"171 168 LINE",
"208 130 LINE",
"208 130 OFFCURVE",
"227 149 OFFCURVE",
"227 149 CURVE"
);
}
);
width = 240;
},
{
associatedMasterId = "374D6CB2-7ECF-4C4C-B17A-FDC7D09CFFBE";
layerId = "0962D95D-4B99-44C3-B455-F2FD6606E4FB";
name = "Origin {50} ";
paths = (
{
closed = 1;
nodes = (
"50 9 LINE",
"86 16 LINE",
"176 144 LINE",
"133 174 LINE",
"43 47 LINE"
);
},
{
closed = 1;
nodes = (
"203 183 OFFCURVE",
"202 188 OFFCURVE",
"198 192 CURVE",
"170 210 LINE",
"165 213 OFFCURVE",
"159 212 OFFCURVE",
"156 208 CURVE",
"142 187 LINE",
"185 156 LINE",
"185 156 OFFCURVE",
"200 178 OFFCURVE",
"200 178 CURVE"
);
}
);
width = 240;
},
{
associatedMasterId = "374D6CB2-7ECF-4C4C-B17A-FDC7D09CFFBE";
layerId = "9D5AA383-C761-443F-B804-1C3497FD8EF0";
name = "Origin {75}  ";
paths = (
{
closed = 1;
nodes = (
"50 8 LINE",
"87 2 LINE",
"215 92 LINE",
"184 135 LINE",
"57 46 LINE"
);
},
{
closed = 1;
nodes = (
"254 119 OFFCURVE",
"255 125 OFFCURVE",
"251 129 CURVE",
"232 156 LINE",
"228 161 OFFCURVE",
"223 162 OFFCURVE",
"218 159 CURVE",
"197 144 LINE",
"227 100 LINE",
"227 100 OFFCURVE",
"249 116 OFFCURVE",
"249 116 CURVE"
);
}
);
width = 240;
},
{
associatedMasterId = "374D6CB2-7ECF-4C4C-B17A-FDC7D09CFFBE";
layerId = "9599B3D2-C456-42C8-A203-6EDA882EBDA6";
name = "Origin {80}  ";
paths = (
{
closed = 1;
nodes = (
"40 -1 LINE",
"76 6 LINE",
"166 134 LINE",
"123 164 LINE",
"33 37 LINE"
);
},
{
closed = 1;
nodes = (
"193 173 OFFCURVE",
"192 178 OFFCURVE",
"188 182 CURVE",
"160 200 LINE",
"155 203 OFFCURVE",
"149 202 OFFCURVE",
"146 198 CURVE",
"132 177 LINE",
"175 146 LINE",
"175 146 OFFCURVE",
"190 168 OFFCURVE",
"190 168 CURVE"
);
}
);
width = 240;
}
);
unicode = 0079;
},
{
glyphname = z;
lastChange = "2019-09-05 09:02:25 +0000";
layers = (
{
layerId = "374D6CB2-7ECF-4C4C-B17A-FDC7D09CFFBE";
paths = (
{
closed = 1;
nodes = (
"48 80 LINE",
"34 66 LINE",
"90 10 LINE",
"210 130 LINE",
"196 144 LINE",
"90 38 LINE"
);
}
);
width = 240;
},
{
layerId = "43180DBC-A696-476D-8635-86ED5F988BC9";
paths = (
{
closed = 1;
nodes = (
"48 80 LINE",
"34 66 LINE",
"90 10 LINE",
"210 130 LINE",
"196 144 LINE",
"90 38 LINE"
);
}
);
width = 240;
},
{
associatedMasterId = "374D6CB2-7ECF-4C4C-B17A-FDC7D09CFFBE";
components = (
{
name = "T-check-comp-reg";
}
);
layerId = "7646E8C8-CA73-4B96-8951-A925A53F3E8C";
name = "Origin[5]";
width = 240;
},
{
associatedMasterId = "43180DBC-A696-476D-8635-86ED5F988BC9";
components = (
{
name = "T-check-comp-reg";
}
);
layerId = "8DE5F609-EEE5-4031-A6FA-EB4643D160F9";
name = "Target[5]";
width = 240;
}
);
unicode = 007A;
},
{
glyphname = one;
lastChange = "2019-09-05 02:39:24 +0000";
layers = (
{
layerId = "374D6CB2-7ECF-4C4C-B17A-FDC7D09CFFBE";
paths = (
{
closed = 1;
nodes = (
"210 20 LINE",
"210 40 LINE",
"30 40 LINE",
"30 20 LINE"
);
},
{
closed = 1;
nodes = (
"210 70 LINE",
"210 90 LINE",
"30 90 LINE",
"30 70 LINE"
);
},
{
closed = 1;
nodes = (
"30 120 LINE",
"210 120 LINE",
"210 140 LINE",
"30 140 LINE"
);
},
{
closed = 1;
nodes = (
"209 80 LINE",
"210 81 LINE",
"201 90 LINE",
"190 80 LINE",
"201 70 LINE",
"210 79 LINE"
);
}
);
width = 240;
},
{
layerId = "43180DBC-A696-476D-8635-86ED5F988BC9";
paths = (
{
closed = 1;
nodes = (
"160 20 LINE",
"160 40 LINE",
"30 40 LINE",
"30 20 LINE"
);
},
{
closed = 1;
nodes = (
"130 70 LINE",
"130 90 LINE",
"30 90 LINE",
"30 70 LINE"
);
},
{
closed = 1;
nodes = (
"30 120 LINE",
"160 120 LINE",
"160 140 LINE",
"30 140 LINE"
);
},
{
closed = 1;
nodes = (
"174 80 LINE",
"210 116 LINE",
"196 130 LINE",
"146 80 LINE",
"196 30 LINE",
"210 44 LINE"
);
}
);
width = 240;
},
{
associatedMasterId = "374D6CB2-7ECF-4C4C-B17A-FDC7D09CFFBE";
layerId = "C0D5765A-AAE7-45D6-918B-461E6DAC27C9";
name = "{37}";
paths = (
{
closed = 1;
nodes = (
"210 20 LINE",
"210 40 LINE",
"30 40 LINE",
"30 20 LINE"
);
},
{
closed = 1;
nodes = (
"180 70 LINE",
"180 90 LINE",
"30 90 LINE",
"30 70 LINE"
);
},
{
closed = 1;
nodes = (
"30 120 LINE",
"210 120 LINE",
"210 140 LINE",
"30 140 LINE"
);
},
{
closed = 1;
nodes = (
"209 80 LINE",
"210 81 LINE",
"201 90 LINE",
"190 80 LINE",
"201 70 LINE",
"210 79 LINE"
);
}
);
width = 240;
}
);
unicode = 0031;
},
{
glyphname = two;
lastChange = "2019-09-05 04:01:01 +0000";
layers = (
{
layerId = "374D6CB2-7ECF-4C4C-B17A-FDC7D09CFFBE";
paths = (
{
closed = 1;
nodes = (
"210 20 LINE",
"210 40 LINE",
"30 40 LINE",
"30 20 LINE"
);
},
{
closed = 1;
nodes = (
"210 70 LINE",
"210 90 LINE",
"30 90 LINE",
"30 70 LINE"
);
},
{
closed = 1;
nodes = (
"30 120 LINE",
"210 120 LINE",
"210 140 LINE",
"30 140 LINE"
);
},
{
closed = 1;
nodes = (
"209 80 LINE",
"210 81 LINE",
"201 90 LINE",
"190 80 LINE",
"201 70 LINE",
"210 79 LINE"
);
}
);
width = 240;
},
{
layerId = "43180DBC-A696-476D-8635-86ED5F988BC9";
paths = (
{
closed = 1;
nodes = (
"130 20 LINE",
"130 40 LINE",
"124 40 LINE",
"124 20 LINE"
);
},
{
closed = 1;
nodes = (
"96 70 LINE",
"96 90 LINE",
"90 90 LINE",
"90 70 LINE"
);
},
{
closed = 1;
nodes = (
"124 120 LINE",
"129 120 LINE",
"129 140 LINE",
"124 140 LINE"
);
},
{
closed = 1;
nodes = (
"96 79 LINE",
"177 160 LINE",
"159 178 LINE",
"60 79 LINE",
"159 -20 LINE",
"177 -2 LINE"
);
}
);
width = 240;
},
{
associatedMasterId = "374D6CB2-7ECF-4C4C-B17A-FDC7D09CFFBE";
layerId = "949C381D-85EC-4B9D-BD3B-4690030DC408";
name = "{60}";
paths = (
{
closed = 1;
nodes = (
"163 20 LINE",
"163 40 LINE",
"157 40 LINE",
"157 20 LINE"
);
},
{
closed = 1;
nodes = (
"129 70 LINE",
"129 90 LINE",
"123 90 LINE",
"123 70 LINE"
);
},
{
closed = 1;
nodes = (
"157 120 LINE",
"162 120 LINE",
"162 140 LINE",
"157 140 LINE"
);
},
{
closed = 1;
nodes = (
"129 79 LINE",
"210 160 LINE",
"192 178 LINE",
"93 79 LINE",
"192 -20 LINE",
"210 -2 LINE"
);
}
);
width = 240;
}
);
unicode = 0032;
},
{
glyphname = three;
lastChange = "2019-09-05 04:01:24 +0000";
layers = (
{
layerId = "374D6CB2-7ECF-4C4C-B17A-FDC7D09CFFBE";
paths = (
{
closed = 1;
nodes = (
"210 20 LINE",
"210 40 LINE",
"30 40 LINE",
"30 20 LINE"
);
},
{
closed = 1;
nodes = (
"210 70 LINE",
"210 90 LINE",
"30 90 LINE",
"30 70 LINE"
);
},
{
closed = 1;
nodes = (
"30 120 LINE",
"210 120 LINE",
"210 140 LINE",
"30 140 LINE"
);
}
);
width = 240;
},
{
layerId = "43180DBC-A696-476D-8635-86ED5F988BC9";
paths = (
{
closed = 1;
nodes = (
"176 10 LINE",
"190 24 LINE",
"64 150 LINE",
"50 136 LINE"
);
},
{
closed = 1;
nodes = (
"130 70 LINE",
"130 90 LINE",
"110 90 LINE",
"110 70 LINE"
);
},
{
closed = 1;
nodes = (
"64 10 LINE",
"190 136 LINE",
"176 150 LINE",
"50 24 LINE"
);
}
);
width = 240;
}
);
unicode = 0033;
},
{
glyphname = four;
lastChange = "2019-09-05 04:01:32 +0000";
layers = (
{
layerId = "374D6CB2-7ECF-4C4C-B17A-FDC7D09CFFBE";
paths = (
{
closed = 1;
nodes = (
"210 20 LINE",
"210 40 LINE",
"30 40 LINE",
"30 20 LINE"
);
},
{
closed = 1;
nodes = (
"210 70 LINE",
"210 90 LINE",
"30 90 LINE",
"30 70 LINE"
);
},
{
closed = 1;
nodes = (
"30 120 LINE",
"210 120 LINE",
"210 140 LINE",
"30 140 LINE"
);
}
);
width = 240;
},
{
layerId = "43180DBC-A696-476D-8635-86ED5F988BC9";
paths = (
{
closed = 1;
nodes = (
"210 20 LINE",
"210 40 LINE",
"30 40 LINE",
"30 20 LINE"
);
},
{
closed = 1;
nodes = (
"210 70 LINE",
"210 90 LINE",
"30 90 LINE",
"30 70 LINE"
);
},
{
closed = 1;
nodes = (
"30 120 LINE",
"210 120 LINE",
"210 140 LINE",
"30 140 LINE"
);
}
);
width = 240;
},
{
associatedMasterId = "374D6CB2-7ECF-4C4C-B17A-FDC7D09CFFBE";
layerId = "25C50D7E-1CC2-42B3-80B4-8655EC92B8BA";
name = "{17}";
paths = (
{
closed = 1;
nodes = (
"210 20 LINE",
"210 40 LINE",
"130 40 LINE",
"130 20 LINE"
);
},
{
closed = 1;
nodes = (
"210 70 LINE",
"210 90 LINE",
"80 90 LINE",
"80 70 LINE"
);
},
{
closed = 1;
nodes = (
"30 120 LINE",
"210 120 LINE",
"210 140 LINE",
"30 140 LINE"
);
}
);
width = 240;
},
{
associatedMasterId = "374D6CB2-7ECF-4C4C-B17A-FDC7D09CFFBE";
layerId = "70A7BF85-E24E-4802-ACDD-27155F3AA41F";
name = "{33}";
paths = (
{
closed = 1;
nodes = (
"210 20 LINE",
"210 40 LINE",
"130 40 LINE",
"130 20 LINE"
);
},
{
closed = 1;
nodes = (
"210 70 LINE",
"210 90 LINE",
"130 90 LINE",
"130 70 LINE"
);
},
{
closed = 1;
nodes = (
"80 120 LINE",
"210 120 LINE",
"210 140 LINE",
"80 140 LINE"
);
}
);
width = 240;
},
{
associatedMasterId = "374D6CB2-7ECF-4C4C-B17A-FDC7D09CFFBE";
layerId = "1BE469C1-BE0D-4947-BAB0-68C3D3C9E9DE";
name = "{50}";
paths = (
{
closed = 1;
nodes = (
"210 20 LINE",
"210 40 LINE",
"130 40 LINE",
"130 20 LINE"
);
},
{
closed = 1;
nodes = (
"210 70 LINE",
"210 90 LINE",
"130 90 LINE",
"130 70 LINE"
);
},
{
closed = 1;
nodes = (
"130 120 LINE",
"210 120 LINE",
"210 140 LINE",
"130 140 LINE"
);
}
);
width = 240;
},
{
associatedMasterId = "374D6CB2-7ECF-4C4C-B17A-FDC7D09CFFBE";
layerId = "8CAA9E36-513D-429C-B444-02FB56313BD6";
name = "{67}";
paths = (
{
closed = 1;
nodes = (
"210 20 LINE",
"210 40 LINE",
"80 40 LINE",
"80 20 LINE"
);
},
{
closed = 1;
nodes = (
"210 70 LINE",
"210 90 LINE",
"130 90 LINE",
"130 70 LINE"
);
},
{
closed = 1;
nodes = (
"130 120 LINE",
"210 120 LINE",
"210 140 LINE",
"130 140 LINE"
);
}
);
width = 240;
},
{
associatedMasterId = "374D6CB2-7ECF-4C4C-B17A-FDC7D09CFFBE";
layerId = "AB7EC077-60C6-4EC5-BAD1-1103FA0D7D2B";
name = "{83}";
paths = (
{
closed = 1;
nodes = (
"210 20 LINE",
"210 40 LINE",
"30 40 LINE",
"30 20 LINE"
);
},
{
closed = 1;
nodes = (
"210 70 LINE",
"210 90 LINE",
"80 90 LINE",
"80 70 LINE"
);
},
{
closed = 1;
nodes = (
"130 120 LINE",
"210 120 LINE",
"210 140 LINE",
"130 140 LINE"
);
}
);
width = 240;
}
);
unicode = 0034;
},
{
glyphname = five;
lastChange = "2019-09-05 04:04:15 +0000";
layers = (
{
layerId = "374D6CB2-7ECF-4C4C-B17A-FDC7D09CFFBE";
paths = (
{
closed = 1;
nodes = (
"210 20 LINE",
"210 40 LINE",
"30 40 LINE",
"30 20 LINE"
);
},
{
closed = 1;
nodes = (
"210 70 LINE",
"210 90 LINE",
"30 90 LINE",
"30 70 LINE"
);
},
{
closed = 1;
nodes = (
"30 120 LINE",
"210 120 LINE",
"210 140 LINE",
"30 140 LINE"
);
}
);
width = 240;
},
{
layerId = "43180DBC-A696-476D-8635-86ED5F988BC9";
paths = (
{
closed = 1;
nodes = (
"127 75 LINE",
"127 77 LINE",
"113 77 LINE",
"113 75 LINE"
);
},
{
closed = 1;
nodes = (
"127 79 LINE",
"127 81 LINE",
"113 81 LINE",
"113 79 LINE"
);
},
{
closed = 1;
nodes = (
"113 83 LINE",
"127 83 LINE",
"127 85 LINE",
"113 85 LINE"
);
}
);
width = 240;
},
{
associatedMasterId = "374D6CB2-7ECF-4C4C-B17A-FDC7D09CFFBE";
layerId = "CF1F52E6-920C-4CA2-992B-EA22DEB9F600";
name = "Origin [99]";
width = 240;
},
{
associatedMasterId = "43180DBC-A696-476D-8635-86ED5F988BC9";
layerId = "F1D6DFCE-A49C-44C6-B3AA-3117F2937383";
name = "Target [99]";
width = 240;
}
);
unicode = 0035;
},
{
glyphname = six;
lastChange = "2019-09-05 05:35:42 +0000";
layers = (
{
layerId = "374D6CB2-7ECF-4C4C-B17A-FDC7D09CFFBE";
paths = (
{
closed = 1;
nodes = (
"30 90 LINE",
"30 89 OFFCURVE",
"30 82 OFFCURVE",
"30 81 CURVE",
"30 80 LINE",
"30 79 OFFCURVE",
"30 71 OFFCURVE",
"30 70 CURVE",
"210 70 LINE",
"210 71 OFFCURVE",
"210 79 OFFCURVE",
"210 80 CURVE SMOOTH",
"210 81 LINE SMOOTH",
"210 82 OFFCURVE",
"210 89 OFFCURVE",
"210 90 CURVE"
);
},
{
closed = 1;
nodes = (
"30 140 LINE",
"30 139 OFFCURVE",
"30 132 OFFCURVE",
"30 131 CURVE",
"30 130 LINE",
"30 129 OFFCURVE",
"30 121 OFFCURVE",
"30 120 CURVE",
"210 120 LINE",
"210 121 OFFCURVE",
"210 129 OFFCURVE",
"210 130 CURVE SMOOTH",
"210 131 LINE SMOOTH",
"210 132 OFFCURVE",
"210 139 OFFCURVE",
"210 140 CURVE"
);
},
{
closed = 1;
nodes = (
"30 40 LINE",
"30 39 OFFCURVE",
"30 32 OFFCURVE",
"30 31 CURVE",
"30 30 LINE",
"30 29 OFFCURVE",
"30 21 OFFCURVE",
"30 20 CURVE",
"210 20 LINE",
"210 21 OFFCURVE",
"210 29 OFFCURVE",
"210 30 CURVE SMOOTH",
"210 31 LINE SMOOTH",
"210 32 OFFCURVE",
"210 39 OFFCURVE",
"210 40 CURVE"
);
}
);
width = 240;
},
{
layerId = "43180DBC-A696-476D-8635-86ED5F988BC9";
paths = (
{
closed = 1;
nodes = (
"120 120 LINE",
"98 120 OFFCURVE",
"80 102 OFFCURVE",
"80 80 CURVE",
"80 80 LINE",
"80 58 OFFCURVE",
"98 40 OFFCURVE",
"120 40 CURVE",
"120 40 LINE",
"142 40 OFFCURVE",
"160 58 OFFCURVE",
"160 80 CURVE SMOOTH",
"160 80 LINE SMOOTH",
"160 102 OFFCURVE",
"142 120 OFFCURVE",
"120 120 CURVE"
);
},
{
closed = 1;
nodes = (
"120 119 LINE",
"98 119 OFFCURVE",
"81 102 OFFCURVE",
"81 80 CURVE",
"81 80 LINE",
"81 58 OFFCURVE",
"98 41 OFFCURVE",
"120 41 CURVE",
"120 41 LINE",
"142 41 OFFCURVE",
"159 58 OFFCURVE",
"159 80 CURVE SMOOTH",
"159 80 LINE SMOOTH",
"159 102 OFFCURVE",
"142 119 OFFCURVE",
"120 119 CURVE"
);
},
{
closed = 1;
nodes = (
"120 118 LINE",
"99 118 OFFCURVE",
"82 101 OFFCURVE",
"82 80 CURVE",
"82 80 LINE",
"82 59 OFFCURVE",
"99 42 OFFCURVE",
"120 42 CURVE",
"120 42 LINE",
"141 42 OFFCURVE",
"158 59 OFFCURVE",
"158 80 CURVE SMOOTH",
"158 80 LINE SMOOTH",
"158 101 OFFCURVE",
"141 118 OFFCURVE",
"120 118 CURVE"
);
}
);
width = 240;
},
{
associatedMasterId = "374D6CB2-7ECF-4C4C-B17A-FDC7D09CFFBE";
layerId = "F90E4BD1-916E-4174-B62C-20B9019D2E65";
name = "{80}";
paths = (
{
closed = 1;
nodes = (
"120 120 LINE",
"98 120 OFFCURVE",
"80 102 OFFCURVE",
"80 80 CURVE",
"80 80 LINE",
"80 58 OFFCURVE",
"98 40 OFFCURVE",
"120 40 CURVE",
"120 40 LINE",
"142 41 OFFCURVE",
"160 58 OFFCURVE",
"160 80 CURVE SMOOTH",
"160 80 LINE SMOOTH",
"160 102 OFFCURVE",
"142 120 OFFCURVE",
"120 120 CURVE"
);
},
{
closed = 1;
nodes = (
"120 170 LINE",
"98 170 OFFCURVE",
"80 152 OFFCURVE",
"80 130 CURVE",
"80 130 LINE",
"80 108 OFFCURVE",
"98 90 OFFCURVE",
"120 90 CURVE",
"120 90 LINE",
"142 90 OFFCURVE",
"160 108 OFFCURVE",
"160 130 CURVE SMOOTH",
"160 130 LINE SMOOTH",
"160 152 OFFCURVE",
"142 170 OFFCURVE",
"120 170 CURVE"
);
},
{
closed = 1;
nodes = (
"120 70 LINE",
"98 70 OFFCURVE",
"80 52 OFFCURVE",
"80 30 CURVE",
"80 30 LINE",
"80 8 OFFCURVE",
"98 -10 OFFCURVE",
"120 -10 CURVE",
"120 -10 LINE",
"142 -10 OFFCURVE",
"160 8 OFFCURVE",
"160 30 CURVE SMOOTH",
"160 30 LINE SMOOTH",
"160 52 OFFCURVE",
"142 70 OFFCURVE",
"120 70 CURVE"
);
}
);
width = 240;
}
);
unicode = 0036;
},
{
glyphname = period;
lastChange = "2019-09-05 05:02:29 +0000";
layers = (
{
layerId = "374D6CB2-7ECF-4C4C-B17A-FDC7D09CFFBE";
paths = (
{
closed = 1;
nodes = (
"131 -20 OFFCURVE",
"140 -11 OFFCURVE",
"140 0 CURVE",
"100 0 LINE",
"100 -11 OFFCURVE",
"109 -20 OFFCURVE",
"120 -20 CURVE"
);
},
{
closed = 1;
nodes = (
"180 90 LINE",
"180 120 OFFCURVE",
"164 146 OFFCURVE",
"135 153 CURVE",
"135 160 LINE",
"135 168 OFFCURVE",
"128 175 OFFCURVE",
"120 175 CURVE",
"112 175 OFFCURVE",
"105 168 OFFCURVE",
"105 160 CURVE",
"105 153 LINE",
"76 146 OFFCURVE",
"60 120 OFFCURVE",
"60 90 CURVE",
"60 40 LINE",
"40 20 LINE",
"40 10 LINE",
"200 10 LINE",
"200 20 LINE",
"180 40 LINE"
);
},
{
closed = 1;
nodes = (
"117 68 LINE",
"145 68 LINE",
"145 50 LINE",
"95 50 LINE",
"95 68 LINE",
"123 102 LINE",
"95 102 LINE",
"95 120 LINE",
"145 120 LINE",
"145 102 LINE"
);
},
{
closed = 1;
nodes = (
"94 101 LINE",
"146 101 LINE",
"146 121 LINE",
"94 121 LINE"
);
},
{
closed = 1;
nodes = (
"94 67 LINE",
"146 67 LINE",
"146 102 LINE",
"94 102 LINE"
);
},
{
closed = 1;
nodes = (
"94 49 LINE",
"146 49 LINE",
"146 69 LINE",
"94 69 LINE"
);
}
);
width = 240;
},
{
layerId = "43180DBC-A696-476D-8635-86ED5F988BC9";
paths = (
{
closed = 1;
nodes = (
"131 -20 OFFCURVE",
"140 -11 OFFCURVE",
"140 0 CURVE",
"100 0 LINE",
"100 -11 OFFCURVE",
"109 -20 OFFCURVE",
"120 -20 CURVE"
);
},
{
closed = 1;
nodes = (
"180 90 LINE",
"180 120 OFFCURVE",
"164 146 OFFCURVE",
"135 153 CURVE",
"135 160 LINE",
"135 168 OFFCURVE",
"128 175 OFFCURVE",
"120 175 CURVE",
"112 175 OFFCURVE",
"105 168 OFFCURVE",
"105 160 CURVE",
"105 153 LINE",
"76 146 OFFCURVE",
"60 120 OFFCURVE",
"60 90 CURVE",
"60 40 LINE",
"40 20 LINE",
"40 10 LINE",
"200 10 LINE",
"200 20 LINE",
"180 40 LINE"
);
},
{
closed = 1;
nodes = (
"117 68 LINE",
"145 68 LINE",
"145 50 LINE",
"95 50 LINE",
"95 68 LINE",
"123 102 LINE",
"95 102 LINE",
"95 120 LINE",
"145 120 LINE",
"145 102 LINE"
);
},
{
closed = 1;
nodes = (
"145 101 LINE",
"146 101 LINE",
"146 121 LINE",
"145 121 LINE"
);
},
{
closed = 1;
nodes = (
"145 67 LINE",
"146 67 LINE",
"146 68 LINE",
"145 68 LINE"
);
},
{
closed = 1;
nodes = (
"145 49 LINE",
"146 49 LINE",
"146 69 LINE",
"145 69 LINE"
);
}
);
width = 240;
},
{
associatedMasterId = "374D6CB2-7ECF-4C4C-B17A-FDC7D09CFFBE";
layerId = "19623D89-52AF-42AA-9B32-1B407889AD63";
name = "{30}";
paths = (
{
closed = 1;
nodes = (
"131 -20 OFFCURVE",
"140 -11 OFFCURVE",
"140 0 CURVE",
"100 0 LINE",
"100 -11 OFFCURVE",
"109 -20 OFFCURVE",
"120 -20 CURVE"
);
},
{
closed = 1;
nodes = (
"180 90 LINE",
"180 120 OFFCURVE",
"164 146 OFFCURVE",
"135 153 CURVE",
"135 160 LINE",
"135 168 OFFCURVE",
"128 175 OFFCURVE",
"120 175 CURVE",
"112 175 OFFCURVE",
"105 168 OFFCURVE",
"105 160 CURVE",
"105 153 LINE",
"76 146 OFFCURVE",
"60 120 OFFCURVE",
"60 90 CURVE",
"60 40 LINE",
"40 20 LINE",
"40 10 LINE",
"200 10 LINE",
"200 20 LINE",
"180 40 LINE"
);
},
{
closed = 1;
nodes = (
"117 68 LINE",
"145 68 LINE",
"145 50 LINE",
"95 50 LINE",
"95 68 LINE",
"123 102 LINE",
"95 102 LINE",
"95 120 LINE",
"145 120 LINE",
"145 102 LINE"
);
},
{
closed = 1;
nodes = (
"145 101 LINE",
"146 101 LINE",
"146 121 LINE",
"145 121 LINE"
);
},
{
closed = 1;
nodes = (
"94 67 LINE",
"146 67 LINE",
"146 102 LINE",
"94 102 LINE"
);
},
{
closed = 1;
nodes = (
"94 49 LINE",
"146 49 LINE",
"146 69 LINE",
"94 69 LINE"
);
}
);
width = 240;
},
{
associatedMasterId = "374D6CB2-7ECF-4C4C-B17A-FDC7D09CFFBE";
layerId = "7E77B930-C371-482B-B3AA-B5800FB993B9";
name = "{70}";
paths = (
{
closed = 1;
nodes = (
"131 -20 OFFCURVE",
"140 -11 OFFCURVE",
"140 0 CURVE",
"100 0 LINE",
"100 -11 OFFCURVE",
"109 -20 OFFCURVE",
"120 -20 CURVE"
);
},
{
closed = 1;
nodes = (
"180 90 LINE",
"180 120 OFFCURVE",
"164 146 OFFCURVE",
"135 153 CURVE",
"135 160 LINE",
"135 168 OFFCURVE",
"128 175 OFFCURVE",
"120 175 CURVE",
"112 175 OFFCURVE",
"105 168 OFFCURVE",
"105 160 CURVE",
"105 153 LINE",
"76 146 OFFCURVE",
"60 120 OFFCURVE",
"60 90 CURVE",
"60 40 LINE",
"40 20 LINE",
"40 10 LINE",
"200 10 LINE",
"200 20 LINE",
"180 40 LINE"
);
},
{
closed = 1;
nodes = (
"117 68 LINE",
"145 68 LINE",
"145 50 LINE",
"95 50 LINE",
"95 68 LINE",
"123 102 LINE",
"95 102 LINE",
"95 120 LINE",
"145 120 LINE",
"145 102 LINE"
);
},
{
closed = 1;
nodes = (
"145 101 LINE",
"146 101 LINE",
"146 121 LINE",
"145 121 LINE"
);
},
{
closed = 1;
nodes = (
"94 67 LINE",
"146 67 LINE",
"146 68 LINE",
"94 68 LINE"
);
},
{
closed = 1;
nodes = (
"94 49 LINE",
"146 49 LINE",
"146 69 LINE",
"94 69 LINE"
);
}
);
width = 240;
}
);
unicode = 002E;
},
{
glyphname = comma;
lastChange = "2019-09-05 04:53:09 +0000";
layers = (
{
layerId = "374D6CB2-7ECF-4C4C-B17A-FDC7D09CFFBE";
paths = (
{
closed = 1;
nodes = (
"131 -20 OFFCURVE",
"140 -11 OFFCURVE",
"140 0 CURVE",
"100 0 LINE",
"100 -11 OFFCURVE",
"109 -20 OFFCURVE",
"120 -20 CURVE"
);
},
{
closed = 1;
nodes = (
"180 90 LINE",
"180 121 OFFCURVE",
"163 147 OFFCURVE",
"135 154 CURVE",
"135 160 LINE",
"135 169 OFFCURVE",
"128 175 OFFCURVE",
"120 175 CURVE",
"111 175 OFFCURVE",
"105 169 OFFCURVE",
"105 160 CURVE",
"105 154 LINE",
"76 147 OFFCURVE",
"60 121 OFFCURVE",
"60 90 CURVE",
"60 40 LINE",
"40 20 LINE",
"40 10 LINE",
"200 10 LINE",
"200 20 LINE",
"180 40 LINE"
);
},
{
closed = 1;
nodes = (
"80 30 LINE",
"80 90 LINE",
"80 115 OFFCURVE",
"95 135 OFFCURVE",
"120 135 CURVE",
"144 135 OFFCURVE",
"160 115 OFFCURVE",
"160 90 CURVE",
"160 30 LINE"
);
}
);
width = 240;
},
{
layerId = "43180DBC-A696-476D-8635-86ED5F988BC9";
paths = (
{
closed = 1;
nodes = (
"131 -20 OFFCURVE",
"140 -11 OFFCURVE",
"140 0 CURVE",
"100 0 LINE",
"100 -11 OFFCURVE",
"109 -20 OFFCURVE",
"120 -20 CURVE"
);
},
{
closed = 1;
nodes = (
"180 90 LINE",
"180 121 OFFCURVE",
"164 146 OFFCURVE",
"135 153 CURVE",
"135 160 LINE",
"135 168 OFFCURVE",
"128 175 OFFCURVE",
"120 175 CURVE",
"112 175 OFFCURVE",
"105 168 OFFCURVE",
"105 160 CURVE",
"105 153 LINE",
"76 146 OFFCURVE",
"60 121 OFFCURVE",
"60 90 CURVE",
"60 40 LINE",
"40 20 LINE",
"40 10 LINE",
"200 10 LINE",
"200 20 LINE",
"180 40 LINE"
);
},
{
closed = 1;
nodes = (
"118 80 LINE",
"118 83 LINE",
"118 84 OFFCURVE",
"119 85 OFFCURVE",
"120 85 CURVE",
"121 85 OFFCURVE",
"122 84 OFFCURVE",
"122 83 CURVE",
"122 80 LINE"
);
}
);
width = 240;
},
{
associatedMasterId = "374D6CB2-7ECF-4C4C-B17A-FDC7D09CFFBE";
layerId = "09A928B4-9355-4522-8D2C-1C5D0ADAC2FA";
name = "Orign [99]";
paths = (
{
closed = 1;
nodes = (
"131 -20 OFFCURVE",
"140 -11 OFFCURVE",
"140 0 CURVE",
"100 0 LINE",
"100 -11 OFFCURVE",
"109 -20 OFFCURVE",
"120 -20 CURVE"
);
},
{
closed = 1;
nodes = (
"180 90 LINE",
"180 121 OFFCURVE",
"164 146 OFFCURVE",
"135 153 CURVE",
"135 160 LINE",
"135 168 OFFCURVE",
"128 175 OFFCURVE",
"120 175 CURVE",
"112 175 OFFCURVE",
"105 168 OFFCURVE",
"105 160 CURVE",
"105 153 LINE",
"76 146 OFFCURVE",
"60 121 OFFCURVE",
"60 90 CURVE",
"60 40 LINE",
"40 20 LINE",
"40 10 LINE",
"200 10 LINE",
"200 20 LINE",
"180 40 LINE"
);
}
);
width = 240;
},
{
associatedMasterId = "43180DBC-A696-476D-8635-86ED5F988BC9";
layerId = "0A9B6883-454B-4C1A-9A00-49FD5FEDDB85";
name = "Target [99]";
paths = (
{
closed = 1;
nodes = (
"131 -20 OFFCURVE",
"140 -11 OFFCURVE",
"140 0 CURVE",
"100 0 LINE",
"100 -11 OFFCURVE",
"109 -20 OFFCURVE",
"120 -20 CURVE"
);
},
{
closed = 1;
nodes = (
"180 90 LINE",
"180 121 OFFCURVE",
"164 146 OFFCURVE",
"135 153 CURVE",
"135 160 LINE",
"135 168 OFFCURVE",
"128 175 OFFCURVE",
"120 175 CURVE",
"112 175 OFFCURVE",
"105 168 OFFCURVE",
"105 160 CURVE",
"105 153 LINE",
"76 146 OFFCURVE",
"60 121 OFFCURVE",
"60 90 CURVE",
"60 40 LINE",
"40 20 LINE",
"40 10 LINE",
"200 10 LINE",
"200 20 LINE",
"180 40 LINE"
);
}
);
width = 240;
}
);
unicode = 002C;
},
{
glyphname = semicolon;
lastChange = "2019-09-05 06:06:37 +0000";
layers = (
{
layerId = "374D6CB2-7ECF-4C4C-B17A-FDC7D09CFFBE";
paths = (
{
closed = 1;
nodes = (
"131 -20 OFFCURVE",
"140 -11 OFFCURVE",
"140 0 CURVE",
"100 0 LINE",
"100 -11 OFFCURVE",
"109 -20 OFFCURVE",
"120 -20 CURVE"
);
},
{
closed = 1;
nodes = (
"180 90 LINE",
"180 120 OFFCURVE",
"164 146 OFFCURVE",
"135 153 CURVE",
"135 160 LINE",
"135 168 OFFCURVE",
"128 175 OFFCURVE",
"120 175 CURVE",
"112 175 OFFCURVE",
"105 168 OFFCURVE",
"105 160 CURVE",
"105 153 LINE",
"76 146 OFFCURVE",
"60 120 OFFCURVE",
"60 90 CURVE",
"60 40 LINE",
"40 20 LINE",
"40 10 LINE",
"200 10 LINE",
"200 20 LINE",
"180 40 LINE"
);
}
);
width = 240;
},
{
layerId = "43180DBC-A696-476D-8635-86ED5F988BC9";
paths = (
{
closed = 1;
nodes = (
"121 72 OFFCURVE",
"121 73 OFFCURVE",
"121 73 CURVE",
"119 73 LINE",
"119 73 OFFCURVE",
"119 72 OFFCURVE",
"120 72 CURVE"
);
},
{
closed = 1;
nodes = (
"124 78 LINE",
"124 80 OFFCURVE",
"123 82 OFFCURVE",
"121 82 CURVE",
"121 83 LINE",
"121 83 OFFCURVE",
"120 83 OFFCURVE",
"120 83 CURVE",
"120 83 OFFCURVE",
"119 83 OFFCURVE",
"119 83 CURVE",
"119 82 LINE",
"117 82 OFFCURVE",
"116 80 OFFCURVE",
"116 78 CURVE",
"116 75 LINE",
"115 74 LINE",
"115 74 LINE",
"125 74 LINE",
"125 74 LINE",
"124 75 LINE"
);
}
);
width = 240;
},
{
associatedMasterId = "43180DBC-A696-476D-8635-86ED5F988BC9";
layerId = "D2CE2657-7C47-4D71-B06E-075E679678CC";
name = "Target [99]";
width = 240;
},
{
associatedMasterId = "374D6CB2-7ECF-4C4C-B17A-FDC7D09CFFBE";
layerId = "5AE9473B-D3D0-41C2-B5BA-677FCB152C56";
name = "Origin [99]";
width = 240;
}
);
unicode = 003B;
},
{
glyphname = exclam;
lastChange = "2019-09-05 06:03:09 +0000";
layers = (
{
layerId = "374D6CB2-7ECF-4C4C-B17A-FDC7D09CFFBE";
paths = (
{
closed = 1;
nodes = (
"131 -20 OFFCURVE",
"140 -11 OFFCURVE",
"140 0 CURVE",
"100 0 LINE",
"100 -11 OFFCURVE",
"109 -20 OFFCURVE",
"120 -20 CURVE"
);
},
{
closed = 1;
nodes = (
"180 90 LINE",
"180 120 OFFCURVE",
"164 146 OFFCURVE",
"135 153 CURVE",
"135 160 LINE",
"135 168 OFFCURVE",
"128 175 OFFCURVE",
"120 175 CURVE",
"112 175 OFFCURVE",
"105 168 OFFCURVE",
"105 160 CURVE",
"105 153 LINE",
"76 146 OFFCURVE",
"60 120 OFFCURVE",
"60 90 CURVE",
"60 40 LINE",
"40 20 LINE",
"40 10 LINE",
"200 10 LINE",
"200 20 LINE",
"180 40 LINE"
);
}
);
width = 240;
},
{
layerId = "43180DBC-A696-476D-8635-86ED5F988BC9";
paths = (
{
closed = 1;
nodes = (
"142 40 OFFCURVE",
"160 58 OFFCURVE",
"160 80 CURVE",
"80 80 LINE",
"80 58 OFFCURVE",
"98 40 OFFCURVE",
"120 40 CURVE"
);
},
{
closed = 1;
nodes = (
"160 80 LINE",
"160 100 OFFCURVE",
"146 114 OFFCURVE",
"130 119 CURVE",
"129 119 LINE",
"126 120 OFFCURVE",
"123 120 OFFCURVE",
"120 120 CURVE",
"117 120 OFFCURVE",
"114 120 OFFCURVE",
"111 119 CURVE",
"110 119 LINE",
"94 114 OFFCURVE",
"80 100 OFFCURVE",
"80 80 CURVE",
"81 80 LINE",
"82 80 LINE",
"83 80 LINE",
"157 80 LINE",
"158 80 LINE",
"159 80 LINE"
);
}
);
width = 240;
},
{
associatedMasterId = "43180DBC-A696-476D-8635-86ED5F988BC9";
layerId = "D2CE2657-7C47-4D71-B06E-075E679678CC";
name = "Target [99]";
paths = (
{
closed = 1;
nodes = (
"142 40 OFFCURVE",
"160 58 OFFCURVE",
"160 80 CURVE SMOOTH",
"160 102 OFFCURVE",
"142 120 OFFCURVE",
"120 120 CURVE SMOOTH",
"98 120 OFFCURVE",
"80 102 OFFCURVE",
"80 80 CURVE SMOOTH",
"80 58 OFFCURVE",
"98 40 OFFCURVE",
"120 40 CURVE SMOOTH"
);
}
);
width = 240;
},
{
associatedMasterId = "374D6CB2-7ECF-4C4C-B17A-FDC7D09CFFBE";
layerId = "5AE9473B-D3D0-41C2-B5BA-677FCB152C56";
name = "Origin [99]";
paths = (
{
closed = 1;
nodes = (
"142 40 OFFCURVE",
"160 58 OFFCURVE",
"160 80 CURVE SMOOTH",
"160 102 OFFCURVE",
"142 120 OFFCURVE",
"120 120 CURVE SMOOTH",
"98 120 OFFCURVE",
"80 102 OFFCURVE",
"80 80 CURVE SMOOTH",
"80 58 OFFCURVE",
"98 40 OFFCURVE",
"120 40 CURVE SMOOTH"
);
}
);
width = 240;
}
);
unicode = 0021;
},
{
glyphname = question;
lastChange = "2019-09-05 05:30:26 +0000";
layers = (
{
layerId = "374D6CB2-7ECF-4C4C-B17A-FDC7D09CFFBE";
paths = (
{
closed = 1;
nodes = (
"131 -20 OFFCURVE",
"140 -11 OFFCURVE",
"140 0 CURVE",
"100 0 LINE",
"100 -11 OFFCURVE",
"109 -20 OFFCURVE",
"120 -20 CURVE"
);
},
{
closed = 1;
nodes = (
"180 90 LINE",
"180 120 OFFCURVE",
"164 146 OFFCURVE",
"135 153 CURVE",
"135 160 LINE",
"135 168 OFFCURVE",
"128 175 OFFCURVE",
"120 175 CURVE",
"112 175 OFFCURVE",
"105 168 OFFCURVE",
"105 160 CURVE",
"105 153 LINE",
"76 146 OFFCURVE",
"60 120 OFFCURVE",
"60 90 CURVE",
"60 40 LINE",
"40 20 LINE",
"40 10 LINE",
"200 10 LINE",
"200 20 LINE",
"180 40 LINE"
);
}
);
width = 240;
},
{
layerId = "43180DBC-A696-476D-8635-86ED5F988BC9";
paths = (
{
closed = 1;
nodes = (
"131 -20 OFFCURVE",
"140 -11 OFFCURVE",
"140 0 CURVE",
"100 0 LINE",
"100 -11 OFFCURVE",
"109 -20 OFFCURVE",
"120 -20 CURVE"
);
},
{
closed = 1;
nodes = (
"180 90 LINE",
"180 120 OFFCURVE",
"164 146 OFFCURVE",
"135 153 CURVE",
"135 160 LINE",
"135 168 OFFCURVE",
"128 175 OFFCURVE",
"120 175 CURVE",
"112 175 OFFCURVE",
"105 168 OFFCURVE",
"105 160 CURVE",
"105 153 LINE",
"76 146 OFFCURVE",
"60 120 OFFCURVE",
"60 90 CURVE",
"60 40 LINE",
"40 20 LINE",
"40 10 LINE",
"200 10 LINE",
"200 20 LINE",
"180 40 LINE"
);
}
);
width = 240;
},
{
associatedMasterId = "374D6CB2-7ECF-4C4C-B17A-FDC7D09CFFBE";
layerId = "2A28040C-2519-48FC-9CB2-6F3BE7127AF3";
name = "{35}";
paths = (
{
closed = 1;
nodes = (
"197 -4 OFFCURVE",
"202 7 OFFCURVE",
"199 17 CURVE",
"161 4 LINE",
"165 -7 OFFCURVE",
"176 -12 OFFCURVE",
"187 -8 CURVE"
);
},
{
closed = 1;
nodes = (
"205 116 LINE",
"195 144 OFFCURVE",
"171 163 OFFCURVE",
"142 159 CURVE",
"139 166 LINE",
"136 174 OFFCURVE",
"128 178 OFFCURVE",
"120 175 CURVE",
"112 172 OFFCURVE",
"108 163 OFFCURVE",
"111 156 CURVE",
"113 149 LINE",
"89 133 OFFCURVE",
"82 103 OFFCURVE",
"93 75 CURVE",
"110 28 LINE",
"98 2 LINE",
"101 -7 LINE",
"252 47 LINE",
"248 57 LINE",
"223 69 LINE"
);
}
);
width = 240;
},
{
associatedMasterId = "374D6CB2-7ECF-4C4C-B17A-FDC7D09CFFBE";
layerId = "3B85A2DC-807A-4A82-8208-F7AFFEB32312";
name = "{45}";
paths = (
{
closed = 1;
nodes = (
"153 -17 OFFCURVE",
"160 -7 OFFCURVE",
"158 4 CURVE",
"119 -3 LINE",
"121 -14 OFFCURVE",
"131 -21 OFFCURVE",
"142 -19 CURVE"
);
},
{
closed = 1;
nodes = (
"194 102 LINE",
"189 131 OFFCURVE",
"168 154 OFFCURVE",
"139 156 CURVE",
"137 163 LINE",
"136 171 OFFCURVE",
"128 176 OFFCURVE",
"120 175 CURVE",
"112 174 OFFCURVE",
"106 166 OFFCURVE",
"108 158 CURVE",
"109 151 LINE",
"82 139 OFFCURVE",
"70 110 OFFCURVE",
"76 81 CURVE",
"84 32 LINE",
"68 8 LINE",
"70 -1 LINE",
"227 26 LINE",
"226 36 LINE",
"203 52 LINE"
);
}
);
width = 240;
},
{
associatedMasterId = "374D6CB2-7ECF-4C4C-B17A-FDC7D09CFFBE";
layerId = "06A97CE9-F7D4-44D5-BAEF-91CC73585BF2";
name = "{55}";
paths = (
{
closed = 1;
nodes = (
"106 -20 OFFCURVE",
"115 -11 OFFCURVE",
"115 0 CURVE",
"75 0 LINE",
"75 -11 OFFCURVE",
"84 -20 OFFCURVE",
"95 -20 CURVE"
);
},
{
closed = 1;
nodes = (
"180 90 LINE",
"180 120 OFFCURVE",
"164 146 OFFCURVE",
"135 153 CURVE",
"135 160 LINE",
"135 168 OFFCURVE",
"128 175 OFFCURVE",
"120 175 CURVE",
"112 175 OFFCURVE",
"105 168 OFFCURVE",
"105 160 CURVE",
"105 153 LINE",
"76 146 OFFCURVE",
"60 120 OFFCURVE",
"60 90 CURVE",
"60 40 LINE",
"40 20 LINE",
"40 10 LINE",
"200 10 LINE",
"200 20 LINE",
"180 40 LINE"
);
}
);
width = 240;
},
{
associatedMasterId = "374D6CB2-7ECF-4C4C-B17A-FDC7D09CFFBE";
layerId = "88C45F0C-2F58-45E3-91FD-B32BDF175826";
name = "{65}";
paths = (
{
closed = 1;
nodes = (
"44 -7 OFFCURVE",
"55 -1 OFFCURVE",
"58 10 CURVE",
"19 20 LINE",
"17 10 OFFCURVE",
"23 -2 OFFCURVE",
"34 -4 CURVE"
);
},
{
closed = 1;
nodes = (
"156 77 LINE",
"164 106 OFFCURVE",
"155 136 OFFCURVE",
"129 150 CURVE",
"131 157 LINE",
"133 164 OFFCURVE",
"128 173 OFFCURVE",
"120 175 CURVE",
"112 177 OFFCURVE",
"104 172 OFFCURVE",
"102 164 CURVE",
"100 158 LINE",
"70 158 OFFCURVE",
"48 137 OFFCURVE",
"40 108 CURVE",
"27 60 LINE",
"3 46 LINE",
"0 36 LINE",
"155 -5 LINE",
"157 5 LINE",
"143 29 LINE"
);
}
);
width = 240;
},
{
associatedMasterId = "374D6CB2-7ECF-4C4C-B17A-FDC7D09CFFBE";
layerId = "0251037C-D284-448D-A0AC-09D5035BE506";
name = "{75}";
paths = (
{
closed = 1;
nodes = (
"118 -22 OFFCURVE",
"128 -15 OFFCURVE",
"130 -4 CURVE",
"91 3 LINE",
"89 -8 OFFCURVE",
"96 -18 OFFCURVE",
"107 -20 CURVE"
);
},
{
closed = 1;
nodes = (
"164 81 LINE",
"170 110 OFFCURVE",
"158 139 OFFCURVE",
"131 151 CURVE",
"132 158 LINE",
"134 166 OFFCURVE",
"128 174 OFFCURVE",
"120 175 CURVE",
"112 176 OFFCURVE",
"104 171 OFFCURVE",
"103 163 CURVE",
"101 156 LINE",
"72 154 OFFCURVE",
"51 131 OFFCURVE",
"46 102 CURVE",
"37 52 LINE",
"14 36 LINE",
"13 26 LINE",
"170 -1 LINE",
"172 8 LINE",
"156 32 LINE"
);
}
);
width = 240;
},
{
associatedMasterId = "374D6CB2-7ECF-4C4C-B17A-FDC7D09CFFBE";
layerId = "125D2029-1BB5-4DF7-899C-18C3FADFAC3C";
name = "{85}";
paths = (
{
closed = 1;
nodes = (
"192 -13 OFFCURVE",
"200 -3 OFFCURVE",
"198 8 CURVE",
"158 3 LINE",
"160 -8 OFFCURVE",
"170 -16 OFFCURVE",
"181 -15 CURVE"
);
},
{
closed = 1;
nodes = (
"190 98 LINE",
"186 128 OFFCURVE",
"167 152 OFFCURVE",
"138 155 CURVE",
"137 162 LINE",
"136 170 OFFCURVE",
"128 176 OFFCURVE",
"120 175 CURVE",
"112 174 OFFCURVE",
"106 166 OFFCURVE",
"107 158 CURVE",
"108 151 LINE",
"80 141 OFFCURVE",
"67 113 OFFCURVE",
"71 83 CURVE",
"77 34 LINE",
"59 11 LINE",
"61 1 LINE",
"220 21 LINE",
"218 31 LINE",
"196 48 LINE"
);
}
);
width = 240;
}
);
unicode = 003F;
},
{
glyphname = plus;
lastChange = "2019-09-05 07:05:24 +0000";
layers = (
{
layerId = "374D6CB2-7ECF-4C4C-B17A-FDC7D09CFFBE";
paths = (
{
closed = 1;
nodes = (
"48 80 LINE",
"34 66 LINE",
"90 10 LINE",
"210 130 LINE",
"196 144 LINE",
"90 38 LINE"
);
}
);
width = 240;
},
{
layerId = "43180DBC-A696-476D-8635-86ED5F988BC9";
paths = (
{
closed = 1;
nodes = (
"118 82 LINE",
"117 81 LINE",
"120 78 LINE",
"123 81 LINE",
"122 82 LINE",
"120 84 LINE"
);
}
);
width = 240;
},
{
associatedMasterId = "374D6CB2-7ECF-4C4C-B17A-FDC7D09CFFBE";
layerId = "FB704C80-C814-444B-89DC-83214397DE3D";
name = "Origin [99]";
width = 240;
},
{
associatedMasterId = "43180DBC-A696-476D-8635-86ED5F988BC9";
layerId = "10D86CA8-F467-4EB3-B6C3-2DFABED6C62C";
name = "Target [99]";
width = 240;
}
);
unicode = 002B;
},
{
glyphname = minus;
lastChange = "2019-09-05 07:33:57 +0000";
layers = (
{
layerId = "374D6CB2-7ECF-4C4C-B17A-FDC7D09CFFBE";
paths = (
{
closed = 1;
nodes = (
"89 39 OFFCURVE",
"49 79 OFFCURVE",
"48 80 CURVE",
"47 79 OFFCURVE",
"35 67 OFFCURVE",
"34 66 CURVE",
"35 65 OFFCURVE",
"89 11 OFFCURVE",
"90 10 CURVE",
"91 11 OFFCURVE",
"209 129 OFFCURVE",
"210 130 CURVE",
"209 131 OFFCURVE",
"197 143 OFFCURVE",
"196 144 CURVE",
"188 136 OFFCURVE",
"91 39 OFFCURVE",
"90 38 CURVE"
);
}
);
width = 240;
},
{
layerId = "43180DBC-A696-476D-8635-86ED5F988BC9";
paths = (
{
closed = 1;
nodes = (
"106 120 OFFCURVE",
"93 112 OFFCURVE",
"86 101 CURVE",
"78 89 OFFCURVE",
"78 71 OFFCURVE",
"86 59 CURVE",
"93 48 OFFCURVE",
"106 40 OFFCURVE",
"120 40 CURVE",
"134 40 OFFCURVE",
"147 48 OFFCURVE",
"154 59 CURVE",
"162 71 OFFCURVE",
"162 89 OFFCURVE",
"154 101 CURVE",
"147 112 OFFCURVE",
"134 120 OFFCURVE",
"120 120 CURVE SMOOTH"
);
}
);
width = 240;
}
);
unicode = 2212;
},
{
glyphname = equal;
lastChange = "2019-09-05 08:17:01 +0000";
layers = (
{
layerId = "374D6CB2-7ECF-4C4C-B17A-FDC7D09CFFBE";
paths = (
{
closed = 1;
nodes = (
"30 -10 LINE",
"68 -10 LINE",
"178 101 LINE",
"141 138 LINE",
"30 28 LINE"
);
},
{
closed = 1;
nodes = (
"189 111 LINE",
"151 149 LINE",
"170 167 LINE",
"174 171 OFFCURVE",
"180 171 OFFCURVE",
"184 167 CURVE",
"207 144 LINE",
"211 140 OFFCURVE",
"211 134 OFFCURVE",
"207 130 CURVE"
);
}
);
width = 240;
},
{
layerId = "43180DBC-A696-476D-8635-86ED5F988BC9";
paths = (
{
closed = 1;
nodes = (
"115 75 LINE",
"117 75 LINE",
"123 81 LINE",
"121 83 LINE",
"115 77 LINE"
);
},
{
closed = 1;
nodes = (
"124 82 LINE",
"122 84 LINE",
"123 85 LINE",
"123 85 OFFCURVE",
"123 85 OFFCURVE",
"124 85 CURVE",
"125 84 LINE",
"125 83 OFFCURVE",
"125 83 OFFCURVE",
"125 83 CURVE"
);
}
);
width = 240;
},
{
associatedMasterId = "374D6CB2-7ECF-4C4C-B17A-FDC7D09CFFBE";
layerId = "7BF7367D-CE3C-4C35-A40B-28001CF77B2E";
name = "Origin [99]";
width = 240;
},
{
associatedMasterId = "43180DBC-A696-476D-8635-86ED5F988BC9";
layerId = "CAE0331F-2058-4750-B125-2E7D4EF37A9A";
name = "Target [99]";
width = 240;
}
);
unicode = 003D;
},
{
glyphname = greater;
lastChange = "2019-09-05 07:34:21 +0000";
layers = (
{
layerId = "374D6CB2-7ECF-4C4C-B17A-FDC7D09CFFBE";
paths = (
{
closed = 1;
nodes = (
"20 140 LINE",
"20 120 LINE",
"140 120 LINE",
"140 140 LINE"
);
},
{
closed = 1;
nodes = (
"20 100 LINE",
"20 80 LINE",
"140 80 LINE",
"140 100 LINE"
);
},
{
closed = 1;
nodes = (
"100 40 LINE",
"100 60 LINE",
"20 60 LINE",
"20 40 LINE"
);
},
{
closed = 1;
nodes = (
"160 0 LINE",
"180 0 LINE",
"180 100 LINE",
"160 100 LINE"
);
},
{
closed = 1;
nodes = (
"120 40 LINE",
"220 40 LINE",
"220 60 LINE",
"120 60 LINE"
);
},
{
closed = 1;
nodes = (
"170 35 LINE",
"185 50 LINE",
"170 65 LINE",
"155 50 LINE"
);
},
{
closed = 1;
nodes = (
"170 35 LINE",
"185 50 LINE",
"170 65 LINE",
"155 50 LINE"
);
}
);
width = 240;
},
{
layerId = "43180DBC-A696-476D-8635-86ED5F988BC9";
paths = (
{
closed = 1;
nodes = (
"20 140 LINE",
"20 120 LINE",
"140 120 LINE",
"140 140 LINE"
);
},
{
closed = 1;
nodes = (
"20 100 LINE",
"20 80 LINE",
"140 80 LINE",
"140 100 LINE"
);
},
{
closed = 1;
nodes = (
"100 40 LINE",
"100 60 LINE",
"20 60 LINE",
"20 40 LINE"
);
},
{
closed = 1;
nodes = (
"120 42 LINE",
"140 42 LINE",
"140 48 LINE",
"120 48 LINE"
);
},
{
closed = 1;
nodes = (
"127 35 LINE",
"133 35 LINE",
"133 55 LINE",
"127 55 LINE"
);
},
{
closed = 1;
nodes = (
"160 0 LINE",
"175 15 LINE",
"130 60 LINE",
"115 45 LINE"
);
},
{
closed = 1;
nodes = (
"160 0 LINE",
"230 70 LINE",
"215 85 LINE",
"145 15 LINE"
);
}
);
width = 240;
},
{
associatedMasterId = "374D6CB2-7ECF-4C4C-B17A-FDC7D09CFFBE";
layerId = "1B2DE136-C79E-4C53-AA43-70A67042C8CF";
name = "{20}";
paths = (
{
closed = 1;
nodes = (
"20 140 LINE",
"20 120 LINE",
"140 120 LINE",
"140 140 LINE"
);
},
{
closed = 1;
nodes = (
"20 100 LINE",
"20 80 LINE",
"140 80 LINE",
"140 100 LINE"
);
},
{
closed = 1;
nodes = (
"140 40 LINE",
"140 60 LINE",
"20 60 LINE",
"20 40 LINE"
);
},
{
closed = 1;
nodes = (
"160 47 LINE",
"180 47 LINE",
"180 53 LINE",
"160 53 LINE"
);
},
{
closed = 1;
nodes = (
"167 40 LINE",
"173 40 LINE",
"173 60 LINE",
"167 60 LINE"
);
},
{
closed = 1;
nodes = (
"170 35 LINE",
"185 50 LINE",
"170 65 LINE",
"155 50 LINE"
);
},
{
closed = 1;
nodes = (
"170 35 LINE",
"185 50 LINE",
"170 65 LINE",
"155 50 LINE"
);
}
);
width = 240;
},
{
associatedMasterId = "374D6CB2-7ECF-4C4C-B17A-FDC7D09CFFBE";
layerId = "4E6F3B78-C14E-41F7-A857-D78D0D5888DC";
name = "{60}";
paths = (
{
closed = 1;
nodes = (
"20 140 LINE",
"20 120 LINE",
"140 120 LINE",
"140 140 LINE"
);
},
{
closed = 1;
nodes = (
"20 100 LINE",
"20 80 LINE",
"140 80 LINE",
"140 100 LINE"
);
},
{
closed = 1;
nodes = (
"140 40 LINE",
"140 60 LINE",
"20 60 LINE",
"20 40 LINE"
);
},
{
closed = 1;
nodes = (
"160 42 LINE",
"180 42 LINE",
"180 48 LINE",
"160 48 LINE"
);
},
{
closed = 1;
nodes = (
"167 35 LINE",
"173 35 LINE",
"173 55 LINE",
"167 55 LINE"
);
},
{
closed = 1;
nodes = (
"200 0 LINE",
"215 15 LINE",
"170 60 LINE",
"155 45 LINE"
);
},
{
closed = 1;
nodes = (
"200 0 LINE",
"215 15 LINE",
"200 30 LINE",
"185 15 LINE"
);
}
);
width = 240;
}
);
unicode = 003E;
},
{
glyphname = less;
lastChange = "2019-09-05 07:09:45 +0000";
layers = (
{
layerId = "374D6CB2-7ECF-4C4C-B17A-FDC7D09CFFBE";
paths = (
{
closed = 1;
nodes = (
"110 10 LINE",
"130 10 LINE",
"130 150 LINE",
"110 150 LINE"
);
},
{
closed = 1;
nodes = (
"50 70 LINE",
"190 70 LINE",
"190 90 LINE",
"50 90 LINE"
);
},
{
closed = 1;
nodes = (
"120 66 LINE",
"134 80 LINE",
"120 94 LINE",
"106 80 LINE"
);
},
{
closed = 1;
nodes = (
"120 66 LINE",
"134 80 LINE",
"120 94 LINE",
"106 80 LINE"
);
}
);
width = 240;
},
{
layerId = "43180DBC-A696-476D-8635-86ED5F988BC9";
paths = (
{
closed = 1;
nodes = (
"80 21 LINE",
"100 21 LINE",
"100 27 LINE",
"80 27 LINE"
);
},
{
closed = 1;
nodes = (
"87 14 LINE",
"93 14 LINE",
"93 34 LINE",
"87 34 LINE"
);
},
{
closed = 1;
nodes = (
"90 10 LINE",
"104 24 LINE",
"48 80 LINE",
"34 66 LINE"
);
},
{
closed = 1;
nodes = (
"90 10 LINE",
"210 130 LINE",
"196 144 LINE",
"76 24 LINE"
);
}
);
width = 240;
},
{
associatedMasterId = "374D6CB2-7ECF-4C4C-B17A-FDC7D09CFFBE";
layerId = "AC86F367-F855-489F-8AF5-E8588470BAFE";
name = "{20}";
paths = (
{
closed = 1;
nodes = (
"110 77 LINE",
"130 77 LINE",
"130 83 LINE",
"110 83 LINE"
);
},
{
closed = 1;
nodes = (
"117 70 LINE",
"123 70 LINE",
"123 90 LINE",
"117 90 LINE"
);
},
{
closed = 1;
nodes = (
"120 66 LINE",
"134 80 LINE",
"120 94 LINE",
"106 80 LINE"
);
},
{
closed = 1;
nodes = (
"120 66 LINE",
"134 80 LINE",
"120 94 LINE",
"106 80 LINE"
);
}
);
width = 240;
},
{
associatedMasterId = "374D6CB2-7ECF-4C4C-B17A-FDC7D09CFFBE";
layerId = "1FDE9094-11D3-40A7-98E3-9F9D2FB6480C";
name = "{60}";
paths = (
{
closed = 1;
nodes = (
"152 21 LINE",
"172 21 LINE",
"172 27 LINE",
"152 27 LINE"
);
},
{
closed = 1;
nodes = (
"159 14 LINE",
"165 14 LINE",
"165 34 LINE",
"159 34 LINE"
);
},
{
closed = 1;
nodes = (
"162 10 LINE",
"176 24 LINE",
"120 80 LINE",
"106 66 LINE"
);
},
{
closed = 1;
nodes = (
"162 10 LINE",
"176 24 LINE",
"162 38 LINE",
"148 24 LINE"
);
}
);
width = 240;
}
);
unicode = 003C;
},
{
glyphname = asciicircum;
lastChange = "2019-09-05 07:53:45 +0000";
layers = (
{
layerId = "374D6CB2-7ECF-4C4C-B17A-FDC7D09CFFBE";
paths = (
{
closed = 1;
nodes = (
"211 134 OFFCURVE",
"211 140 OFFCURVE",
"207 144 CURVE",
"184 167 LINE",
"180 171 OFFCURVE",
"174 171 OFFCURVE",
"170 167 CURVE",
"151 149 LINE",
"189 111 LINE",
"207 130 LINE"
);
},
{
closed = 1;
nodes = (
"30 -10 LINE",
"68 -10 LINE",
"178 101 LINE",
"141 138 LINE",
"30 28 LINE"
);
},
{
closed = 1;
nodes = (
"120 66 LINE",
"134 80 LINE",
"120 94 LINE",
"106 80 LINE"
);
},
{
closed = 1;
nodes = (
"120 66 LINE",
"134 80 LINE",
"120 94 LINE",
"106 80 LINE"
);
}
);
width = 240;
},
{
associatedMasterId = "374D6CB2-7ECF-4C4C-B17A-FDC7D09CFFBE";
layerId = "6B1A34F3-AB8B-4E54-9C84-275B69C7CE4A";
name = "{50}";
paths = (
{
closed = 1;
nodes = (
"133 79 OFFCURVE",
"133 80 OFFCURVE",
"131 82 CURVE",
"122 91 LINE",
"120 93 OFFCURVE",
"119 93 OFFCURVE",
"117 91 CURVE",
"116 90 LINE",
"130 76 LINE",
"131 77 LINE"
);
},
{
closed = 1;
nodes = (
"113 73 LINE",
"120 66 LINE",
"131 77 LINE",
"117 91 LINE",
"106 80 LINE"
);
},
{
closed = 1;
nodes = (
"120 66 LINE",
"134 80 LINE",
"120 94 LINE",
"106 80 LINE"
);
},
{
closed = 1;
nodes = (
"120 66 LINE",
"134 80 LINE",
"120 94 LINE",
"106 80 LINE"
);
}
);
width = 240;
},
{
layerId = "43180DBC-A696-476D-8635-86ED5F988BC9";
paths = (
{
closed = 1;
nodes = (
"61 65 OFFCURVE",
"61 66 OFFCURVE",
"59 68 CURVE",
"50 77 LINE",
"48 79 OFFCURVE",
"47 79 OFFCURVE",
"45 77 CURVE",
"44 76 LINE",
"58 62 LINE",
"59 63 LINE"
);
},
{
closed = 1;
nodes = (
"41 59 LINE",
"48 52 LINE",
"59 63 LINE",
"45 77 LINE",
"34 66 LINE"
);
},
{
closed = 1;
nodes = (
"90 10 LINE",
"104 24 LINE",
"48 80 LINE",
"34 66 LINE"
);
},
{
closed = 1;
nodes = (
"90 10 LINE",
"210 130 LINE",
"196 144 LINE",
"76 24 LINE"
);
}
);
width = 240;
},
{
associatedMasterId = "374D6CB2-7ECF-4C4C-B17A-FDC7D09CFFBE";
layerId = "F954C36D-FBC7-4D4B-9E6F-72AC2D23F968";
name = "{70}";
paths = (
{
closed = 1;
nodes = (
"133 79 OFFCURVE",
"133 80 OFFCURVE",
"131 82 CURVE",
"122 91 LINE",
"120 93 OFFCURVE",
"119 93 OFFCURVE",
"117 91 CURVE",
"116 90 LINE",
"130 76 LINE",
"131 77 LINE"
);
},
{
closed = 1;
nodes = (
"113 73 LINE",
"120 66 LINE",
"131 77 LINE",
"117 91 LINE",
"106 80 LINE"
);
},
{
closed = 1;
nodes = (
"162 24 LINE",
"176 38 LINE",
"120 94 LINE",
"106 80 LINE"
);
},
{
closed = 1;
nodes = (
"162 24 LINE",
"176 38 LINE",
"162 52 LINE",
"148 38 LINE"
);
}
);
width = 240;
}
);
unicode = 005E;
},
{
glyphname = at;
lastChange = "2019-09-05 08:13:50 +0000";
layers = (
{
layerId = "374D6CB2-7ECF-4C4C-B17A-FDC7D09CFFBE";
paths = (
{
closed = 1;
nodes = (
"211 134 OFFCURVE",
"211 140 OFFCURVE",
"207 144 CURVE",
"184 167 LINE",
"180 171 OFFCURVE",
"174 171 OFFCURVE",
"170 167 CURVE",
"151 149 LINE",
"189 111 LINE",
"207 130 LINE"
);
},
{
closed = 1;
nodes = (
"140 137 OFFCURVE",
"31 29 OFFCURVE",
"30 28 CURVE",
"30 27 OFFCURVE",
"30 -9 OFFCURVE",
"30 -10 CURVE",
"31 -10 OFFCURVE",
"67 -10 OFFCURVE",
"68 -10 CURVE",
"69 -9 OFFCURVE",
"177 100 OFFCURVE",
"178 101 CURVE",
"141 138 LINE"
);
}
);
width = 240;
},
{
layerId = "43180DBC-A696-476D-8635-86ED5F988BC9";
paths = (
{
closed = 1;
nodes = (
"164 67 OFFCURVE",
"164 93 OFFCURVE",
"149 107 CURVE",
"148 108 LINE",
"133 124 OFFCURVE",
"107 124 OFFCURVE",
"92 108 CURVE",
"93 107 LINE",
"147 53 LINE",
"148 52 LINE"
);
},
{
closed = 1;
nodes = (
"81 96 OFFCURVE",
"77 79 OFFCURVE",
"83 65 CURVE",
"85 60 OFFCURVE",
"88 56 OFFCURVE",
"92 52 CURVE",
"96 49 OFFCURVE",
"100 46 OFFCURVE",
"104 44 CURVE",
"119 37 OFFCURVE",
"136 40 OFFCURVE",
"148 52 CURVE",
"92 108 LINE"
);
}
);
width = 240;
}
);
unicode = 0040;
},
{
glyphname = _greater.optionB;
lastChange = "2019-09-05 07:34:56 +0000";
layers = (
{
layerId = "374D6CB2-7ECF-4C4C-B17A-FDC7D09CFFBE";
paths = (
{
closed = 1;
nodes = (
"20 140 LINE",
"20 120 LINE",
"140 120 LINE",
"140 140 LINE"
);
},
{
closed = 1;
nodes = (
"20 100 LINE",
"20 80 LINE",
"140 80 LINE",
"140 100 LINE"
);
},
{
closed = 1;
nodes = (
"100 40 LINE",
"100 60 LINE",
"20 60 LINE",
"20 40 LINE"
);
},
{
closed = 1;
nodes = (
"160 0 LINE",
"180 0 LINE",
"180 100 LINE",
"160 100 LINE"
);
},
{
closed = 1;
nodes = (
"120 40 LINE",
"220 40 LINE",
"220 60 LINE",
"120 60 LINE"
);
},
{
closed = 1;
nodes = (
"170 35 LINE",
"185 50 LINE",
"170 65 LINE",
"155 50 LINE"
);
},
{
closed = 1;
nodes = (
"170 35 LINE",
"185 50 LINE",
"170 65 LINE",
"155 50 LINE"
);
}
);
width = 240;
},
{
layerId = "43180DBC-A696-476D-8635-86ED5F988BC9";
paths = (
{
closed = 1;
nodes = (
"20 140 LINE",
"20 120 LINE",
"140 120 LINE",
"140 140 LINE"
);
},
{
closed = 1;
nodes = (
"20 100 LINE",
"20 80 LINE",
"140 80 LINE",
"140 100 LINE"
);
},
{
closed = 1;
nodes = (
"100 40 LINE",
"100 60 LINE",
"20 60 LINE",
"20 40 LINE"
);
},
{
closed = 1;
nodes = (
"120 42 LINE",
"140 42 LINE",
"140 48 LINE",
"120 48 LINE"
);
},
{
closed = 1;
nodes = (
"127 35 LINE",
"133 35 LINE",
"133 55 LINE",
"127 55 LINE"
);
},
{
closed = 1;
nodes = (
"160 0 LINE",
"175 15 LINE",
"130 60 LINE",
"115 45 LINE"
);
},
{
closed = 1;
nodes = (
"160 0 LINE",
"230 70 LINE",
"215 85 LINE",
"145 15 LINE"
);
}
);
width = 240;
},
{
associatedMasterId = "374D6CB2-7ECF-4C4C-B17A-FDC7D09CFFBE";
layerId = "1B2DE136-C79E-4C53-AA43-70A67042C8CF";
name = "{20}";
paths = (
{
closed = 1;
nodes = (
"20 140 LINE",
"20 120 LINE",
"140 120 LINE",
"140 140 LINE"
);
},
{
closed = 1;
nodes = (
"20 100 LINE",
"20 80 LINE",
"140 80 LINE",
"140 100 LINE"
);
},
{
closed = 1;
nodes = (
"140 40 LINE",
"140 60 LINE",
"20 60 LINE",
"20 40 LINE"
);
},
{
closed = 1;
nodes = (
"160 47 LINE",
"180 47 LINE",
"180 53 LINE",
"160 53 LINE"
);
},
{
closed = 1;
nodes = (
"167 40 LINE",
"173 40 LINE",
"173 60 LINE",
"167 60 LINE"
);
},
{
closed = 1;
nodes = (
"170 35 LINE",
"185 50 LINE",
"170 65 LINE",
"155 50 LINE"
);
},
{
closed = 1;
nodes = (
"170 35 LINE",
"185 50 LINE",
"170 65 LINE",
"155 50 LINE"
);
}
);
width = 240;
},
{
associatedMasterId = "374D6CB2-7ECF-4C4C-B17A-FDC7D09CFFBE";
layerId = "4E6F3B78-C14E-41F7-A857-D78D0D5888DC";
name = "{60}";
paths = (
{
closed = 1;
nodes = (
"20 140 LINE",
"20 120 LINE",
"140 120 LINE",
"140 140 LINE"
);
},
{
closed = 1;
nodes = (
"20 100 LINE",
"20 80 LINE",
"140 80 LINE",
"140 100 LINE"
);
},
{
closed = 1;
nodes = (
"140 40 LINE",
"140 60 LINE",
"20 60 LINE",
"20 40 LINE"
);
},
{
closed = 1;
nodes = (
"160 42 LINE",
"180 42 LINE",
"180 48 LINE",
"160 48 LINE"
);
},
{
closed = 1;
nodes = (
"167 35 LINE",
"173 35 LINE",
"173 55 LINE",
"167 55 LINE"
);
},
{
closed = 1;
nodes = (
"200 0 LINE",
"215 15 LINE",
"170 60 LINE",
"155 45 LINE"
);
},
{
closed = 1;
nodes = (
"200 0 LINE",
"215 15 LINE",
"200 30 LINE",
"185 15 LINE"
);
}
);
width = 240;
}
);
},
{
glyphname = _less_optionB;
lastChange = "2019-09-05 06:48:36 +0000";
layers = (
{
layerId = "374D6CB2-7ECF-4C4C-B17A-FDC7D09CFFBE";
paths = (
{
closed = 1;
nodes = (
"110 10 LINE",
"130 10 LINE",
"130 150 LINE",
"110 150 LINE"
);
},
{
closed = 1;
nodes = (
"50 70 LINE",
"190 70 LINE",
"190 90 LINE",
"50 90 LINE"
);
}
);
width = 240;
},
{
layerId = "43180DBC-A696-476D-8635-86ED5F988BC9";
paths = (
{
closed = 1;
nodes = (
"90 10 LINE",
"104 24 LINE",
"48 80 LINE",
"34 66 LINE"
);
},
{
closed = 1;
nodes = (
"90 10 LINE",
"210 130 LINE",
"196 144 LINE",
"76 24 LINE"
);
}
);
width = 240;
},
{
associatedMasterId = "374D6CB2-7ECF-4C4C-B17A-FDC7D09CFFBE";
layerId = "AC86F367-F855-489F-8AF5-E8588470BAFE";
name = "{30}";
paths = (
{
closed = 1;
nodes = (
"120 66 LINE",
"134 80 LINE",
"120 94 LINE",
"106 80 LINE"
);
},
{
closed = 1;
nodes = (
"120 66 LINE",
"134 80 LINE",
"120 94 LINE",
"106 80 LINE"
);
}
);
width = 240;
},
{
associatedMasterId = "374D6CB2-7ECF-4C4C-B17A-FDC7D09CFFBE";
layerId = "1FDE9094-11D3-40A7-98E3-9F9D2FB6480C";
name = "{60}";
paths = (
{
closed = 1;
nodes = (
"162 10 LINE",
"176 24 LINE",
"120 80 LINE",
"106 66 LINE"
);
},
{
closed = 1;
nodes = (
"162 10 LINE",
"176 24 LINE",
"162 38 LINE",
"148 24 LINE"
);
}
);
width = 240;
}
);
},
{
glyphname = _semicolon.optionB;
lastChange = "2019-09-05 07:35:05 +0000";
layers = (
{
layerId = "374D6CB2-7ECF-4C4C-B17A-FDC7D09CFFBE";
paths = (
{
closed = 1;
nodes = (
"131 -20 OFFCURVE",
"140 -11 OFFCURVE",
"140 0 CURVE",
"100 0 LINE",
"100 -11 OFFCURVE",
"109 -20 OFFCURVE",
"120 -20 CURVE"
);
},
{
closed = 1;
nodes = (
"180 90 LINE",
"180 120 OFFCURVE",
"164 146 OFFCURVE",
"135 153 CURVE",
"135 160 LINE",
"135 168 OFFCURVE",
"128 175 OFFCURVE",
"120 175 CURVE",
"112 175 OFFCURVE",
"105 168 OFFCURVE",
"105 160 CURVE",
"105 153 LINE",
"76 146 OFFCURVE",
"60 120 OFFCURVE",
"60 90 CURVE",
"60 40 LINE",
"40 20 LINE",
"40 10 LINE",
"200 10 LINE",
"200 20 LINE",
"180 40 LINE"
);
}
);
width = 240;
},
{
layerId = "43180DBC-A696-476D-8635-86ED5F988BC9";
paths = (
{
closed = 1;
nodes = (
"123 75 OFFCURVE",
"125 77 OFFCURVE",
"125 80 CURVE",
"115 80 LINE",
"115 77 OFFCURVE",
"117 75 OFFCURVE",
"120 75 CURVE"
);
},
{
closed = 1;
nodes = (
"125 80 LINE",
"125 83 OFFCURVE",
"123 84 OFFCURVE",
"122 85 CURVE",
"121 85 LINE",
"121 85 OFFCURVE",
"120 85 OFFCURVE",
"120 85 CURVE",
"120 85 OFFCURVE",
"119 85 OFFCURVE",
"119 85 CURVE",
"118 85 LINE",
"117 84 OFFCURVE",
"115 83 OFFCURVE",
"115 80 CURVE",
"116 80 LINE",
"117 80 LINE",
"119 80 LINE",
"121 80 LINE",
"123 80 LINE",
"124 80 LINE"
);
}
);
width = 240;
},
{
associatedMasterId = "43180DBC-A696-476D-8635-86ED5F988BC9";
layerId = "D2CE2657-7C47-4D71-B06E-075E679678CC";
name = "Target [99]";
width = 240;
},
{
associatedMasterId = "374D6CB2-7ECF-4C4C-B17A-FDC7D09CFFBE";
layerId = "5AE9473B-D3D0-41C2-B5BA-677FCB152C56";
name = "Origin [99]";
width = 240;
}
);
},
{
glyphname = _six.optionB;
lastChange = "2019-09-05 07:35:10 +0000";
layers = (
{
layerId = "374D6CB2-7ECF-4C4C-B17A-FDC7D09CFFBE";
paths = (
{
closed = 1;
nodes = (
"30 90 LINE",
"30 89 OFFCURVE",
"30 82 OFFCURVE",
"30 81 CURVE",
"30 80 LINE",
"30 79 OFFCURVE",
"30 71 OFFCURVE",
"30 70 CURVE",
"210 70 LINE",
"210 71 OFFCURVE",
"210 79 OFFCURVE",
"210 80 CURVE SMOOTH",
"210 81 LINE SMOOTH",
"210 82 OFFCURVE",
"210 89 OFFCURVE",
"210 90 CURVE"
);
},
{
closed = 1;
nodes = (
"30 140 LINE",
"30 139 OFFCURVE",
"30 132 OFFCURVE",
"30 131 CURVE",
"30 130 LINE",
"30 129 OFFCURVE",
"30 121 OFFCURVE",
"30 120 CURVE",
"210 120 LINE",
"210 121 OFFCURVE",
"210 129 OFFCURVE",
"210 130 CURVE SMOOTH",
"210 131 LINE SMOOTH",
"210 132 OFFCURVE",
"210 139 OFFCURVE",
"210 140 CURVE"
);
},
{
closed = 1;
nodes = (
"30 40 LINE",
"30 39 OFFCURVE",
"30 32 OFFCURVE",
"30 31 CURVE",
"30 30 LINE",
"30 29 OFFCURVE",
"30 21 OFFCURVE",
"30 20 CURVE",
"210 20 LINE",
"210 21 OFFCURVE",
"210 29 OFFCURVE",
"210 30 CURVE SMOOTH",
"210 31 LINE SMOOTH",
"210 32 OFFCURVE",
"210 39 OFFCURVE",
"210 40 CURVE"
);
}
);
width = 240;
},
{
layerId = "43180DBC-A696-476D-8635-86ED5F988BC9";
paths = (
{
closed = 1;
nodes = (
"120 120 LINE",
"98 120 OFFCURVE",
"80 102 OFFCURVE",
"80 80 CURVE",
"80 80 LINE",
"80 58 OFFCURVE",
"98 40 OFFCURVE",
"120 40 CURVE",
"120 40 LINE",
"142 40 OFFCURVE",
"160 58 OFFCURVE",
"160 80 CURVE SMOOTH",
"160 80 LINE SMOOTH",
"160 102 OFFCURVE",
"142 120 OFFCURVE",
"120 120 CURVE"
);
},
{
closed = 1;
nodes = (
"120 86 LINE",
"117 86 OFFCURVE",
"115 84 OFFCURVE",
"115 81 CURVE",
"115 81 LINE",
"115 78 OFFCURVE",
"117 76 OFFCURVE",
"120 76 CURVE",
"120 76 LINE",
"123 76 OFFCURVE",
"125 78 OFFCURVE",
"125 81 CURVE SMOOTH",
"125 81 LINE SMOOTH",
"125 84 OFFCURVE",
"123 86 OFFCURVE",
"120 86 CURVE"
);
},
{
closed = 1;
nodes = (
"120 85 LINE",
"117 85 OFFCURVE",
"115 83 OFFCURVE",
"115 80 CURVE",
"115 80 LINE",
"115 77 OFFCURVE",
"117 75 OFFCURVE",
"120 75 CURVE",
"120 75 LINE",
"123 75 OFFCURVE",
"125 77 OFFCURVE",
"125 80 CURVE SMOOTH",
"125 80 LINE SMOOTH",
"125 83 OFFCURVE",
"123 85 OFFCURVE",
"120 85 CURVE"
);
}
);
width = 240;
}
);
},
{
glyphname = _six.optionC;
lastChange = "2019-09-05 07:35:14 +0000";
layers = (
{
layerId = "374D6CB2-7ECF-4C4C-B17A-FDC7D09CFFBE";
paths = (
{
closed = 1;
nodes = (
"209 90 LINE SMOOTH",
"209 90 OFFCURVE",
"31 90 OFFCURVE",
"30 90 CURVE",
"30 89 LINE",
"30 89 OFFCURVE",
"30 71 OFFCURVE",
"30 70 CURVE",
"31 70 LINE",
"31 70 OFFCURVE",
"209 70 OFFCURVE",
"210 70 CURVE",
"210 71 LINE SMOOTH",
"210 71 OFFCURVE",
"210 89 OFFCURVE",
"210 90 CURVE"
);
},
{
closed = 1;
nodes = (
"209 140 LINE SMOOTH",
"209 140 OFFCURVE",
"31 140 OFFCURVE",
"30 140 CURVE",
"30 139 LINE",
"30 139 OFFCURVE",
"30 121 OFFCURVE",
"30 120 CURVE",
"31 120 LINE",
"31 120 OFFCURVE",
"209 120 OFFCURVE",
"210 120 CURVE",
"210 121 LINE SMOOTH",
"210 121 OFFCURVE",
"210 139 OFFCURVE",
"210 140 CURVE"
);
},
{
closed = 1;
nodes = (
"209 40 LINE SMOOTH",
"209 40 OFFCURVE",
"31 40 OFFCURVE",
"30 40 CURVE",
"30 39 LINE",
"30 39 OFFCURVE",
"30 21 OFFCURVE",
"30 20 CURVE",
"31 20 LINE",
"31 20 OFFCURVE",
"209 20 OFFCURVE",
"210 20 CURVE",
"210 21 LINE SMOOTH",
"210 21 OFFCURVE",
"210 39 OFFCURVE",
"210 40 CURVE"
);
}
);
width = 240;
},
{
layerId = "43180DBC-A696-476D-8635-86ED5F988BC9";
paths = (
{
closed = 1;
nodes = (
"120 120 LINE",
"98 120 OFFCURVE",
"80 102 OFFCURVE",
"80 80 CURVE",
"80 80 LINE",
"80 58 OFFCURVE",
"98 40 OFFCURVE",
"120 40 CURVE",
"120 40 LINE",
"142 40 OFFCURVE",
"160 58 OFFCURVE",
"160 80 CURVE SMOOTH",
"160 80 LINE SMOOTH",
"160 102 OFFCURVE",
"142 120 OFFCURVE",
"120 120 CURVE"
);
},
{
closed = 1;
nodes = (
"120 93 LINE",
"113 93 OFFCURVE",
"108 88 OFFCURVE",
"108 81 CURVE",
"108 81 LINE",
"108 74 OFFCURVE",
"113 69 OFFCURVE",
"120 69 CURVE",
"120 69 LINE",
"127 69 OFFCURVE",
"132 74 OFFCURVE",
"132 81 CURVE SMOOTH",
"132 81 LINE SMOOTH",
"132 88 OFFCURVE",
"127 93 OFFCURVE",
"120 93 CURVE"
);
},
{
closed = 1;
nodes = (
"120 92 LINE",
"113 92 OFFCURVE",
"108 87 OFFCURVE",
"108 80 CURVE",
"108 80 LINE",
"108 73 OFFCURVE",
"113 68 OFFCURVE",
"120 68 CURVE",
"120 68 LINE",
"127 68 OFFCURVE",
"132 73 OFFCURVE",
"132 80 CURVE SMOOTH",
"132 80 LINE SMOOTH",
"132 87 OFFCURVE",
"127 92 OFFCURVE",
"120 92 CURVE"
);
}
);
width = 240;
}
);
},
{
glyphname = _four.optionB;
lastChange = "2019-09-05 07:35:17 +0000";
layers = (
{
layerId = "374D6CB2-7ECF-4C4C-B17A-FDC7D09CFFBE";
paths = (
{
closed = 1;
nodes = (
"210 20 LINE",
"210 40 LINE",
"30 40 LINE",
"30 20 LINE"
);
},
{
closed = 1;
nodes = (
"210 70 LINE",
"210 90 LINE",
"30 90 LINE",
"30 70 LINE"
);
},
{
closed = 1;
nodes = (
"30 120 LINE",
"210 120 LINE",
"210 140 LINE",
"30 140 LINE"
);
}
);
width = 240;
},
{
layerId = "43180DBC-A696-476D-8635-86ED5F988BC9";
paths = (
{
closed = 1;
nodes = (
"210 20 LINE",
"210 40 LINE",
"30 40 LINE",
"30 20 LINE"
);
},
{
closed = 1;
nodes = (
"210 70 LINE",
"210 90 LINE",
"30 90 LINE",
"30 70 LINE"
);
},
{
closed = 1;
nodes = (
"30 120 LINE",
"210 120 LINE",
"210 140 LINE",
"30 140 LINE"
);
}
);
width = 240;
},
{
associatedMasterId = "374D6CB2-7ECF-4C4C-B17A-FDC7D09CFFBE";
layerId = "25C50D7E-1CC2-42B3-80B4-8655EC92B8BA";
name = "{25}";
paths = (
{
closed = 1;
nodes = (
"210 20 LINE",
"210 40 LINE",
"130 40 LINE",
"130 20 LINE"
);
},
{
closed = 1;
nodes = (
"210 70 LINE",
"210 90 LINE",
"80 90 LINE",
"80 70 LINE"
);
},
{
closed = 1;
nodes = (
"30 120 LINE",
"210 120 LINE",
"210 140 LINE",
"30 140 LINE"
);
}
);
width = 240;
},
{
associatedMasterId = "374D6CB2-7ECF-4C4C-B17A-FDC7D09CFFBE";
layerId = "70A7BF85-E24E-4802-ACDD-27155F3AA41F";
name = "{50}";
paths = (
{
closed = 1;
nodes = (
"210 20 LINE",
"210 40 LINE",
"30 40 LINE",
"30 20 LINE"
);
},
{
closed = 1;
nodes = (
"210 70 LINE",
"210 90 LINE",
"130 90 LINE",
"130 70 LINE"
);
},
{
closed = 1;
nodes = (
"80 120 LINE",
"210 120 LINE",
"210 140 LINE",
"80 140 LINE"
);
}
);
width = 240;
},
{
associatedMasterId = "374D6CB2-7ECF-4C4C-B17A-FDC7D09CFFBE";
layerId = "1BE469C1-BE0D-4947-BAB0-68C3D3C9E9DE";
name = "{75}";
paths = (
{
closed = 1;
nodes = (
"210 20 LINE",
"210 40 LINE",
"80 40 LINE",
"80 20 LINE"
);
},
{
closed = 1;
nodes = (
"210 70 LINE",
"210 90 LINE",
"30 90 LINE",
"30 70 LINE"
);
},
{
closed = 1;
nodes = (
"130 120 LINE",
"210 120 LINE",
"210 140 LINE",
"130 140 LINE"
);
}
);
width = 240;
}
);
},
{
glyphname = _two.optionB;
lastChange = "2019-09-05 07:35:20 +0000";
layers = (
{
layerId = "374D6CB2-7ECF-4C4C-B17A-FDC7D09CFFBE";
paths = (
{
closed = 1;
nodes = (
"210 20 LINE",
"210 40 LINE",
"30 40 LINE",
"30 20 LINE"
);
},
{
closed = 1;
nodes = (
"210 70 LINE",
"210 90 LINE",
"30 90 LINE",
"30 70 LINE"
);
},
{
closed = 1;
nodes = (
"30 120 LINE",
"210 120 LINE",
"210 140 LINE",
"30 140 LINE"
);
},
{
closed = 1;
nodes = (
"209 80 LINE",
"210 81 LINE",
"201 90 LINE",
"190 80 LINE",
"201 70 LINE",
"210 79 LINE"
);
}
);
width = 240;
},
{
layerId = "43180DBC-A696-476D-8635-86ED5F988BC9";
paths = (
{
closed = 1;
nodes = (
"130 20 LINE",
"130 40 LINE",
"124 40 LINE",
"124 20 LINE"
);
},
{
closed = 1;
nodes = (
"96 70 LINE",
"96 90 LINE",
"90 90 LINE",
"90 70 LINE"
);
},
{
closed = 1;
nodes = (
"124 120 LINE",
"129 120 LINE",
"129 140 LINE",
"124 140 LINE"
);
},
{
closed = 1;
nodes = (
"96 79 LINE",
"177 160 LINE",
"159 178 LINE",
"60 79 LINE",
"159 -20 LINE",
"177 -2 LINE"
);
}
);
width = 240;
},
{
associatedMasterId = "374D6CB2-7ECF-4C4C-B17A-FDC7D09CFFBE";
layerId = "949C381D-85EC-4B9D-BD3B-4690030DC408";
name = "{40}";
paths = (
{
closed = 1;
nodes = (
"163 20 LINE",
"163 40 LINE",
"157 40 LINE",
"157 20 LINE"
);
},
{
closed = 1;
nodes = (
"129 70 LINE",
"129 90 LINE",
"123 90 LINE",
"123 70 LINE"
);
},
{
closed = 1;
nodes = (
"157 120 LINE",
"162 120 LINE",
"162 140 LINE",
"157 140 LINE"
);
},
{
closed = 1;
nodes = (
"129 79 LINE",
"210 160 LINE",
"192 178 LINE",
"93 79 LINE",
"192 -20 LINE",
"210 -2 LINE"
);
}
);
width = 240;
},
{
associatedMasterId = "374D6CB2-7ECF-4C4C-B17A-FDC7D09CFFBE";
layerId = "4D54AD67-694C-4F32-9B51-B214065FDB78";
name = "{80}";
paths = (
{
closed = 1;
nodes = (
"70 20 LINE",
"70 40 LINE",
"64 40 LINE",
"64 20 LINE"
);
},
{
closed = 1;
nodes = (
"36 70 LINE",
"36 90 LINE",
"30 90 LINE",
"30 70 LINE"
);
},
{
closed = 1;
nodes = (
"64 120 LINE",
"69 120 LINE",
"69 140 LINE",
"64 140 LINE"
);
},
{
closed = 1;
nodes = (
"36 79 LINE",
"117 160 LINE",
"99 178 LINE",
"0 79 LINE",
"99 -20 LINE",
"117 -2 LINE"
);
}
);
width = 240;
}
);
},
{
glyphname = _one.optionB;
lastChange = "2019-09-05 07:35:26 +0000";
layers = (
{
layerId = "374D6CB2-7ECF-4C4C-B17A-FDC7D09CFFBE";
paths = (
{
closed = 1;
nodes = (
"210 20 LINE",
"210 40 LINE",
"30 40 LINE",
"30 20 LINE"
);
},
{
closed = 1;
nodes = (
"210 70 LINE",
"210 90 LINE",
"30 90 LINE",
"30 70 LINE"
);
},
{
closed = 1;
nodes = (
"30 120 LINE",
"210 120 LINE",
"210 140 LINE",
"30 140 LINE"
);
},
{
closed = 1;
nodes = (
"209 80 LINE",
"210 81 LINE",
"201 90 LINE",
"190 80 LINE",
"201 70 LINE",
"210 79 LINE"
);
}
);
width = 240;
},
{
layerId = "43180DBC-A696-476D-8635-86ED5F988BC9";
paths = (
{
closed = 1;
nodes = (
"160 20 LINE",
"160 40 LINE",
"30 40 LINE",
"30 20 LINE"
);
},
{
closed = 1;
nodes = (
"130 70 LINE",
"130 90 LINE",
"30 90 LINE",
"30 70 LINE"
);
},
{
closed = 1;
nodes = (
"30 120 LINE",
"160 120 LINE",
"160 140 LINE",
"30 140 LINE"
);
},
{
closed = 1;
nodes = (
"174 80 LINE",
"210 116 LINE",
"196 130 LINE",
"146 80 LINE",
"196 30 LINE",
"210 44 LINE"
);
}
);
width = 240;
},
{
associatedMasterId = "374D6CB2-7ECF-4C4C-B17A-FDC7D09CFFBE";
layerId = "C0D5765A-AAE7-45D6-918B-461E6DAC27C9";
name = "{37}";
paths = (
{
closed = 1;
nodes = (
"210 20 LINE",
"210 40 LINE",
"30 40 LINE",
"30 20 LINE"
);
},
{
closed = 1;
nodes = (
"180 70 LINE",
"180 90 LINE",
"30 90 LINE",
"30 70 LINE"
);
},
{
closed = 1;
nodes = (
"30 120 LINE",
"210 120 LINE",
"210 140 LINE",
"30 140 LINE"
);
},
{
closed = 1;
nodes = (
"209 80 LINE",
"210 81 LINE",
"201 90 LINE",
"190 80 LINE",
"201 70 LINE",
"210 79 LINE"
);
}
);
width = 240;
},
{
associatedMasterId = "374D6CB2-7ECF-4C4C-B17A-FDC7D09CFFBE";
layerId = "58B4BA21-80F1-47CF-9490-717F12DC13A5";
name = "{80}";
paths = (
{
closed = 1;
nodes = (
"120 20 LINE",
"120 40 LINE",
"30 40 LINE",
"30 20 LINE"
);
},
{
closed = 1;
nodes = (
"90 70 LINE",
"90 90 LINE",
"30 90 LINE",
"30 70 LINE"
);
},
{
closed = 1;
nodes = (
"30 120 LINE",
"120 120 LINE",
"120 140 LINE",
"30 140 LINE"
);
},
{
closed = 1;
nodes = (
"140 80 LINE",
"183 124 LINE",
"166 140 LINE",
"106 80 LINE",
"166 20 LINE",
"183 36 LINE"
);
}
);
width = 240;
}
);
},
{
glyphname = "play-state-ver2";
lastChange = "2019-09-05 09:02:25 +0000";
layers = (
{
components = (
{
name = play_emp_ver2;
}
);
layerId = "374D6CB2-7ECF-4C4C-B17A-FDC7D09CFFBE";
width = 240;
},
{
components = (
{
name = play_emp_ver2;
}
);
layerId = "43180DBC-A696-476D-8635-86ED5F988BC9";
width = 240;
},
{
associatedMasterId = "374D6CB2-7ECF-4C4C-B17A-FDC7D09CFFBE";
layerId = "4B45F152-4563-433A-A879-5FC20E174CA3";
name = "Origin [50]";
paths = (
{
closed = 1;
nodes = (
"65 180 OFFCURVE",
"20 135 OFFCURVE",
"20 80 CURVE",
"20 25 OFFCURVE",
"65 -20 OFFCURVE",
"120 -20 CURVE",
"175 -20 OFFCURVE",
"220 25 OFFCURVE",
"220 80 CURVE",
"220 135 OFFCURVE",
"175 180 OFFCURVE",
"120 180 CURVE"
);
},
{
closed = 1;
nodes = (
"90 40 LINE",
"90 120 LINE",
"110 120 LINE",
"110 40 LINE"
);
},
{
closed = 1;
nodes = (
"130 40 LINE",
"130 120 LINE",
"150 120 LINE",
"150 40 LINE"
);
}
);
width = 240;
},
{
associatedMasterId = "43180DBC-A696-476D-8635-86ED5F988BC9";
layerId = "8C05E0D6-CDC8-433C-9F42-47C0B59E7BB0";
name = "Target [50]";
paths = (
{
closed = 1;
nodes = (
"65 180 OFFCURVE",
"20 135 OFFCURVE",
"20 80 CURVE",
"20 25 OFFCURVE",
"65 -20 OFFCURVE",
"120 -20 CURVE",
"175 -20 OFFCURVE",
"220 25 OFFCURVE",
"220 80 CURVE",
"220 135 OFFCURVE",
"175 180 OFFCURVE",
"120 180 CURVE"
);
},
{
closed = 1;
nodes = (
"90 40 LINE",
"90 120 LINE",
"110 120 LINE",
"110 40 LINE"
);
},
{
closed = 1;
nodes = (
"130 40 LINE",
"130 120 LINE",
"150 120 LINE",
"150 40 LINE"
);
}
);
width = 240;
}
);
},
{
glyphname = "thumb-icon-ver2";
lastChange = "2019-09-05 09:02:25 +0000";
layers = (
{
layerId = "374D6CB2-7ECF-4C4C-B17A-FDC7D09CFFBE";
paths = (
{
closed = 1;
nodes = (
"50 -10 LINE",
"50 110 LINE",
"10 110 LINE",
"10 -10 LINE"
);
},
{
closed = 1;
nodes = (
"230 111 OFFCURVE",
"221 120 OFFCURVE",
"210 120 CURVE",
"147 120 LINE",
"156 166 LINE",
"157 169 LINE",
"157 173 OFFCURVE",
"155 177 OFFCURVE",
"152 180 CURVE",
"142 190 LINE",
"76 124 LINE",
"72 121 OFFCURVE",
"70 116 OFFCURVE",
"70 110 CURVE",
"70 10 LINE",
"70 -1 OFFCURVE",
"79 -10 OFFCURVE",
"90 -10 CURVE",
"180 -10 LINE",
"188 -10 OFFCURVE",
"195 -5 OFFCURVE",
"198 2 CURVE",
"229 73 LINE",
"230 75 OFFCURVE",
"230 77 OFFCURVE",
"230 80 CURVE",
"230 100 LINE"
);
},
{
closed = 1;
nodes = (
"216 83 OFFCURVE",
"221 88 OFFCURVE",
"221 98 CURVE SMOOTH",
"221 106 OFFCURVE",
"214 112 OFFCURVE",
"206 112 CURVE SMOOTH",
"201 112 OFFCURVE",
"197 110 OFFCURVE",
"194 107 CURVE",
"191 110 OFFCURVE",
"186 112 OFFCURVE",
"182 112 CURVE SMOOTH",
"174 112 OFFCURVE",
"167 106 OFFCURVE",
"167 98 CURVE SMOOTH",
"167 88 OFFCURVE",
"171 84 OFFCURVE",
"194 63 CURVE"
);
}
);
width = 240;
},
{
layerId = "43180DBC-A696-476D-8635-86ED5F988BC9";
paths = (
{
closed = 1;
nodes = (
"50 -10 LINE",
"50 110 LINE",
"10 110 LINE",
"10 -10 LINE"
);
},
{
closed = 1;
nodes = (
"230 111 OFFCURVE",
"221 120 OFFCURVE",
"210 120 CURVE",
"147 120 LINE",
"156 166 LINE",
"157 169 LINE",
"157 173 OFFCURVE",
"155 177 OFFCURVE",
"152 180 CURVE",
"142 190 LINE",
"76 124 LINE",
"72 121 OFFCURVE",
"70 116 OFFCURVE",
"70 110 CURVE",
"70 10 LINE",
"70 -1 OFFCURVE",
"79 -10 OFFCURVE",
"90 -10 CURVE",
"180 -10 LINE",
"188 -10 OFFCURVE",
"195 -5 OFFCURVE",
"198 2 CURVE",
"229 73 LINE",
"230 75 OFFCURVE",
"230 77 OFFCURVE",
"230 80 CURVE",
"230 100 LINE"
);
},
{
closed = 1;
nodes = (
"216 164 OFFCURVE",
"221 169 OFFCURVE",
"221 179 CURVE SMOOTH",
"221 187 OFFCURVE",
"214 193 OFFCURVE",
"206 193 CURVE SMOOTH",
"201 193 OFFCURVE",
"197 191 OFFCURVE",
"194 188 CURVE",
"191 191 OFFCURVE",
"186 193 OFFCURVE",
"182 193 CURVE SMOOTH",
"174 193 OFFCURVE",
"167 187 OFFCURVE",
"167 179 CURVE SMOOTH",
"167 169 OFFCURVE",
"171 165 OFFCURVE",
"194 144 CURVE"
);
}
);
width = 240;
}
);
},
{
glyphname = play_emp_ver2;
lastChange = "2019-09-05 09:02:25 +0000";
layers = (
{
layerId = "374D6CB2-7ECF-4C4C-B17A-FDC7D09CFFBE";
paths = (
{
closed = 1;
nodes = (
"65 180 OFFCURVE",
"20 135 OFFCURVE",
"20 80 CURVE",
"20 25 OFFCURVE",
"65 -20 OFFCURVE",
"120 -20 CURVE",
"175 -20 OFFCURVE",
"220 25 OFFCURVE",
"220 80 CURVE",
"220 135 OFFCURVE",
"175 180 OFFCURVE",
"120 180 CURVE"
);
},
{
closed = 1;
nodes = (
"100 125 LINE",
"160 80 LINE",
"100 35 LINE"
);
}
);
width = 240;
},
{
associatedMasterId = "374D6CB2-7ECF-4C4C-B17A-FDC7D09CFFBE";
layerId = "95DB7AE0-AD51-4749-8657-4561D6B554DA";
name = "Origin {25} ";
paths = (
{
closed = 1;
nodes = (
"65 180 OFFCURVE",
"20 135 OFFCURVE",
"20 80 CURVE",
"20 25 OFFCURVE",
"65 -20 OFFCURVE",
"120 -20 CURVE",
"175 -20 OFFCURVE",
"220 25 OFFCURVE",
"220 80 CURVE",
"220 135 OFFCURVE",
"175 180 OFFCURVE",
"120 180 CURVE"
);
},
{
closed = 1;
nodes = (
"165 100 LINE",
"120 40 LINE",
"75 100 LINE"
);
}
);
width = 240;
},
{
associatedMasterId = "374D6CB2-7ECF-4C4C-B17A-FDC7D09CFFBE";
layerId = "EF135451-4157-45F0-98EC-67CE0D6C26C5";
name = "Origin {35} ";
paths = (
{
closed = 1;
nodes = (
"65 180 OFFCURVE",
"20 135 OFFCURVE",
"20 80 CURVE",
"20 25 OFFCURVE",
"65 -20 OFFCURVE",
"120 -20 CURVE",
"175 -20 OFFCURVE",
"220 25 OFFCURVE",
"220 80 CURVE",
"220 135 OFFCURVE",
"175 180 OFFCURVE",
"120 180 CURVE"
);
},
{
closed = 1;
nodes = (
"139 35 LINE",
"79 80 LINE",
"139 125 LINE"
);
}
);
width = 240;
},
{
layerId = "43180DBC-A696-476D-8635-86ED5F988BC9";
paths = (
{
closed = 1;
nodes = (
"65 180 OFFCURVE",
"20 135 OFFCURVE",
"20 80 CURVE",
"20 25 OFFCURVE",
"65 -20 OFFCURVE",
"120 -20 CURVE",
"175 -20 OFFCURVE",
"220 25 OFFCURVE",
"220 80 CURVE",
"220 135 OFFCURVE",
"175 180 OFFCURVE",
"120 180 CURVE"
);
},
{
closed = 1;
nodes = (
"100 125 LINE",
"160 80 LINE",
"100 35 LINE"
);
}
);
width = 240;
},
{
associatedMasterId = "374D6CB2-7ECF-4C4C-B17A-FDC7D09CFFBE";
layerId = "4C249402-795A-4129-94CC-164F20276D30";
name = "Origin {55}";
paths = (
{
closed = 1;
nodes = (
"65 180 OFFCURVE",
"20 135 OFFCURVE",
"20 80 CURVE",
"20 25 OFFCURVE",
"65 -20 OFFCURVE",
"120 -20 CURVE",
"175 -20 OFFCURVE",
"220 25 OFFCURVE",
"220 80 CURVE",
"220 135 OFFCURVE",
"175 180 OFFCURVE",
"120 180 CURVE"
);
},
{
closed = 1;
nodes = (
"75 60 LINE",
"120 120 LINE",
"165 60 LINE"
);
}
);
width = 240;
}
);
},
{
glyphname = play_emp_alt;
lastChange = "2019-09-05 09:02:25 +0000";
layers = (
{
layerId = "374D6CB2-7ECF-4C4C-B17A-FDC7D09CFFBE";
paths = (
{
closed = 1;
nodes = (
"160 80 LINE",
"100 125 LINE",
"100 35 LINE"
);
},
{
closed = 1;
nodes = (
"65 180 OFFCURVE",
"20 135 OFFCURVE",
"20 80 CURVE",
"20 25 OFFCURVE",
"65 -20 OFFCURVE",
"120 -20 CURVE",
"175 -20 OFFCURVE",
"220 25 OFFCURVE",
"220 80 CURVE",
"220 135 OFFCURVE",
"175 180 OFFCURVE",
"120 180 CURVE"
);
},
{
closed = 1;
nodes = (
"76 0 OFFCURVE",
"40 36 OFFCURVE",
"40 80 CURVE",
"40 124 OFFCURVE",
"76 160 OFFCURVE",
"120 160 CURVE",
"164 160 OFFCURVE",
"200 124 OFFCURVE",
"200 80 CURVE",
"200 36 OFFCURVE",
"164 0 OFFCURVE",
"120 0 CURVE"
);
}
);
width = 240;
},
{
layerId = "43180DBC-A696-476D-8635-86ED5F988BC9";
paths = (
{
closed = 1;
nodes = (
"160 80 LINE",
"100 125 LINE",
"100 35 LINE"
);
},
{
closed = 1;
nodes = (
"65 180 OFFCURVE",
"20 135 OFFCURVE",
"20 80 CURVE",
"20 25 OFFCURVE",
"65 -20 OFFCURVE",
"120 -20 CURVE",
"175 -20 OFFCURVE",
"220 25 OFFCURVE",
"220 80 CURVE",
"220 135 OFFCURVE",
"175 180 OFFCURVE",
"120 180 CURVE"
);
},
{
closed = 1;
nodes = (
"76 0 OFFCURVE",
"40 36 OFFCURVE",
"40 80 CURVE",
"40 124 OFFCURVE",
"76 160 OFFCURVE",
"120 160 CURVE",
"164 160 OFFCURVE",
"200 124 OFFCURVE",
"200 80 CURVE",
"200 36 OFFCURVE",
"164 0 OFFCURVE",
"120 0 CURVE"
);
}
);
width = 240;
},
{
associatedMasterId = "374D6CB2-7ECF-4C4C-B17A-FDC7D09CFFBE";
layerId = "818978AE-8A4C-448F-A215-1C350BF7A8E7";
name = "Origin {25}";
paths = (
{
closed = 1;
nodes = (
"166 80 LINE",
"94 134 LINE",
"94 26 LINE"
);
},
{
closed = 1;
nodes = (
"65 180 OFFCURVE",
"20 135 OFFCURVE",
"20 80 CURVE",
"20 25 OFFCURVE",
"65 -20 OFFCURVE",
"120 -20 CURVE",
"175 -20 OFFCURVE",
"220 25 OFFCURVE",
"220 80 CURVE",
"220 135 OFFCURVE",
"175 180 OFFCURVE",
"120 180 CURVE"
);
},
{
closed = 1;
nodes = (
"76 -8 OFFCURVE",
"32 25 OFFCURVE",
"32 80 CURVE",
"32 131 OFFCURVE",
"76 168 OFFCURVE",
"120 168 CURVE",
"169 168 OFFCURVE",
"208 131 OFFCURVE",
"208 80 CURVE",
"208 25 OFFCURVE",
"164 -8 OFFCURVE",
"120 -8 CURVE"
);
}
);
width = 240;
},
{
associatedMasterId = "374D6CB2-7ECF-4C4C-B17A-FDC7D09CFFBE";
layerId = "0CE35EEC-0E0F-428B-A4A3-0309E5051479";
name = "Origin {45}";
paths = (
{
closed = 1;
nodes = (
"168 80 LINE",
"92 137 LINE",
"92 23 LINE"
);
},
{
closed = 1;
nodes = (
"65 190 OFFCURVE",
"10 145 OFFCURVE",
"10 80 CURVE",
"10 15 OFFCURVE",
"65 -30 OFFCURVE",
"120 -30 CURVE",
"175 -30 OFFCURVE",
"230 15 OFFCURVE",
"230 80 CURVE",
"230 145 OFFCURVE",
"179 190 OFFCURVE",
"120 190 CURVE"
);
},
{
closed = 1;
nodes = (
"66 -27 OFFCURVE",
"13 15 OFFCURVE",
"13 80 CURVE",
"13 144 OFFCURVE",
"65 187 OFFCURVE",
"120 187 CURVE",
"179 187 OFFCURVE",
"227 144 OFFCURVE",
"227 80 CURVE",
"227 15 OFFCURVE",
"174 -27 OFFCURVE",
"120 -27 CURVE"
);
}
);
width = 240;
}
);
},
{
glyphname = "play-state-alt";
lastChange = "2019-09-05 09:02:25 +0000";
layers = (
{
layerId = "374D6CB2-7ECF-4C4C-B17A-FDC7D09CFFBE";
paths = (
{
closed = 1;
nodes = (
"116 47 LINE",
"140 65 LINE",
"160 80 LINE",
"116 113 LINE"
);
},
{
closed = 1;
nodes = (
"65 180 OFFCURVE",
"20 135 OFFCURVE",
"20 80 CURVE",
"20 25 OFFCURVE",
"65 -20 OFFCURVE",
"120 -20 CURVE",
"175 -20 OFFCURVE",
"220 25 OFFCURVE",
"220 80 CURVE",
"220 135 OFFCURVE",
"175 180 OFFCURVE",
"120 180 CURVE"
);
},
{
closed = 1;
nodes = (
"76 0 OFFCURVE",
"40 36 OFFCURVE",
"40 80 CURVE",
"40 124 OFFCURVE",
"76 160 OFFCURVE",
"120 160 CURVE",
"164 160 OFFCURVE",
"200 124 OFFCURVE",
"200 80 CURVE",
"200 36 OFFCURVE",
"164 0 OFFCURVE",
"120 0 CURVE"
);
},
{
closed = 1;
nodes = (
"132 101 LINE",
"100 125 LINE",
"100 35 LINE",
"132 59 LINE"
);
}
);
width = 240;
},
{
layerId = "43180DBC-A696-476D-8635-86ED5F988BC9";
paths = (
{
closed = 1;
nodes = (
"110 40 LINE",
"110 120 LINE",
"90 120 LINE",
"90 40 LINE"
);
},
{
closed = 1;
nodes = (
"65 180 OFFCURVE",
"20 135 OFFCURVE",
"20 80 CURVE",
"20 25 OFFCURVE",
"65 -20 OFFCURVE",
"120 -20 CURVE",
"175 -20 OFFCURVE",
"220 25 OFFCURVE",
"220 80 CURVE",
"220 135 OFFCURVE",
"175 180 OFFCURVE",
"120 180 CURVE"
);
},
{
closed = 1;
nodes = (
"76 0 OFFCURVE",
"40 36 OFFCURVE",
"40 80 CURVE",
"40 124 OFFCURVE",
"76 160 OFFCURVE",
"120 160 CURVE",
"164 160 OFFCURVE",
"200 124 OFFCURVE",
"200 80 CURVE",
"200 36 OFFCURVE",
"164 0 OFFCURVE",
"120 0 CURVE"
);
},
{
closed = 1;
nodes = (
"150 40 LINE",
"150 120 LINE",
"130 120 LINE",
"130 40 LINE"
);
}
);
width = 240;
},
{
associatedMasterId = "374D6CB2-7ECF-4C4C-B17A-FDC7D09CFFBE";
layerId = "6DFA2F2C-72C3-4FA1-BBA1-851D27C5FA99";
name = "Origin {50}";
paths = (
{
closed = 1;
nodes = (
"86 84 LINE",
"104 60 LINE",
"119 40 LINE",
"152 84 LINE"
);
},
{
closed = 1;
nodes = (
"65 180 OFFCURVE",
"20 135 OFFCURVE",
"20 80 CURVE",
"20 25 OFFCURVE",
"65 -20 OFFCURVE",
"120 -20 CURVE",
"175 -20 OFFCURVE",
"220 25 OFFCURVE",
"220 80 CURVE",
"220 135 OFFCURVE",
"175 180 OFFCURVE",
"120 180 CURVE"
);
},
{
closed = 1;
nodes = (
"76 0 OFFCURVE",
"40 36 OFFCURVE",
"40 80 CURVE",
"40 124 OFFCURVE",
"76 160 OFFCURVE",
"120 160 CURVE",
"164 160 OFFCURVE",
"200 124 OFFCURVE",
"200 80 CURVE",
"200 36 OFFCURVE",
"164 0 OFFCURVE",
"120 0 CURVE"
);
},
{
closed = 1;
nodes = (
"140 68 LINE",
"164 100 LINE",
"74 100 LINE",
"98 68 LINE"
);
}
);
width = 240;
},
{
associatedMasterId = "374D6CB2-7ECF-4C4C-B17A-FDC7D09CFFBE";
layerId = "183C186C-C863-4693-810C-3DF251C8E03D";
name = "Origin {75} ";
paths = (
{
closed = 1;
nodes = (
"114 112 LINE",
"90 94 LINE",
"70 79 LINE",
"114 46 LINE"
);
},
{
closed = 1;
nodes = (
"65 180 OFFCURVE",
"20 135 OFFCURVE",
"20 80 CURVE",
"20 25 OFFCURVE",
"65 -20 OFFCURVE",
"120 -20 CURVE",
"175 -20 OFFCURVE",
"220 25 OFFCURVE",
"220 80 CURVE",
"220 135 OFFCURVE",
"175 180 OFFCURVE",
"120 180 CURVE"
);
},
{
closed = 1;
nodes = (
"76 0 OFFCURVE",
"40 36 OFFCURVE",
"40 80 CURVE",
"40 124 OFFCURVE",
"76 160 OFFCURVE",
"120 160 CURVE",
"164 160 OFFCURVE",
"200 124 OFFCURVE",
"200 80 CURVE",
"200 36 OFFCURVE",
"164 0 OFFCURVE",
"120 0 CURVE"
);
},
{
closed = 1;
nodes = (
"98 58 LINE",
"130 34 LINE",
"130 124 LINE",
"98 100 LINE"
);
}
);
width = 240;
}
);
},
{
glyphname = "loc-emp-ver4";
lastChange = "2019-09-05 09:02:25 +0000";
layers = (
{
layerId = "374D6CB2-7ECF-4C4C-B17A-FDC7D09CFFBE";
paths = (
{
closed = 1;
nodes = (
"81 180 OFFCURVE",
"50 149 OFFCURVE",
"50 110 CURVE",
"50 68 OFFCURVE",
"94 11 OFFCURVE",
"112 -11 CURVE",
"116 -16 OFFCURVE",
"124 -16 OFFCURVE",
"128 -11 CURVE",
"146 11 OFFCURVE",
"190 68 OFFCURVE",
"190 110 CURVE",
"190 149 OFFCURVE",
"159 180 OFFCURVE",
"120 180 CURVE"
);
},
{
closed = 1;
nodes = (
"106 85 OFFCURVE",
"95 96 OFFCURVE",
"95 110 CURVE",
"95 124 OFFCURVE",
"106 135 OFFCURVE",
"120 135 CURVE",
"134 135 OFFCURVE",
"145 124 OFFCURVE",
"145 110 CURVE",
"145 96 OFFCURVE",
"134 85 OFFCURVE",
"120 85 CURVE"
);
}
);
width = 240;
},
{
associatedMasterId = "374D6CB2-7ECF-4C4C-B17A-FDC7D09CFFBE";
layerId = "99E96473-06BF-46D7-952E-75908530B51A";
name = "Origin {25}";
paths = (
{
closed = 1;
nodes = (
"83 127 OFFCURVE",
"53 101 OFFCURVE",
"53 70 CURVE",
"53 36 OFFCURVE",
"95 6 OFFCURVE",
"112 -12 CURVE",
"116 -16 OFFCURVE",
"124 -16 OFFCURVE",
"128 -12 CURVE",
"145 6 OFFCURVE",
"187 36 OFFCURVE",
"187 70 CURVE",
"187 101 OFFCURVE",
"157 127 OFFCURVE",
"120 127 CURVE"
);
},
{
closed = 1;
nodes = (
"107 49 OFFCURVE",
"96 58 OFFCURVE",
"96 70 CURVE",
"96 81 OFFCURVE",
"107 90 OFFCURVE",
"120 90 CURVE",
"133 90 OFFCURVE",
"144 81 OFFCURVE",
"144 70 CURVE",
"144 58 OFFCURVE",
"133 49 OFFCURVE",
"120 49 CURVE"
);
}
);
width = 240;
},
{
associatedMasterId = "374D6CB2-7ECF-4C4C-B17A-FDC7D09CFFBE";
layerId = "FDF6C89C-F315-4C2C-BEAE-6A4B91B4BB06";
name = "Origin {50}";
paths = (
{
closed = 1;
nodes = (
"81 240 OFFCURVE",
"50 209 OFFCURVE",
"50 170 CURVE",
"50 128 OFFCURVE",
"94 71 OFFCURVE",
"112 49 CURVE",
"116 44 OFFCURVE",
"124 44 OFFCURVE",
"128 49 CURVE",
"146 71 OFFCURVE",
"190 128 OFFCURVE",
"190 170 CURVE",
"190 209 OFFCURVE",
"159 240 OFFCURVE",
"120 240 CURVE"
);
},
{
closed = 1;
nodes = (
"106 145 OFFCURVE",
"95 156 OFFCURVE",
"95 170 CURVE",
"95 184 OFFCURVE",
"106 195 OFFCURVE",
"120 195 CURVE",
"134 195 OFFCURVE",
"145 184 OFFCURVE",
"145 170 CURVE",
"145 156 OFFCURVE",
"134 145 OFFCURVE",
"120 145 CURVE"
);
}
);
width = 240;
},
{
layerId = "43180DBC-A696-476D-8635-86ED5F988BC9";
paths = (
{
closed = 1;
nodes = (
"81 180 OFFCURVE",
"50 149 OFFCURVE",
"50 110 CURVE",
"50 68 OFFCURVE",
"94 11 OFFCURVE",
"112 -11 CURVE",
"116 -16 OFFCURVE",
"124 -16 OFFCURVE",
"128 -11 CURVE",
"146 11 OFFCURVE",
"190 68 OFFCURVE",
"190 110 CURVE",
"190 149 OFFCURVE",
"159 180 OFFCURVE",
"120 180 CURVE"
);
},
{
closed = 1;
nodes = (
"106 85 OFFCURVE",
"95 96 OFFCURVE",
"95 110 CURVE",
"95 124 OFFCURVE",
"106 135 OFFCURVE",
"120 135 CURVE",
"134 135 OFFCURVE",
"145 124 OFFCURVE",
"145 110 CURVE",
"145 96 OFFCURVE",
"134 85 OFFCURVE",
"120 85 CURVE"
);
}
);
width = 240;
},
{
associatedMasterId = "374D6CB2-7ECF-4C4C-B17A-FDC7D09CFFBE";
layerId = "8EA22DCC-BE49-41B2-8B8D-8990EF7BDCE4";
name = "Origin {75} ";
paths = (
{
closed = 1;
nodes = (
"83 127 OFFCURVE",
"53 101 OFFCURVE",
"53 70 CURVE",
"53 36 OFFCURVE",
"95 6 OFFCURVE",
"112 -12 CURVE",
"116 -16 OFFCURVE",
"124 -16 OFFCURVE",
"128 -12 CURVE",
"145 6 OFFCURVE",
"187 36 OFFCURVE",
"187 70 CURVE",
"187 101 OFFCURVE",
"157 127 OFFCURVE",
"120 127 CURVE"
);
},
{
closed = 1;
nodes = (
"107 49 OFFCURVE",
"96 58 OFFCURVE",
"96 70 CURVE",
"96 81 OFFCURVE",
"107 90 OFFCURVE",
"120 90 CURVE",
"133 90 OFFCURVE",
"144 81 OFFCURVE",
"144 70 CURVE",
"144 58 OFFCURVE",
"133 49 OFFCURVE",
"120 49 CURVE"
);
}
);
width = 240;
}
);
},
{
glyphname = "loc-emp-ver3";
lastChange = "2019-09-05 09:02:25 +0000";
layers = (
{
layerId = "374D6CB2-7ECF-4C4C-B17A-FDC7D09CFFBE";
paths = (
{
closed = 1;
nodes = (
"81 180 OFFCURVE",
"50 149 OFFCURVE",
"50 110 CURVE",
"50 68 OFFCURVE",
"94 11 OFFCURVE",
"112 -11 CURVE",
"116 -16 OFFCURVE",
"124 -16 OFFCURVE",
"128 -11 CURVE",
"146 11 OFFCURVE",
"190 68 OFFCURVE",
"190 110 CURVE",
"190 149 OFFCURVE",
"159 180 OFFCURVE",
"120 180 CURVE"
);
},
{
closed = 1;
nodes = (
"106 85 OFFCURVE",
"95 96 OFFCURVE",
"95 110 CURVE",
"95 124 OFFCURVE",
"106 135 OFFCURVE",
"120 135 CURVE",
"134 135 OFFCURVE",
"145 124 OFFCURVE",
"145 110 CURVE",
"145 96 OFFCURVE",
"134 85 OFFCURVE",
"120 85 CURVE"
);
}
);
width = 240;
},
{
associatedMasterId = "374D6CB2-7ECF-4C4C-B17A-FDC7D09CFFBE";
layerId = "FDF6C89C-F315-4C2C-BEAE-6A4B91B4BB06";
name = "Origin {50}";
paths = (
{
closed = 1;
nodes = (
"87 230 OFFCURVE",
"61 193 OFFCURVE",
"61 146 CURVE",
"61 95 OFFCURVE",
"97 26 OFFCURVE",
"113 0 CURVE",
"116 -6 OFFCURVE",
"124 -6 OFFCURVE",
"127 0 CURVE",
"143 26 OFFCURVE",
"179 95 OFFCURVE",
"179 146 CURVE",
"179 193 OFFCURVE",
"153 230 OFFCURVE",
"120 230 CURVE"
);
},
{
closed = 1;
nodes = (
"108 116 OFFCURVE",
"98 129 OFFCURVE",
"98 146 CURVE",
"98 163 OFFCURVE",
"108 176 OFFCURVE",
"120 176 CURVE",
"132 176 OFFCURVE",
"142 163 OFFCURVE",
"142 146 CURVE",
"142 129 OFFCURVE",
"132 116 OFFCURVE",
"120 116 CURVE"
);
}
);
width = 240;
},
{
layerId = "43180DBC-A696-476D-8635-86ED5F988BC9";
paths = (
{
closed = 1;
nodes = (
"81 180 OFFCURVE",
"50 149 OFFCURVE",
"50 110 CURVE",
"50 68 OFFCURVE",
"94 11 OFFCURVE",
"112 -11 CURVE",
"116 -16 OFFCURVE",
"124 -16 OFFCURVE",
"128 -11 CURVE",
"146 11 OFFCURVE",
"190 68 OFFCURVE",
"190 110 CURVE",
"190 149 OFFCURVE",
"159 180 OFFCURVE",
"120 180 CURVE"
);
},
{
closed = 1;
nodes = (
"106 85 OFFCURVE",
"95 96 OFFCURVE",
"95 110 CURVE",
"95 124 OFFCURVE",
"106 135 OFFCURVE",
"120 135 CURVE",
"134 135 OFFCURVE",
"145 124 OFFCURVE",
"145 110 CURVE",
"145 96 OFFCURVE",
"134 85 OFFCURVE",
"120 85 CURVE"
);
}
);
width = 240;
}
);
},
{
glyphname = "loc-emp-ver2";
lastChange = "2019-09-05 09:02:25 +0000";
layers = (
{
layerId = "374D6CB2-7ECF-4C4C-B17A-FDC7D09CFFBE";
paths = (
{
closed = 1;
nodes = (
"81 180 OFFCURVE",
"50 149 OFFCURVE",
"50 110 CURVE",
"50 68 OFFCURVE",
"94 11 OFFCURVE",
"112 -11 CURVE",
"116 -16 OFFCURVE",
"124 -16 OFFCURVE",
"128 -11 CURVE",
"146 11 OFFCURVE",
"190 68 OFFCURVE",
"190 110 CURVE",
"190 149 OFFCURVE",
"159 180 OFFCURVE",
"120 180 CURVE"
);
},
{
closed = 1;
nodes = (
"106 85 OFFCURVE",
"95 96 OFFCURVE",
"95 110 CURVE",
"95 124 OFFCURVE",
"106 135 OFFCURVE",
"120 135 CURVE",
"134 135 OFFCURVE",
"145 124 OFFCURVE",
"145 110 CURVE",
"145 96 OFFCURVE",
"134 85 OFFCURVE",
"120 85 CURVE"
);
}
);
width = 240;
},
{
associatedMasterId = "374D6CB2-7ECF-4C4C-B17A-FDC7D09CFFBE";
layerId = "FDF6C89C-F315-4C2C-BEAE-6A4B91B4BB06";
name = "Origin {50}";
paths = (
{
closed = 1;
nodes = (
"84 110 OFFCURVE",
"55 87 OFFCURVE",
"55 59 CURVE",
"55 28 OFFCURVE",
"96 1 OFFCURVE",
"113 -16 CURVE",
"116 -19 OFFCURVE",
"124 -19 OFFCURVE",
"127 -16 CURVE",
"144 1 OFFCURVE",
"185 28 OFFCURVE",
"185 59 CURVE",
"185 87 OFFCURVE",
"156 110 OFFCURVE",
"120 110 CURVE"
);
},
{
closed = 1;
nodes = (
"107 40 OFFCURVE",
"97 48 OFFCURVE",
"97 59 CURVE",
"97 69 OFFCURVE",
"107 77 OFFCURVE",
"120 77 CURVE",
"133 77 OFFCURVE",
"143 69 OFFCURVE",
"143 59 CURVE",
"143 48 OFFCURVE",
"133 40 OFFCURVE",
"120 40 CURVE"
);
}
);
width = 240;
},
{
layerId = "43180DBC-A696-476D-8635-86ED5F988BC9";
paths = (
{
closed = 1;
nodes = (
"81 180 OFFCURVE",
"50 149 OFFCURVE",
"50 110 CURVE",
"50 68 OFFCURVE",
"94 11 OFFCURVE",
"112 -11 CURVE",
"116 -16 OFFCURVE",
"124 -16 OFFCURVE",
"128 -11 CURVE",
"146 11 OFFCURVE",
"190 68 OFFCURVE",
"190 110 CURVE",
"190 149 OFFCURVE",
"159 180 OFFCURVE",
"120 180 CURVE"
);
},
{
closed = 1;
nodes = (
"106 85 OFFCURVE",
"95 96 OFFCURVE",
"95 110 CURVE",
"95 124 OFFCURVE",
"106 135 OFFCURVE",
"120 135 CURVE",
"134 135 OFFCURVE",
"145 124 OFFCURVE",
"145 110 CURVE",
"145 96 OFFCURVE",
"134 85 OFFCURVE",
"120 85 CURVE"
);
}
);
width = 240;
}
);
},
{
glyphname = "phone-morph-comp";
lastChange = "2019-09-05 09:02:25 +0000";
layers = (
{
layerId = "374D6CB2-7ECF-4C4C-B17A-FDC7D09CFFBE";
paths = (
{
closed = 1;
nodes = (
"81 64 OFFCURVE",
"104 41 OFFCURVE",
"132 26 CURVE",
"154 48 LINE",
"157 51 OFFCURVE",
"161 52 OFFCURVE",
"164 51 CURVE",
"176 47 OFFCURVE",
"188 45 OFFCURVE",
"200 45 CURVE",
"206 45 OFFCURVE",
"210 40 OFFCURVE",
"210 35 CURVE",
"210 0 LINE",
"210 -6 OFFCURVE",
"206 -10 OFFCURVE",
"200 -10 CURVE",
"106 -10 OFFCURVE",
"30 66 OFFCURVE",
"30 160 CURVE",
"30 166 OFFCURVE",
"35 170 OFFCURVE",
"40 170 CURVE",
"75 170 LINE",
"81 170 OFFCURVE",
"85 166 OFFCURVE",
"85 160 CURVE",
"85 148 OFFCURVE",
"87 136 OFFCURVE",
"91 124 CURVE",
"92 121 OFFCURVE",
"91 117 OFFCURVE",
"88 114 CURVE",
"66 92 LINE"
);
}
);
width = 240;
},
{
layerId = "43180DBC-A696-476D-8635-86ED5F988BC9";
paths = (
{
closed = 1;
nodes = (
"149 110 OFFCURVE",
"151 110 OFFCURVE",
"151 103 CURVE",
"149 95 LINE",
"149 87 OFFCURVE",
"149 92 OFFCURVE",
"149 85 CURVE",
"149 77 OFFCURVE",
"148 70 OFFCURVE",
"148 66 CURVE",
"148 62 OFFCURVE",
"147 58 OFFCURVE",
"147 56 CURVE",
"145 51 LINE",
"145 49 OFFCURVE",
"120 51 OFFCURVE",
"118 51 CURVE",
"81 51 OFFCURVE",
"96 77 OFFCURVE",
"96 113 CURVE",
"96 115 OFFCURVE",
"98 117 OFFCURVE",
"100 117 CURVE",
"113 117 LINE",
"116 117 OFFCURVE",
"122 115 OFFCURVE",
"125 115 CURVE",
"128 115 OFFCURVE",
"131 114 OFFCURVE",
"134 114 CURVE",
"137 114 OFFCURVE",
"139 113 OFFCURVE",
"142 113 CURVE",
"146 110 LINE"
);
}
);
width = 240;
},
{
associatedMasterId = "374D6CB2-7ECF-4C4C-B17A-FDC7D09CFFBE";
layerId = "6FADB974-6BC1-4696-86EC-0F46F1048E1C";
name = "Origin{25}";
paths = (
{
closed = 1;
nodes = (
"73 61 OFFCURVE",
"101 33 OFFCURVE",
"135 15 CURVE",
"161 41 LINE",
"165 45 OFFCURVE",
"170 46 OFFCURVE",
"173 45 CURVE",
"188 40 OFFCURVE",
"202 38 OFFCURVE",
"217 38 CURVE",
"224 38 OFFCURVE",
"229 32 OFFCURVE",
"229 26 CURVE",
"229 -17 LINE",
"229 -24 OFFCURVE",
"224 -29 OFFCURVE",
"217 -29 CURVE",
"103 -29 OFFCURVE",
"11 63 OFFCURVE",
"11 177 CURVE",
"11 184 OFFCURVE",
"17 189 OFFCURVE",
"23 189 CURVE",
"66 189 LINE",
"73 189 OFFCURVE",
"78 184 OFFCURVE",
"78 177 CURVE",
"78 162 OFFCURVE",
"80 148 OFFCURVE",
"85 133 CURVE",
"86 130 OFFCURVE",
"85 125 OFFCURVE",
"81 121 CURVE",
"55 95 LINE"
);
}
);
width = 240;
},
{
associatedMasterId = "374D6CB2-7ECF-4C4C-B17A-FDC7D09CFFBE";
layerId = "1666E94F-BD8B-4103-9083-3EF90A1B9C76";
name = "Origin{50} ";
paths = (
{
closed = 1;
nodes = (
"81 64 OFFCURVE",
"104 41 OFFCURVE",
"132 26 CURVE",
"154 48 LINE",
"157 51 OFFCURVE",
"161 52 OFFCURVE",
"164 51 CURVE",
"176 47 OFFCURVE",
"188 45 OFFCURVE",
"200 45 CURVE",
"206 45 OFFCURVE",
"210 40 OFFCURVE",
"210 35 CURVE",
"210 0 LINE",
"210 -6 OFFCURVE",
"206 -10 OFFCURVE",
"200 -10 CURVE",
"106 -10 OFFCURVE",
"30 66 OFFCURVE",
"30 160 CURVE",
"30 166 OFFCURVE",
"35 170 OFFCURVE",
"40 170 CURVE",
"75 170 LINE",
"81 170 OFFCURVE",
"85 166 OFFCURVE",
"85 160 CURVE",
"85 148 OFFCURVE",
"87 136 OFFCURVE",
"91 124 CURVE",
"92 121 OFFCURVE",
"91 117 OFFCURVE",
"88 114 CURVE",
"66 92 LINE"
);
}
);
width = 240;
},
{
associatedMasterId = "374D6CB2-7ECF-4C4C-B17A-FDC7D09CFFBE";
layerId = "791AB6C8-3156-4EA0-A93A-48FC6BBFA969";
name = "Origin{65} ";
paths = (
{
closed = 1;
nodes = (
"181 170 OFFCURVE",
"187 163 OFFCURVE",
"187 150 CURVE",
"187 112 LINE",
"187 92 OFFCURVE",
"187 104 OFFCURVE",
"187 87 CURVE",
"187 81 OFFCURVE",
"187 62 OFFCURVE",
"187 51 CURVE",
"187 41 OFFCURVE",
"187 18 OFFCURVE",
"187 13 CURVE",
"187 0 LINE",
"168 0 OFFCURVE",
"79 0 OFFCURVE",
"73 0 CURVE",
"70 0 OFFCURVE",
"67 66 OFFCURVE",
"67 160 CURVE",
"67 170 OFFCURVE",
"72 170 OFFCURVE",
"77 170 CURVE",
"86 170 LINE",
"92 170 OFFCURVE",
"98 170 OFFCURVE",
"89 170 CURVE",
"98 170 OFFCURVE",
"108 170 OFFCURVE",
"116 170 CURVE",
"125 170 OFFCURVE",
"147 170 OFFCURVE",
"155 170 CURVE",
"173 170 LINE"
);
}
);
width = 240;
}
);
},
{
glyphname = "phone-icon-comp";
lastChange = "2019-09-05 09:02:25 +0000";
layers = (
{
layerId = "374D6CB2-7ECF-4C4C-B17A-FDC7D09CFFBE";
paths = (
{
closed = 1;
nodes = (
"82 163 LINE",
"74 163 OFFCURVE",
"67 156 OFFCURVE",
"67 148 CURVE",
"67 12 LINE",
"67 4 OFFCURVE",
"74 -3 OFFCURVE",
"82 -3 CURVE",
"158 -3 LINE",
"166 -3 OFFCURVE",
"173 4 OFFCURVE",
"173 12 CURVE",
"173 148 LINE",
"173 156 OFFCURVE",
"166 163 OFFCURVE",
"158 163 CURVE"
);
},
{
closed = 1;
nodes = (
"116 75 LINE",
"116 85 LINE",
"124 85 LINE",
"124 75 LINE"
);
}
);
width = 240;
},
{
layerId = "43180DBC-A696-476D-8635-86ED5F988BC9";
paths = (
{
closed = 1;
nodes = (
"70 190 LINE",
"59 190 OFFCURVE",
"50 181 OFFCURVE",
"50 170 CURVE",
"50 -10 LINE",
"50 -21 OFFCURVE",
"59 -30 OFFCURVE",
"70 -30 CURVE",
"170 -30 LINE",
"181 -30 OFFCURVE",
"190 -21 OFFCURVE",
"190 -10 CURVE",
"190 170 LINE",
"190 181 OFFCURVE",
"181 190 OFFCURVE",
"170 190 CURVE"
);
},
{
closed = 1;
nodes = (
"70 10 LINE",
"70 150 LINE",
"170 150 LINE",
"170 10 LINE"
);
}
);
width = 240;
}
);
},
{
glyphname = "outline-empasis";
lastChange = "2019-09-05 09:02:25 +0000";
layers = (
{
layerId = "374D6CB2-7ECF-4C4C-B17A-FDC7D09CFFBE";
paths = (
{
closed = 1;
nodes = (
"180 -10 LINE",
"188 -10 OFFCURVE",
"195 -5 OFFCURVE",
"198 2 CURVE",
"229 73 LINE",
"230 75 OFFCURVE",
"230 77 OFFCURVE",
"230 80 CURVE",
"230 100 LINE",
"230 111 OFFCURVE",
"221 120 OFFCURVE",
"210 120 CURVE",
"147 120 LINE",
"156 166 LINE",
"157 169 LINE",
"157 173 OFFCURVE",
"155 177 OFFCURVE",
"152 180 CURVE",
"142 190 LINE",
"76 124 LINE",
"72 121 OFFCURVE",
"70 116 OFFCURVE",
"70 110 CURVE",
"70 10 LINE",
"70 -1 OFFCURVE",
"79 -10 OFFCURVE",
"90 -10 CURVE"
);
},
{
closed = 1;
nodes = (
"133 153 LINE",
"120 100 LINE",
"210 100 LINE",
"210 80 LINE",
"180 10 LINE",
"90 10 LINE",
"90 110 LINE"
);
},
{
closed = 1;
nodes = (
"50 110 LINE",
"50 -10 LINE",
"10 -10 LINE",
"10 110 LINE"
);
}
);
width = 240;
},
{
layerId = "43180DBC-A696-476D-8635-86ED5F988BC9";
paths = (
{
closed = 1;
nodes = (
"180 -10 LINE",
"188 -10 OFFCURVE",
"195 -5 OFFCURVE",
"198 2 CURVE",
"229 73 LINE",
"230 75 OFFCURVE",
"230 77 OFFCURVE",
"230 80 CURVE",
"230 100 LINE",
"230 111 OFFCURVE",
"221 120 OFFCURVE",
"210 120 CURVE",
"147 120 LINE",
"156 166 LINE",
"157 169 LINE",
"157 173 OFFCURVE",
"155 177 OFFCURVE",
"152 180 CURVE",
"142 190 LINE",
"76 124 LINE",
"72 121 OFFCURVE",
"70 116 OFFCURVE",
"70 110 CURVE",
"70 10 LINE",
"70 -1 OFFCURVE",
"79 -10 OFFCURVE",
"90 -10 CURVE"
);
},
{
closed = 1;
nodes = (
"133 153 LINE",
"120 100 LINE",
"210 100 LINE",
"210 80 LINE",
"180 10 LINE",
"90 10 LINE",
"90 110 LINE"
);
},
{
closed = 1;
nodes = (
"50 110 LINE",
"50 -10 LINE",
"10 -10 LINE",
"10 110 LINE"
);
}
);
width = 240;
},
{
associatedMasterId = "374D6CB2-7ECF-4C4C-B17A-FDC7D09CFFBE";
layerId = "EDF598D1-CE10-4519-A31E-63BB5EB9EF46";
name = "Origin {25}";
paths = (
{
closed = 1;
nodes = (
"142 -24 LINE",
"150 -27 OFFCURVE",
"158 -25 OFFCURVE",
"163 -19 CURVE",
"217 37 LINE",
"218 38 OFFCURVE",
"219 40 OFFCURVE",
"220 43 CURVE",
"227 62 LINE",
"231 72 OFFCURVE",
"225 84 OFFCURVE",
"215 87 CURVE",
"156 109 LINE",
"180 149 LINE",
"182 152 LINE",
"183 155 OFFCURVE",
"183 160 OFFCURVE",
"181 164 CURVE",
"175 176 LINE",
"90 137 LINE",
"85 136 OFFCURVE",
"82 132 OFFCURVE",
"80 126 CURVE",
"46 32 LINE",
"42 22 OFFCURVE",
"47 10 OFFCURVE",
"58 6 CURVE"
);
},
{
closed = 1;
nodes = (
"154 145 LINE",
"123 99 LINE",
"208 69 LINE",
"201 50 LINE",
"149 -6 LINE",
"64 25 LINE",
"99 119 LINE"
);
},
{
closed = 1;
nodes = (
"57 135 LINE",
"24 20 LINE",
"-14 31 LINE",
"19 146 LINE"
);
}
);
width = 240;
},
{
associatedMasterId = "374D6CB2-7ECF-4C4C-B17A-FDC7D09CFFBE";
layerId = "A9B49236-5C51-4959-B200-BA69D85AC254";
name = "Origin {50}";
paths = (
{
closed = 1;
nodes = (
"211 17 LINE",
"218 19 OFFCURVE",
"223 26 OFFCURVE",
"223 34 CURVE",
"228 111 LINE",
"228 114 OFFCURVE",
"228 115 OFFCURVE",
"227 118 CURVE",
"220 137 LINE",
"216 147 OFFCURVE",
"205 153 OFFCURVE",
"194 149 CURVE",
"135 127 LINE",
"128 174 LINE",
"128 177 LINE",
"126 181 OFFCURVE",
"123 184 OFFCURVE",
"119 186 CURVE",
"106 191 LINE",
"67 107 LINE",
"64 103 OFFCURVE",
"64 97 OFFCURVE",
"66 92 CURVE",
"100 -2 LINE",
"104 -13 OFFCURVE",
"116 -18 OFFCURVE",
"126 -14 CURVE"
);
},
{
closed = 1;
nodes = (
"111 154 LINE",
"117 99 LINE",
"201 130 LINE",
"208 111 LINE",
"204 35 LINE",
"119 5 LINE",
"85 99 LINE"
);
},
{
closed = 1;
nodes = (
"51 85 LINE",
"86 -30 LINE",
"48 -42 LINE",
"12 73 LINE"
);
}
);
width = 240;
},
{
associatedMasterId = "374D6CB2-7ECF-4C4C-B17A-FDC7D09CFFBE";
layerId = "328B814F-75CD-4F36-B36D-3D9678644A70";
name = "Origin {75}";
paths = (
{
closed = 1;
nodes = (
"142 -24 LINE",
"150 -27 OFFCURVE",
"158 -25 OFFCURVE",
"163 -19 CURVE",
"217 37 LINE",
"218 38 OFFCURVE",
"219 40 OFFCURVE",
"220 43 CURVE",
"227 62 LINE",
"231 72 OFFCURVE",
"225 84 OFFCURVE",
"215 87 CURVE",
"156 109 LINE",
"180 149 LINE",
"182 152 LINE",
"183 155 OFFCURVE",
"183 160 OFFCURVE",
"181 164 CURVE",
"175 176 LINE",
"90 137 LINE",
"85 136 OFFCURVE",
"82 132 OFFCURVE",
"80 126 CURVE",
"46 32 LINE",
"42 22 OFFCURVE",
"47 10 OFFCURVE",
"58 6 CURVE"
);
},
{
closed = 1;
nodes = (
"154 145 LINE",
"123 99 LINE",
"208 69 LINE",
"201 50 LINE",
"149 -6 LINE",
"64 25 LINE",
"99 119 LINE"
);
},
{
closed = 1;
nodes = (
"57 135 LINE",
"24 20 LINE",
"-14 31 LINE",
"19 146 LINE"
);
}
);
width = 240;
}
);
},
{
glyphname = "U-morphToDot-comp";
lastChange = "2019-09-05 09:02:25 +0000";
layers = (
{
layerId = "374D6CB2-7ECF-4C4C-B17A-FDC7D09CFFBE";
paths = (
{
closed = 1;
nodes = (
"50 -10 LINE",
"50 110 LINE",
"10 110 LINE",
"10 -10 LINE"
);
},
{
closed = 1;
nodes = (
"230 111 OFFCURVE",
"221 120 OFFCURVE",
"210 120 CURVE",
"147 120 LINE",
"156 166 LINE",
"157 169 LINE",
"157 173 OFFCURVE",
"155 177 OFFCURVE",
"152 180 CURVE",
"142 190 LINE",
"76 124 LINE",
"72 121 OFFCURVE",
"70 116 OFFCURVE",
"70 110 CURVE",
"70 10 LINE",
"70 -1 OFFCURVE",
"79 -10 OFFCURVE",
"90 -10 CURVE",
"180 -10 LINE",
"188 -10 OFFCURVE",
"195 -5 OFFCURVE",
"198 2 CURVE",
"229 73 LINE",
"230 75 OFFCURVE",
"230 77 OFFCURVE",
"230 80 CURVE",
"230 100 LINE"
);
}
);
width = 240;
},
{
layerId = "43180DBC-A696-476D-8635-86ED5F988BC9";
paths = (
{
closed = 1;
nodes = (
"131 44 LINE",
"131 100 LINE",
"112 100 LINE",
"112 44 LINE"
);
},
{
closed = 1;
nodes = (
"158 94 OFFCURVE",
"156 98 OFFCURVE",
"153 103 CURVE",
"147 109 LINE",
"140 115 LINE",
"132 118 LINE",
"127 120 OFFCURVE",
"113 120 OFFCURVE",
"108 118 CURVE",
"101 115 LINE",
"90 107 LINE",
"84 97 OFFCURVE",
"80 90 OFFCURVE",
"80 80 CURVE",
"82 69 LINE",
"85 60 OFFCURVE",
"89 53 OFFCURVE",
"97 47 CURVE",
"105 42 LINE",
"117 38 OFFCURVE",
"141 40 OFFCURVE",
"148 51 CURVE",
"155 60 LINE",
"159 67 OFFCURVE",
"160 81 OFFCURVE",
"160 82 CURVE",
"159 90 LINE"
);
}
);
width = 240;
}
);
},
{
glyphname = "play-scale-comp";
lastChange = "2019-09-05 09:02:25 +0000";
layers = (
{
layerId = "374D6CB2-7ECF-4C4C-B17A-FDC7D09CFFBE";
paths = (
{
closed = 1;
nodes = (
"65 180 OFFCURVE",
"20 135 OFFCURVE",
"20 80 CURVE",
"20 25 OFFCURVE",
"65 -20 OFFCURVE",
"120 -20 CURVE",
"175 -20 OFFCURVE",
"220 25 OFFCURVE",
"220 80 CURVE",
"220 135 OFFCURVE",
"175 180 OFFCURVE",
"120 180 CURVE"
);
},
{
closed = 1;
nodes = (
"100 125 LINE",
"160 80 LINE",
"100 35 LINE"
);
}
);
width = 240;
},
{
layerId = "43180DBC-A696-476D-8635-86ED5F988BC9";
paths = (
{
closed = 1;
nodes = (
"91 131 OFFCURVE",
"69 109 OFFCURVE",
"69 80 CURVE",
"69 51 OFFCURVE",
"91 29 OFFCURVE",
"120 29 CURVE",
"149 29 OFFCURVE",
"171 51 OFFCURVE",
"171 80 CURVE",
"171 109 OFFCURVE",
"149 131 OFFCURVE",
"120 131 CURVE"
);
},
{
closed = 1;
nodes = (
"109 103 LINE",
"140 80 LINE",
"109 57 LINE"
);
}
);
width = 240;
}
);
},
{
glyphname = "X-morph-dot-comp";
lastChange = "2019-09-05 09:02:25 +0000";
layers = (
{
layerId = "374D6CB2-7ECF-4C4C-B17A-FDC7D09CFFBE";
paths = (
{
closed = 1;
nodes = (
"80 75 LINE",
"80 10 LINE",
"114 32 LINE",
"136 46 LINE",
"157 59 LINE",
"190 80 LINE",
"157 101 LINE",
"133 116 LINE",
"80 150 LINE"
);
}
);
width = 240;
},
{
layerId = "43180DBC-A696-476D-8635-86ED5F988BC9";
paths = (
{
closed = 1;
nodes = (
"82 92 LINE",
"83 65 LINE",
"97 47 LINE",
"126 41 LINE",
"150 53 LINE",
"161 81 LINE",
"150 107 LINE",
"126 120 LINE",
"97 113 LINE"
);
}
);
width = 240;
}
);
},
{
glyphname = "morph_dot-comp";
lastChange = "2019-09-05 09:02:25 +0000";
layers = (
{
layerId = "374D6CB2-7ECF-4C4C-B17A-FDC7D09CFFBE";
paths = (
{
closed = 1;
nodes = (
"81 64 OFFCURVE",
"104 41 OFFCURVE",
"132 26 CURVE",
"154 48 LINE",
"157 51 OFFCURVE",
"161 52 OFFCURVE",
"164 51 CURVE",
"176 47 OFFCURVE",
"188 45 OFFCURVE",
"200 45 CURVE",
"206 45 OFFCURVE",
"210 40 OFFCURVE",
"210 35 CURVE",
"210 0 LINE",
"210 -6 OFFCURVE",
"206 -10 OFFCURVE",
"200 -10 CURVE",
"106 -10 OFFCURVE",
"30 66 OFFCURVE",
"30 160 CURVE",
"30 166 OFFCURVE",
"35 170 OFFCURVE",
"40 170 CURVE",
"75 170 LINE",
"81 170 OFFCURVE",
"85 166 OFFCURVE",
"85 160 CURVE",
"85 148 OFFCURVE",
"87 136 OFFCURVE",
"91 124 CURVE",
"92 121 OFFCURVE",
"91 117 OFFCURVE",
"88 114 CURVE",
"66 92 LINE"
);
}
);
width = 240;
},
{
layerId = "43180DBC-A696-476D-8635-86ED5F988BC9";
paths = (
{
closed = 1;
nodes = (
"135 118 OFFCURVE",
"140 115 OFFCURVE",
"145 111 CURVE",
"149 107 LINE",
"152 104 OFFCURVE",
"153 102 OFFCURVE",
"156 98 CURVE",
"157 96 OFFCURVE",
"158 92 OFFCURVE",
"159 89 CURVE",
"161 82 OFFCURVE",
"160 73 OFFCURVE",
"157 65 CURVE",
"154 59 LINE",
"147 47 OFFCURVE",
"134 42 OFFCURVE",
"128 41 CURVE",
"118 39 OFFCURVE",
"110 41 OFFCURVE",
"103 44 CURVE",
"94 48 OFFCURVE",
"82 58 OFFCURVE",
"80 77 CURVE",
"80 80 LINE",
"82 93 OFFCURVE",
"81 95 OFFCURVE",
"90 106 CURVE",
"92 110 OFFCURVE",
"98 114 OFFCURVE",
"105 117 CURVE",
"110 119 OFFCURVE",
"112 120 OFFCURVE",
"118 120 CURVE",
"124 120 LINE"
);
}
);
width = 240;
},
{
associatedMasterId = "374D6CB2-7ECF-4C4C-B17A-FDC7D09CFFBE";
layerId = "78F3E7CA-DE41-490C-ADED-7C7CBA85794B";
name = "Origin{80}";
paths = (
{
closed = 1;
nodes = (
"103 73 OFFCURVE",
"113 63 OFFCURVE",
"125 57 CURVE",
"134 66 LINE",
"136 68 OFFCURVE",
"137 68 OFFCURVE",
"139 68 CURVE",
"144 66 OFFCURVE",
"149 65 OFFCURVE",
"154 65 CURVE",
"156 65 OFFCURVE",
"158 63 OFFCURVE",
"158 61 CURVE",
"158 46 LINE",
"158 44 OFFCURVE",
"156 42 OFFCURVE",
"154 42 CURVE",
"114 42 OFFCURVE",
"82 74 OFFCURVE",
"82 114 CURVE",
"82 116 OFFCURVE",
"84 118 OFFCURVE",
"86 118 CURVE",
"101 118 LINE",
"103 118 OFFCURVE",
"105 116 OFFCURVE",
"105 114 CURVE",
"105 109 OFFCURVE",
"106 104 OFFCURVE",
"108 99 CURVE",
"108 97 OFFCURVE",
"108 96 OFFCURVE",
"106 94 CURVE",
"97 85 LINE"
);
}
);
width = 240;
},
{
associatedMasterId = "374D6CB2-7ECF-4C4C-B17A-FDC7D09CFFBE";
layerId = "956D31B6-EB03-4D87-A433-9BC4CE73D607";
name = "Origin{95}";
paths = (
{
closed = 1;
nodes = (
"135 118 OFFCURVE",
"140 115 OFFCURVE",
"145 111 CURVE",
"149 107 LINE",
"152 104 OFFCURVE",
"153 102 OFFCURVE",
"156 98 CURVE",
"157 96 OFFCURVE",
"158 92 OFFCURVE",
"159 89 CURVE",
"161 82 OFFCURVE",
"160 73 OFFCURVE",
"157 65 CURVE",
"154 59 LINE",
"147 47 OFFCURVE",
"134 42 OFFCURVE",
"128 41 CURVE",
"118 39 OFFCURVE",
"110 41 OFFCURVE",
"103 44 CURVE",
"94 48 OFFCURVE",
"82 58 OFFCURVE",
"80 77 CURVE",
"80 80 LINE",
"82 93 OFFCURVE",
"81 95 OFFCURVE",
"90 106 CURVE",
"92 110 OFFCURVE",
"98 114 OFFCURVE",
"105 117 CURVE",
"110 119 OFFCURVE",
"112 120 OFFCURVE",
"118 120 CURVE",
"124 120 LINE"
);
}
);
width = 240;
}
);
},
{
glyphname = "comp-thumbs-up";
lastChange = "2019-09-05 09:02:25 +0000";
layers = (
{
layerId = "374D6CB2-7ECF-4C4C-B17A-FDC7D09CFFBE";
paths = (
{
closed = 1;
nodes = (
"50 -10 LINE",
"50 110 LINE",
"10 110 LINE",
"10 -10 LINE"
);
},
{
closed = 1;
nodes = (
"230 111 OFFCURVE",
"221 120 OFFCURVE",
"210 120 CURVE",
"147 120 LINE",
"156 166 LINE",
"157 169 LINE",
"157 173 OFFCURVE",
"155 177 OFFCURVE",
"152 180 CURVE",
"142 190 LINE",
"76 124 LINE",
"72 121 OFFCURVE",
"70 116 OFFCURVE",
"70 110 CURVE",
"70 10 LINE",
"70 -1 OFFCURVE",
"79 -10 OFFCURVE",
"90 -10 CURVE",
"180 -10 LINE",
"188 -10 OFFCURVE",
"195 -5 OFFCURVE",
"198 2 CURVE",
"229 73 LINE",
"230 75 OFFCURVE",
"230 77 OFFCURVE",
"230 80 CURVE",
"230 100 LINE"
);
}
);
width = 240;
},
{
layerId = "43180DBC-A696-476D-8635-86ED5F988BC9";
paths = (
{
closed = 1;
nodes = (
"80 34 LINE",
"80 101 LINE",
"58 101 LINE",
"58 34 LINE"
);
},
{
closed = 1;
nodes = (
"182 102 OFFCURVE",
"177 107 OFFCURVE",
"171 107 CURVE",
"135 107 LINE",
"140 133 LINE",
"141 135 LINE",
"141 137 OFFCURVE",
"140 139 OFFCURVE",
"138 141 CURVE",
"132 146 LINE",
"95 109 LINE",
"93 107 OFFCURVE",
"92 105 OFFCURVE",
"92 101 CURVE",
"92 45 LINE",
"92 39 OFFCURVE",
"97 34 OFFCURVE",
"103 34 CURVE",
"154 34 LINE",
"158 34 OFFCURVE",
"162 36 OFFCURVE",
"164 40 CURVE",
"182 80 LINE",
"182 82 OFFCURVE",
"182 83 OFFCURVE",
"182 84 CURVE",
"182 96 LINE"
);
}
);
width = 240;
},
{
associatedMasterId = "374D6CB2-7ECF-4C4C-B17A-FDC7D09CFFBE";
layerId = "EDF598D1-CE10-4519-A31E-63BB5EB9EF46";
name = "Origin {25}";
paths = (
{
closed = 1;
nodes = (
"32 -15 LINE",
"53 103 LINE",
"13 110 LINE",
"-7 -8 LINE"
);
},
{
closed = 1;
nodes = (
"235 54 OFFCURVE",
"229 62 OFFCURVE",
"218 65 CURVE",
"152 84 LINE",
"191 111 LINE",
"192 114 LINE",
"192 118 OFFCURVE",
"190 124 OFFCURVE",
"188 129 CURVE",
"183 138 LINE",
"89 106 LINE",
"84 105 OFFCURVE",
"81 100 OFFCURVE",
"79 94 CURVE",
"53 -2 LINE",
"52 -13 OFFCURVE",
"57 -24 OFFCURVE",
"68 -27 CURVE",
"155 -50 LINE",
"162 -52 OFFCURVE",
"170 -49 OFFCURVE",
"175 -43 CURVE",
"223 18 LINE",
"225 19 OFFCURVE",
"225 18 OFFCURVE",
"225 21 CURVE",
"231 43 LINE"
);
}
);
width = 240;
},
{
associatedMasterId = "374D6CB2-7ECF-4C4C-B17A-FDC7D09CFFBE";
layerId = "A9B49236-5C51-4959-B200-BA69D85AC254";
name = "Origin {50}";
paths = (
{
closed = 1;
nodes = (
"67 -2 LINE",
"46 117 LINE",
"7 110 LINE",
"27 -8 LINE"
);
},
{
closed = 1;
nodes = (
"217 169 OFFCURVE",
"206 177 OFFCURVE",
"195 174 CURVE",
"144 164 LINE",
"132 208 LINE",
"131 211 LINE",
"129 215 OFFCURVE",
"125 217 OFFCURVE",
"121 220 CURVE",
"104 226 LINE",
"98 179 LINE",
"98 155 OFFCURVE",
"59 139 OFFCURVE",
"61 133 CURVE",
"84 35 LINE",
"86 25 OFFCURVE",
"96 17 OFFCURVE",
"107 20 CURVE",
"195 40 LINE",
"203 43 OFFCURVE",
"209 49 OFFCURVE",
"210 57 CURVE",
"224 132 LINE",
"224 134 OFFCURVE",
"225 136 OFFCURVE",
"224 139 CURVE",
"219 159 LINE"
);
}
);
width = 240;
},
{
associatedMasterId = "374D6CB2-7ECF-4C4C-B17A-FDC7D09CFFBE";
layerId = "328B814F-75CD-4F36-B36D-3D9678644A70";
name = "Origin {75}";
paths = (
{
closed = 1;
nodes = (
"50 -10 LINE",
"50 110 LINE",
"10 110 LINE",
"10 -10 LINE"
);
},
{
closed = 1;
nodes = (
"230 111 OFFCURVE",
"221 120 OFFCURVE",
"210 120 CURVE",
"147 120 LINE",
"156 166 LINE",
"157 169 LINE",
"157 173 OFFCURVE",
"155 177 OFFCURVE",
"152 180 CURVE",
"142 190 LINE",
"76 124 LINE",
"72 121 OFFCURVE",
"70 116 OFFCURVE",
"70 110 CURVE",
"70 10 LINE",
"70 -1 OFFCURVE",
"79 -10 OFFCURVE",
"90 -10 CURVE",
"180 -10 LINE",
"188 -10 OFFCURVE",
"195 -5 OFFCURVE",
"198 2 CURVE",
"229 73 LINE",
"230 75 OFFCURVE",
"230 77 OFFCURVE",
"230 80 CURVE",
"230 100 LINE"
);
}
);
width = 240;
}
);
},
